<svg xmlns="http://www.w3.org/2000/svg" xmlns:xlink="http://www.w3.org/1999/xlink" width="272" height="92">
  <defs>
    <clipPath id="a">
      <path d="M114.7 47.257c0 13.056-10.288 23.292-22.95 23.292-12.662 0-23.009-10.235-23.009-23.292 0-13.138 10.317-22.677 22.979-22.677 12.662 0 22.979 9.529 22.979 22.677zm-9.6041.12414c0-8.159-6.3936-13.328-13.334-13.328s-13.706 5.2514-13.706 13.41c0 8.0772 6.8902 13.7 13.83 13.7s13.21-5.7158 13.21-13.783z"/>
    </clipPath>
  </defs>
  <path fill="#4285F4" d="M35.29 41.41V32H67c.31 1.64.47 3.58.47 5.68 0 7.06-1.93 15.79-8.15 22.01-6.05 6.3-13.78 9.66-24.02 9.66C16.32 69.35.36 53.89.36 34.91.36 15.93 16.32.47 35.3.47c10.5 0 17.98 4.12 23.6 9.49l-6.64 6.64c-4.03-3.78-9.49-6.72-16.97-6.72-13.86 0-24.7 11.17-24.7 25.03 0 13.86 10.84 25.03 24.7 25.03 8.99 0 14.11-3.61 17.39-6.89 2.66-2.66 4.41-6.46 5.1-11.65l-22.49.01z"/>
  <path fill="#ea4335" d="M114.69 47.443c0 13.09-10.305 22.736-22.952 22.736-12.647 0-22.952-9.6459-22.952-22.736 0-13.182 10.305-22.736 22.952-22.736 12.647 0 22.952 9.5536 22.952 22.736zm-9.2116.03125c0-8.18-6.4574-13.398-13.39-13.398-6.9321 0-11.969 5.0702-11.969 13.25 0 8.098 4.8023 12.958 11.734 12.958 6.9321 0 13.624-4.7215 13.624-12.809z"/>
  <g id="b" clip-path="url(#a)">
    <path fill="#f40000" d="M68 22.773h47v9H68z"/>
    <path fill="#ff8503" d="M68 31.71h47v9H68z"/>
    <path fill="#faf500" d="M68 39.475h47v9H68z"/>
    <path fill="#008922" d="M68 47.475h47v9H68z"/>
    <path fill="#4700ff" d="M68 55.487h47v9H68z"/>
    <path fill="#850189" d="M68 63.443h47v9H68z"/>
  </g>
  <path fill="#fbbc05" d="M163.13 47.443c0 13.09-10.305 22.736-22.952 22.736s-22.952-9.6459-22.952-22.736c0-13.182 10.305-22.736 22.952-22.736s22.952 9.5536 22.952 22.736zm-8.6045.17678c0-8.18-7.0645-13.544-13.997-13.544s-11.969 5.0702-11.969 13.25c0 8.098 4.8024 12.958 11.734 12.958s14.231-4.576 14.231-12.664z"/>
  <use xlink:href="#b" width="100%" height="100%" transform="translate(48.442)"/>
  <path fill="#4285F4" d="M209.75 26.34v39.82c0 16.38-9.66 23.07-21.08 23.07-10.75 0-17.22-7.19-19.66-13.07l8.48-3.53c1.51 3.61 5.21 7.87 11.17 7.87 7.31 0 11.84-4.51 11.84-13v-3.19h-.34c-2.18 2.69-6.38 5.04-11.68 5.04-11.09 0-21.25-9.66-21.25-22.09 0-12.52 10.16-22.26 21.25-22.26 5.29 0 9.49 2.35 11.68 4.96h.34v-3.61h9.25zm-8.56 20.92c0-7.81-5.21-13.52-11.84-13.52-6.72 0-12.35 5.71-12.35 13.52 0 7.73 5.63 13.36 12.35 13.36 6.63 0 11.84-5.63 11.84-13.36z"/>
  <path fill="#34A853" d="M225 3v65h-9.5V3h9.5z"/>
  <path fill="#EA4335" d="m262.02 54.48 7.56 5.04c-2.44 3.61-8.32 9.83-18.48 9.83-12.6 0-22.01-9.74-22.01-22.18 0-13.19 9.49-22.18 20.92-22.18 11.51 0 17.14 9.16 18.98 14.11l1.01 2.52-29.65 12.28c2.27 4.45 5.8 6.72 10.75 6.72 4.96 0 8.4-2.44 10.92-6.14zm-23.27-7.98 19.82-8.23c-1.09-2.77-4.37-4.7-8.23-4.7-4.95 0-11.84 4.37-11.59 12.93z"/>
</svg>