<?xml version="1.0" encoding="utf-8"?>
<!-- Generator: Adobe Illustrator 20.0.0, SVG Export Plug-In . SVG Version: 6.00 Build 0)  -->
<!DOCTYPE svg PUBLIC "-//W3C//DTD SVG 1.1//EN" "http://www.w3.org/Graphics/SVG/1.1/DTD/svg11.dtd">
<svg version="1.1" id="Layer_1" xmlns="http://www.w3.org/2000/svg" xmlns:xlink="http://www.w3.org/1999/xlink" x="0px" y="0px"
	 viewBox="0 0 1033.068 1673.45" enable-background="new 0 0 1033.068 1673.45" xml:space="preserve">
<g>
	<g>
		<g>
			<g>
				<g>
					<g>
						<path fill="#9D9D9D" d="M690.883,1034.272c-3.189-9.67-12.819-6.501-9.302,3.218c3.132,9.367,9.229,27.155-1.341,30.635
							c-3.807,1.612-10.514-1.261-13.298-10.73c-2.079-8.698-4.782-17.183-8.51-25.139c-0.984-1.964-1.444-3.755-1.73-5.686
							c-2.346-12.7,9.55-10.401,4.338-19.205c-8.919-14.735-21.734,8.123-12.155,27.797c9.79,20.275,6.747,29.121,16.041,39.764
							C679.542,1092.882,707.3,1080.7,690.883,1034.272z"/>
						<path fill="#C7C7C7" d="M638.017,1002.799c-1.402-1.429,0.376,0.223-5.625-5.27c-15.488-12.18-7.317-24.12,5.506-19.339
							c8.073,3.101,30.672,25.122,29.744,36.046c-0.492,7.572-4.856,5.477-5.798,9.863c-0.636,2.622,0.179,5.091,1.713,7.325
							c8.305,11.883,34.707-15.041-8.53-53.04c-28.553-26.053-72.698-8.655-20.602,34.559
							C638.938,1016.154,646.883,1012.009,638.017,1002.799z"/>
					</g>
					<g>
						<path fill="#6F6F6F" d="M570.297,1124.869c-10.679,9.913-9.012,24.995-9.002,39.501c0.56,8.843,10.915,8.176,9.814-3.27
							c0.249-6.086-0.713-12.525,1.027-18.283c3.642-11.364,18.256-13.212,18.555,11.592c-0.062,21.03,1.827,31.861-6.793,36.252
							c-1.012,0.644-8.67,1.328-5.403,9.791c6.213,15.968,20.605-11.411,21.421-15.575c1.035-5.594,0.657-35.115,0.393-40.464
							C598.294,1124.005,581.8,1113.917,570.297,1124.869z"/>
						<path fill="#6B6B6B" d="M603.45,1208.075c23.761,11.818,9.745,25.155-4.63,19.425c-27.184-10.89-32.515-42.971-18.126-42.731
							c2.599,0.118,5.075-3.001,5.157-6.809c1.362-20.337-40.817,1.978-15.471,38.524c22.77,34.125,61.263,24.165,60.998,6.386
							c-0.202-11.392-26.929-27.394-30.273-26.829C596.801,1196.868,592.279,1201.781,603.45,1208.075z"/>
					</g>
					<g>
						<path fill="#9C9C9C" stroke="#ACACAC" stroke-width="1.1601" d="M547.336,1044.059c16.238-40.759,14.678-40.322,21.214-48.544
							l30.713,13.603c-8.024,4.312-8.442,10.106-18.337,34.94L547.336,1044.059L547.336,1044.059z"/>
						<polygon fill="#929292" stroke="#ACACAC" stroke-width="1.1601" points="564.131,1086.218 547.336,1044.059 580.926,1044.059 
							597.721,1086.218 						"/>
						<path fill="#333333" stroke="#ACACAC" stroke-width="1.1601" d="M580.926,1044.059c9.789-24.572,10.32-30.676,18.337-34.94
							c1.533,5.797,2.486,2.872,6.855,13.861c4.199,10.539,8.398,21.079,8.398,21.079l-16.795,42.158L580.926,1044.059z"/>
					</g>
					<g>
						<path fill="#7F7F7F" stroke="#ACACAC" stroke-width="1.1601" d="M704.598,1166.834c-10.232,13.894-22.35,26.934-36.656,36.967
							l-27.608-19.135c12.27-7.059,23.161-17.262,32.295-28.142L704.598,1166.834z"/>
						<path fill="#676767" stroke="#ACACAC" stroke-width="1.1601" d="M697.213,1116.433c3.88,12.373,7.362,32.317,7.384,50.403
							l-31.968-10.312c-0.482-11.754-4.487-30.764-8.918-42.548L697.213,1116.433z"/>
						<path fill="#5B5B5B" stroke="#ACACAC" stroke-width="1.1601" d="M672.63,1156.522c-9.138,10.884-20.029,21.085-32.295,28.142
							c2.526-12.629,2.259-25.722,0.326-38.455c7.764-7.308,18.256-22.41,23.052-32.236
							C668.061,1125.538,672.142,1144.624,672.63,1156.522z"/>
					</g>
				</g>
				<g>
					<g>
						<path fill="#898989" d="M466.705,601.792c10.063-8.084,8.724-19.825,8.724-32.15c0.233-7.531-9.905-7.932-9.843,0.021
							c-0.084,7.869,1.811,22.425-8.44,23.89c-5.476,1.192-10.911-4.507-11.108-11.201c-0.255-23.426-1.331-32.092,6.241-35.486
							c2.413-1.368,5.679-0.071,7.407-3.104c2.378-3.28,0.661-8.965-2.837-9.734c-10.592-1.27-20.626,10.058-20.696,22.917
							c0,28.847-0.09,26.513,0.238,28.771C438.45,602.594,454.861,611.585,466.705,601.792z"/>
						<path fill="#C4C4C4" d="M446.015,528.082c-0.011-10.333-1.062-17.877,4.582-22.028c5.523-4.474,15.136-0.822,14.989,11.391
							c-0.11,16.301,2.417,34.416-9.594,34.365c-6.903-0.52-6.646,12.885-0.04,12.118c9.867,0.317,18.892-9.96,19.461-21.901
							c0.015-23.998,2.657-38.393-10.188-47.071c-11.31-7.966-33.398-0.533-28.825,35.023
							C438.057,536.578,446.269,534.647,446.015,528.082z"/>
					</g>
					<g>
						<path fill="#BEBEBE" d="M344.748,544.422c-0.134,4.54,3.98,7.414,6.899,5.28c4.864-2.971,2.285-12.854,5.732-21.381
							c3.294-7.581,11.972-9.61,16.585-2.132c3.648,5.997,0.473,8.369-0.599,31.625c-0.339,4.698-3.055,9.201-7.049,10.629
							c-2.044,0.942-4.806,0.136-6.196,2.674c-2.52,3.254-0.599,9.307,3.104,9.989c9.31,0.258,20.264-10.116,20.034-24.273
							c0.321-19.015,5.136-24.218,0.107-35.392C375.936,504.594,348.858,499.085,344.748,544.422z"/>
						<path fill="#3A3A3A" d="M374.931,584.911c0.772,5.192,1.8,9.57,2.164,10.798c3.757,15.645-14.509,20.834-18.757,5.505
							c-3.486-13.124-8.604-38.1,4.995-37.932c4.13,0.121,6.868-5.693,4.222-9.847c-2.972-4.662-11.05-1.842-15.073,1.472
							c-14.306,11.694-8.557,57.031,9.165,66.044c15.121,7.695,28.46-9.002,25.444-26.017c-1.345-5.016-2.699-12.476-3.056-13.027
							C381.151,576.916,374.206,579.629,374.931,584.911z"/>
					</g>
					<g>
						<path fill="#515151" stroke="#ACACAC" stroke-width="1.1601" d="M399.343,428.922c20.35-1.883,41.769,6.509,54.422,25.33
							l-21.241,26.022c-1.871-10.842-12.414-18.344-22.69-19.44L399.343,428.922z"/>
						<path fill="#5D5D5D" stroke="#ACACAC" stroke-width="1.1601" d="M370.44,475.397c3.857-20.032,8.664-33.923,28.903-46.474
							l10.491,31.91c-6.037,6.093-9.383,11.745-11.171,32.781L370.44,475.397z"/>
						<path fill="#2E2E2E" stroke="#ACACAC" stroke-width="1.1601" d="M409.834,460.832c10.354,1.104,20.821,8.64,22.69,19.44
							c-8.479,0.6-14.131,6.303-12.197,12.473c-2.734-9.289-13.085-3.62-21.662,0.865
							C400.436,472.325,403.979,466.756,409.834,460.832z"/>
					</g>
					<g>
						<path fill="#DADADA" stroke="#ACACAC" stroke-width="1.1601" d="M432.679,686.937c-19.958-1.227-38.39-10.541-49.168-31.103
							l21.927-25.446c4.058,12.426,8.702,20.131,21.335,23.483L432.679,686.937z"/>
						<path fill="#E7E7E7" stroke="#ACACAC" stroke-width="1.1601" d="M468.769,638.972c-1.434,20.55-16.529,39.602-36.088,47.965
							l-5.908-33.067c8.731-6.108,14.583-17.308,10.871-27.529L468.769,638.972z"/>
						<path fill="#353535" stroke="#ACACAC" stroke-width="1.1601" d="M426.771,653.87c-12.647-3.355-17.285-11.081-21.335-23.483
							c7.127,1.279,8.972,0.958,12.265-1.661c4.181-3.67,3.031-8.958,3.159-7.923c1.248,5.177,8.743,9.051,16.778,5.538
							C441.327,636.5,435.553,647.744,426.771,653.87z"/>
					</g>
				</g>
				<g>
					<g>
						<g>
							<path fill="#848484" d="M937.274,1084.552c-0.425,7.311-1.974,13.878,4.192,14.054c10.825,1.115-1.052-21.387,14.52-22.618
								c5.383-0.747,10.783,3.769,10.676,9.449c-0.789,17.63-0.17,26.032-8.37,28.072c-2.508,0.847-5.656-0.508-7.611,1.705
								c-2.622,2.329-1.343,6.971,2.056,8.003c5.214,1.135,10.534-0.248,14.694-3.31c8.888-6.519,7.924-13.859,9.101-33.948
								c0.38-3.762-0.894-8.629-4.365-12.763C960.492,1059.299,937.556,1067.93,937.274,1084.552z"/>
							<path fill="#777777" d="M962.827,1129.281c-1.144,8.247-0.965,14.634-7.04,16.975c-6.196,2.684-14.963-1.997-13.525-11.231
								c2.811-20.177,1.457-10.598,2.371-17.889c0.564-4.672,5.412-8.383,10.35-7.922c7.601,1.182,9.316-13.618-6.252-8.884
								c-14.66,4.425-13.964,16.79-15.048,25.015c-0.752,5.358-6.088,24.218,11.906,30.246c14.031,4.06,27.362-3.644,26.993-26.637
								C971.679,1123.313,963.307,1124.034,962.827,1129.281z"/>
						</g>
						<g>
							<path fill="#E9E9E9" d="M891.817,1266.435c-1.314,2.659-0.078,0.366-2.553,4.986c-2.174,5.193,7.121,9.78,9.718,2.662
								c2.047-3.422,2.927-7.661,6.152-10.288c3.315-2.604,8.715-2.669,12.13,0.118c7.146,5.565,2.357,13.119-2.518,22.193
								c-3.794,7.052-4.639,9.379-8.37,10.972c-6.068,2.6-9.073-2.398-12.422-1.14c-3.559,0.689-4.668,5.446-2.141,7.995
								c3.684,2.887,8.522,4.053,13.136,3.625c12.003-1.148,14.905-10.31,20.478-20.466c3.968-7.728,7.249-13.823,4.547-21.697
								C924.853,1250.77,902.348,1244.56,891.817,1266.435z"/>
							<path fill="#868686" d="M898.962,1313.58c-0.789,1.345-1.198,1.914-5.383,8.177c-4.711,7.03-14.211,5.445-17.167-1.505
								c-2.578-5.961,0.064-7.847,10.746-24.897c2.525-4.058,8.651-5.384,12.824-2.965c5.481,3.341,10.535-4.652,5.233-8.254
								c-6.239-3.505-14.355-3.624-20.523,0.208c-4.678,2.872-5.117,4.42-11.291,14.657c-5.193,7.793-7.587,10.096-7.523,16.979
								c-0.192,18.377,23.494,27.897,34.935,12.689c6.261-9.476,6.767-9.757,6.961-11.387
								C908.63,1312.087,901.681,1309.478,898.962,1313.58z"/>
						</g>
						<g>
							<path fill="#414141" stroke="#ACACAC" stroke-width="1.1601" d="M904.637,1196.361c1-0.777,13.886-12.256,23.009-21.464
								l32.701,7.68c-9.409,10.096-22.533,22.588-23.533,23.425L904.637,1196.361z"/>
							<path fill="#757575" stroke="#ACACAC" stroke-width="1.1601" d="M912.035,1226.876c-1.415-6.94-2.175-11.375-7.399-30.515
								l32.177,9.642c4.8,20.319,5.445,24.995,6.718,32.549L912.035,1226.876z"/>
							<path fill="#5D5D5D" stroke="#ACACAC" stroke-width="1.1601" d="M936.814,1206.003c1.002-0.841,14.119-13.324,23.534-23.426
								c4.213,13.915,8.474,32.067,8.644,33.067c-15.786,15.007-19.535,17.95-25.46,22.906
								C942.278,1231.109,941.638,1226.421,936.814,1206.003z"/>
						</g>
						<g>
							<path fill="#8C8C8C" stroke="#ACACAC" stroke-width="1.1601" d="M817.088,1347.651c10.798-2.332,21.918-5.447,30.102-8.141
								l25.701,21.628c-8.607,3.214-20.317,7.03-31.824,10.036L817.088,1347.651z"/>
							<path fill="#404040" stroke="#ACACAC" stroke-width="1.1601" d="M809.565,1377.935c4.781-16.659,5.105-18.637,7.523-30.285
								l23.978,23.524c-2.846,11.277-3.428,14.063-9.399,32.057L809.565,1377.935z"/>
							<path fill="#A1A1A1" stroke="#ACACAC" stroke-width="1.1601" d="M841.066,1371.174c11.505-3.007,23.245-6.83,31.824-10.036
								c-1.626,9.084-4.352,21.345-7.846,33.561c-11.517,3.405-14.76,4.473-33.377,8.533
								C837.457,1385.783,837.936,1383.581,841.066,1371.174z"/>
						</g>
					</g>
					<g>
						<g>
							<path fill="#989898" d="M781.059,1397.455c-2.365,0.837-2.635,1.188-11.446,7.166c-1.896,1.166-2.564,4.404-0.991,6.628
								c5.545,9.198,16.236-13.343,26.611-2.182c3.225,3.104,3.376,8.084,1.713,11.255c-1.249,2.359-2.118,2.78-10.713,8.582
								c-6.443,4.214-13.191,9.979-19.479,4.753c-2.157-1.51-2.931-4.861-5.845-5.109c-3.454-0.818-6.504,2.811-5.363,6.175
								c3.172,7.336,11.308,11.749,19.122,10.914c5.805-0.625,8.703-2.98,25.298-14.154c2.869-1.777,6.305-5.825,7.518-11.45
								C810.805,1404.646,794.613,1392.116,781.059,1397.455z"/>
							<path fill="#AFAFAF" d="M756.515,1446.552c-6.97,3.822-3.312,1.825-8.223,4.302c-8.849,4.464-16.904-4.509-13.693-12.238
								c1.471-4.53,6.021-5.544,9.368-7.487c8.663-4.798,18.606-12.176,24.264-2.722c3.202,6.151,12.373,0.256,8.26-5.001
								c-3.763-6.227-11.316-9.86-18.134-9.505c-4.757,0.248-6.33,1.587-20.106,9.12c-29.737,14.479-7.355,55.384,24.199,31.245
								C766.523,1450.133,761.059,1443.773,756.515,1446.552z"/>
						</g>
						<g>
							<path fill="#5E5E5E" d="M609.093,1462.317c-22.86,2.408-24.552,12.834-18.982,14.477c4.117,1.739,7.753-2.12,15.236-3.885
								c14.788-3.609,18.19,13.963,7.023,18.421c-1.013,0.449-5.82,1.161-8.812,3.179c-5.334,3.141-4.556,4.328-8.959,4.845
								c-7.821,0.58-10.397-5.526-14.317-0.827c-6.813,8.54,10.722,10.293,21.495,8.125c5.915-1.158,3.704-4.026,13.151-5.798
								C637.701,1494.276,629.305,1460.347,609.093,1462.317z"/>
							<path fill="#5E5E5E" d="M590.685,1519.921c0,12.212-19.452,14.905-19.556-1.916c-0.011-9.015,2.137-23.787,10.852-26.017
								c5.706-1.319,6.391,2.73,10.526,3.124c12.385,1.047,0.138-22.438-17.159-11.929c-10.147,5.828-13.651,20.871-14.071,32.989
								c-0.146,8.635,1.033,16.302,10.342,21.078c9.958,5.251,28.864,2.845,28.991-22.086c0.012-1.15,0.967-1.889-1.754-3.609
								C589.69,1505.643,590.682,1516.892,590.685,1519.921z"/>
						</g>
						<g>
							<path fill="#BFBFBF" stroke="#ACACAC" stroke-width="1.1601" d="M668.76,1435.799c8.103,2.465,19.215,5.352,30.336,7.585
								l11.732,31.475c-12.021-1.941-23.862-4.542-32.612-6.827L668.76,1435.799z"/>
							<path fill="#7D7D7D" stroke="#ACACAC" stroke-width="1.1601" d="M647.304,1458.619c11.013-10.913,12.563-12.703,21.456-22.82
								l9.455,32.232c-10.097,10.618-11.478,12.127-23.718,23.4L647.304,1458.619z"/>
							<path fill="#A2A2A2" stroke="#ACACAC" stroke-width="1.1601" d="M678.215,1468.031c8.663,2.268,20.686,4.901,32.612,6.827
								c-8.017,9.639-16.565,18.83-23.157,25.405c-13.83-3.137-19.501-4.673-33.173-8.833
								C666.772,1480.125,668.636,1478.111,678.215,1468.031z"/>
						</g>
						<g>
							<path fill="#3A3A3A" stroke="#ACACAC" stroke-width="1.1601" d="M547.266,1582.807c5.766,1.19,4.564,0.223,16.866-20.432
								h33.591c-14.475,24.307-14.488,24.85-17.76,28.125L547.266,1582.807z"/>
							<path fill="#7C7C7C" stroke="#ACACAC" stroke-width="1.1601" d="M555.149,1598.111c1.339-8.256-2.811-13.931-7.883-15.304
								l32.698,7.694c3.75,13.004,0.534,25.396-7.743,36.539L555.149,1598.111z"/>
							<path fill="#838383" stroke="#ACACAC" stroke-width="1.1601" d="M579.963,1590.5c3.296-3.333,3.14-3.584,17.758-28.126
								c10.128,17.007,14.121,20.541,14.938,35.82c-10.241,16.871-23.897,26.024-40.44,28.845
								C580.415,1615.985,583.753,1603.555,579.963,1590.5z"/>
						</g>
					</g>
					<g>
						<g>
							<path fill="#AFAFAF" d="M539.693,1606.503c-6.497-10.144-16.024-8.724-25.631-8.724c-6.008-0.233-6.32,9.902,0.016,9.843
								c7.146,0.098,17.894-1.66,19.047,8.44c0.95,5.476-3.593,10.911-8.93,11.108c-17.786,0.243-25.5,1.572-28.292-6.241
								c-1.091-2.413-0.056-5.679-2.474-7.407c-4.861-4.415-14.405,4.583-2.523,17.486c1.645,1.724,3.431,3.15,5.714,4.272
								c5.952,2.923,29.148,1.739,30.26,1.536C540.395,1634.751,547.462,1618.288,539.693,1606.503z"/>
							<path fill="#8E8E8E" d="M480.61,1626.388c-0.367-0.241-8.616-2.838-12.839-5.569c-12.095-7.581-1.733-20.056,7.728-17.725
								c3.427,0.711,3.889,3.622,15.336,4.598c4.808,0.104,9.025,4.565,9.009,9.524c-0.146,2.43,1.749,4.739,4.06,5.104
								c10.714,2.198,5.794-23.47-11.859-24.525c-12.859-0.078-3.994-4.644-20.263-2.756c-6.284,0.682-14.427,2.681-17.93,7.944
								c-12.805,17.415,19.923,36.518,27.951,31.311C484.848,1632.335,484.113,1628.689,480.61,1626.388z"/>
						</g>
						<g>
							<path fill="#A5A5A5" d="M444.534,1469.124c-4.906-2.347-15.971-6.053-20.48-4.661c-2.166,1.272-3.184,4.294-2.019,6.541
								c2.082,4.963,13.954,1.885,20.703,9.456c6.514,7.695-4.398,18.229-13.216,14.206c-9.832-3.011-21.142,0.381-22.804-9.788
								c-0.513-2.127,0.42-4.744-1.358-6.413c-2.149-2.873-6.934-1.949-8.15,1.434c-2.397,10.674,5.812,22.424,18.209,22.639
								c15.988,0.896,10.616,4.308,24.785-0.216C462.931,1495.003,458.126,1477.072,444.534,1469.124z"/>
							<path fill="#767676" d="M391.591,1490.446c-5.802-0.667-4.207-0.486-7.254-0.825c-17.72-2.596-11.311-21.287-0.273-19.791
								c12.79,2.089,28.193,0.163,27.072,12.491c-0.716,6.38,8.604,7.714,9.677,1.411c0.589-7.077-2.633-14.559-8.831-18.676
								c-5.376-3.571-8.094-2.47-28.152-5.234c-12.497-0.867-23.853,13.067-19.221,26.48c4.934,14.927,26.242,14.105,27.422,13.713
								C397.016,1498.612,396.452,1491.202,391.591,1490.446z"/>
						</g>
						<g>
							<polygon fill="#B3B3B3" stroke="#ACACAC" stroke-width="1.1601" points="489.359,1547.826 472.564,1576.028 
								438.973,1576.028 455.769,1547.826 							"/>
							<polygon fill="#8A8A8A" stroke="#ACACAC" stroke-width="1.1601" points="472.564,1519.624 489.359,1547.826 
								455.769,1547.826 438.973,1519.624 							"/>
							<polygon fill="#787878" stroke="#ACACAC" stroke-width="1.1601" points="455.769,1547.826 438.973,1576.028 
								422.178,1547.826 438.973,1519.624 							"/>
						</g>
						<g>
							<path fill="#BCBCBC" stroke="#ACACAC" stroke-width="1.1601" d="M324.033,1432.573c1.254,1.531,9.176,10.889,21.266,22.996
								l-7.59,32.722c-11.568-10.815-20.405-20.146-23.46-23.582L324.033,1432.573z"/>
							<path fill="#DBDBDB" stroke="#ACACAC" stroke-width="1.1601" d="M293.652,1439.828c12.904-2.621,15.539-3.158,30.381-7.255
								l-9.782,32.134c-16.347,3.825-19.746,4.357-32.698,6.456L293.652,1439.828z"/>
							<path fill="#9C9C9C" stroke="#ACACAC" stroke-width="1.1601" d="M314.251,1464.708c1.272,1.431,10,10.989,23.46,23.581
								c-15.237,4.531-28.231,7.563-33.241,8.553c-11.994-12.573-13.964-14.954-22.915-25.678
								C295.285,1468.932,297.808,1468.555,314.251,1464.708z"/>
						</g>
					</g>
					<g>
						<g>
							<path fill="#5A5A5A" d="M263.136,1423.727c-2.242-1.882-1.947-1.57-11.598-6.788c-1.876-1.137-5.057-0.259-6.318,2.174
								c-4.333,7.053,8.67,8.208,12.59,13.36c4.835,5.904,1.092,15.702-7.578,15.945c-3.699,0.099-18.842-9.077-21.104-10.497
								c-3.466-2.062-5.571-6.219-4.688-10.171c0.362-2.609,2.974-4.797,1.926-7.587c-0.843-3.437-5.463-4.481-7.953-1.941
								c-5.845,7.022-4.615,16.79-1.028,22.03c4.419,6.655,25.966,16.834,26.966,17.17
								C265.195,1464.196,278.023,1436.422,263.136,1423.727z"/>
							<path fill="#3F3F3F" d="M208.265,1424.448c-1.351-0.87-1.88-1.302-7.523-5.507c-10.998-8.038,1.372-23.708,12.152-15.365
								c9.609,7.236,6.48,4.516,14.553,10.287c3.734,2.757,4.977,8.541,2.355,12.795c-1.409,1.988-0.985,4.943,0.839,6.473
								c7.433,6.822,15.459-13.665,5.594-24.577c-3.173-3.614-3.412-2.31-19.158-14.142c-10.036-6.984-26.121-0.808-29.514,10.883
								c-2.503,7.222-0.214,16.503,7.304,21.551c3.082,2.082,5.799,4.843,9.199,6.369
								C209.645,1434.973,212.835,1427.225,208.265,1424.448z"/>
						</g>
						<g>
							<path fill="#969696" d="M135.302,1300.811c-0.661-3.603-0.807-3.36-6.234-13.887c-2.252-3.627-9.139-1.796-8.955,3.244
								c0.228,3.281,5.401,8.661,5.629,13.997c0.222,5.924-5.422,11.237-11.952,9.851c-5.533-1.179-6.82-5.781-11.708-15.327
								c-9.72-21.251,2.981-17.203,4.57-22.584c1.595-3.264-1.523-7.007-5.076-6.521c-7.143,1.911-13.248,8.953-13.541,17.499
								c-0.099,7.556,9.997,25.452,12.413,29.482C111.477,1332.808,139.054,1320.751,135.302,1300.811z"/>
							<path fill="#B1B1B1" d="M89.576,1269.488c-3.492-8.914-5.697-14.026-1.947-18.584c4.358-5.806,14.343-4.637,16.912,2.418
								c6.399,18.106,8.593,19.127,6.36,24.603c-2.562,6.099-10.203,5.552-7.771,11.381c2.322,6.809,11.32,1.381,15.41-5.122
								c6.23-9.732,1.565-17.566-1.94-26.344c-3.161-8.428-3.113-11.728-9.023-16.22c-7.986-6.14-19.773-5.156-26.488,1.779
								c-11.156,11.204-0.911,29.817,0.223,30.906C84.937,1278.123,91.212,1274.148,89.576,1269.488z"/>
						</g>
						<g>
							<path fill="#DBDBDB" stroke="#ACACAC" stroke-width="1.1601" d="M180.765,1341.163c1.999,15.388,2.739,18.444,5.332,30.375
								l-23.558,23.944c-3.699-13.755-4.452-16.352-7.416-32.621L180.765,1341.163z"/>
							<path fill="#2E2E2E" stroke="#ACACAC" stroke-width="1.1601" d="M151.693,1330.851c1,0.406,18.917,7.865,29.071,10.312
								l-25.642,21.698c-10.64-3.167-29.829-12.201-30.918-12.703L151.693,1330.851z"/>
							<path fill="#707070" stroke="#ACACAC" stroke-width="1.1601" d="M155.123,1362.862c2.981,16.366,4.012,19.985,7.416,32.621
								c-14.339-4.115-17.034-4.877-33.059-10.923c-2.923-11.41-5.164-33.391-5.275-34.401
								C125.218,1350.626,144.1,1359.559,155.123,1362.862z"/>
						</g>
						<g>
							<path fill="#636363" stroke="#ACACAC" stroke-width="1.1601" d="M111.164,1183.066c-4.6,10.749-9.198,23.067-11.248,29.393
								l-32.696,7.7c1.743-6.1,6.102-19.341,10.822-31.498L111.164,1183.066z"/>
							<path fill="#B6B6B6" stroke="#ACACAC" stroke-width="1.1601" d="M90.83,1158.924c11.457,14.415,12.535,15.462,20.334,24.142
								l-33.121,5.595c-7.162-8.521-9.046-10.613-20.607-26.113L90.83,1158.924z"/>
							<path fill="#5F5F5F" stroke="#ACACAC" stroke-width="1.1601" d="M78.043,1188.661c-4.463,11.495-8.825,24.557-10.822,31.498
								c-4.501-4.722-13.916-15.396-22.298-25.903c3.938-10.955,4.748-13.544,12.515-31.705
								C68.714,1177.67,70.319,1179.472,78.043,1188.661z"/>
						</g>
					</g>
					<g>
						<g>
							<path fill="#868686" d="M96.258,1124.466c-0.602-2.084-2.325-4.57-4.514-5.232c-3.474-1.054-5.637,5.042-7.745,7.42
								c-5.798,6.545-26.624,3.781-12.44-16.54c3.573-4.551,10.451-11.178,15.901-12.523c12.006-2.778,9.358,11.998,16.317,9.871
								c7.265-2.177,5-19.988-12.332-20.626c-18.587-0.421-47.835,33.6-29.842,48.996
								C72.556,1145.033,98.226,1131.556,96.258,1124.466z"/>
							<path fill="#6A6A6A" d="M112.272,1092.519c8.264-0.011,14.255-1.059,17.562,4.582c3.575,5.536,0.642,15.136-9.082,14.989
								c-15.83-0.134-23.126,2.212-26.951-6.908c-2.428-7.067-13.326-0.415-8.255,4.838c3.81,5.049,11.702,9.068,14.399,10.612
								c2.871,1.633,3.929,1.643,7.122,1.307c5.332-0.778,30.663,5.026,33.695-16.486c1.415-14.178-8.157-26.076-30.001-22.552
								C105.484,1084.571,107.052,1092.772,112.272,1092.519z"/>
						</g>
						<g>
							<path fill="#414141" d="M246.08,1112.901c6.588,10.608,16.386,9.012,26.424,9.002c5.873-0.556,5.492-10.918-2.187-9.814
								c-4.071-0.25-8.379,0.713-12.231-1.027c-7.597-3.64-8.849-18.256,7.755-18.555c13.301,0.058,22.245-1.707,24.495,7.112
								c0.697,2.082-0.006,4.762,1.929,6.294c2.424,2.691,7.17,1.183,8.008-2.297c1.211-10.639-7.999-21.658-19.789-20.952
								c-7.102,0.139-14.25-0.296-21.33,0.226C245.689,1084.874,238.656,1101.246,246.08,1112.901z"/>
							<path fill="#929292" d="M304.642,1092.507c26.091,0.065,20.71,12.804,15.77,16.999c-3.962,3.568-6.787,2.724-10.564,2.577
								c-11.054,0.034-23.821,1.782-23.695-9.581c0.079-2.599-2.007-5.075-4.555-5.157c-7.056-0.706-6.066,9.808-1.783,16.148
								c8.598,12.973,25.04,6.983,31.845,8.54c3.659,0.633,32.142-11.761,21.552-29.144c-7.715-12.82-29.055-10.325-30.06-9.842
								C298.5,1085.015,299.825,1092.299,304.642,1092.507z"/>
						</g>
						<g>
							<polygon fill="#949494" stroke="#ACACAC" stroke-width="1.1601" points="192.021,1135.862 163.819,1119.066 
								163.819,1085.476 192.021,1102.271 							"/>
							<polygon fill="#757575" stroke="#ACACAC" stroke-width="1.1601" points="220.224,1119.066 192.021,1135.862 
								192.021,1102.271 220.224,1085.476 							"/>
							<polygon fill="#BFBFBF" stroke="#ACACAC" stroke-width="1.1601" points="192.021,1102.271 163.819,1085.476 
								192.021,1068.681 220.223,1085.476 							"/>
						</g>
						<g>
							<path fill="#434343" stroke="#ACACAC" stroke-width="1.1601" d="M318.39,1166.873c1.872-13.801,7.02-31.655,8.02-32.181
								c0.74-0.92,0.588-0.724,1.266-1.618l32.625-7.997c-1.665,9.152-5.789,13.275-9.956,31.443L318.39,1166.873z"/>
							<path fill="#D1D1D1" stroke="#ACACAC" stroke-width="1.1601" d="M347.266,1190.7c-11.191-7.056-19.931-14.519-28.876-23.828
								l31.956-10.351c8.216,7.153,16.083,12.586,25.935,17.254L347.266,1190.7z"/>
							<path fill="#727272" stroke="#ACACAC" stroke-width="1.1601" d="M350.346,1156.522c4.065-17.916,8.268-22.163,9.956-31.443
								c5.647,8.405,14.16,15.806,22.003,21.093c-3.325,9.22-5.239,17.624-6.02,27.606
								C366.269,1169.033,358.478,1163.581,350.346,1156.522z"/>
						</g>
					</g>
					<g>
						<g>
							<path fill="#A9A9A9" d="M367.796,1214.609c0.53,9.994,7.755,14.474,15.579,20.711c5.32,4.23,11.411-3.865,5.914-7.869
								c-4.849-3.926-8.922-6.573-10.476-9.82c-3.408-7.887,4.061-15.198,11.653-13.29c3.04,0.734,3.432,1.834,6.734,4.409
								c10.761,8.49,14.524,8.916,14.7,16.485c0.267,2.703-1.612,5.678,0.527,7.791c1.716,2.203,5.43,2.242,7.375,0.325
								c3.852-3.827-2.905-22.981-7.437-25.557c-14.084-10.057-14.373-12.974-23.033-13.159
								C378.812,1194.352,367.103,1202.121,367.796,1214.609z"/>
							<path fill="#202020" d="M421.739,1218.729c1.649,2.362,6.091,0.653,8.8-0.531c4.414-1.913,10.651,0.843,13.143,4.96
								c10.876,17.99-45.428,24.218-36.576,4.261c1.557-3.091-0.401-7.94-4.764-7.245c-10.696,1.392-13.26,34.495,25.947,28.951
								c31.583-4.471,40.76-33.062,4.674-40.186c-2.782-0.52-4.771-0.654-6.304,0.208c-2.937,1.576-4.404-0.017-5.409,3.218
								C420.628,1214.335,420.546,1217.021,421.739,1218.729z"/>
						</g>
						<g>
							<path fill="#BBBBBB" d="M466.373,1111.174c10.464-6.498,9.013-15.999,9.002-26.424c-0.556-5.873-10.918-5.492-9.814,2.187
								c-0.249,4.071,0.713,8.379-1.027,12.231c-3.626,7.571-18.256,8.882-18.555-7.755c0.058-13.301-1.707-22.244,7.112-24.495
								c2.082-0.697,4.762,0.006,6.293-1.929c2.691-2.424,1.183-7.17-2.297-8.008c-10.639-1.212-21.658,7.999-20.952,19.789
								c0.139,7.102-0.296,14.25,0.226,21.33C438.35,1111.587,454.74,1118.584,466.373,1111.174z"/>
							<path fill="#676767" d="M445.978,1052.613c0.006-8.787-0.986-14.493,4.362-17.814c6.113-4.167,15.071,0.014,15.185,7.754
								c0.041,6.473,0.081,12.951-0.023,19.423c-0.064,4.847-4.495,9.183-9.53,9.127c-6.397-0.194-7.06,9.056-0.679,9.751
								c11.384,0.248,20.532-9.04,20.104-19.243c-0.01-16.961,2.543-29.263-10.348-35.878c-12.632-6.66-28.162,2.012-28.927,15.667
								c0,12.006-0.139,11.591,0.394,12.703C438.489,1058.755,445.77,1057.43,445.978,1052.613z"/>
						</g>
						<g>
							<polygon fill="#626262" stroke="#ACACAC" stroke-width="1.1601" points="489.333,1165.233 472.538,1193.436 
								438.948,1193.436 455.743,1165.233 							"/>
							<polygon fill="#B2B2B2" stroke="#ACACAC" stroke-width="1.1601" points="472.538,1137.031 489.333,1165.233 
								455.743,1165.233 438.948,1137.031 							"/>
							<polygon fill="#565656" stroke="#ACACAC" stroke-width="1.1601" points="455.743,1165.233 438.948,1193.436 
								422.152,1165.233 438.948,1137.031 							"/>
						</g>
						<g>
							<polygon fill="#AFAFAF" stroke="#ACACAC" stroke-width="1.1601" points="489.333,972.407 472.538,1000.609 438.948,1000.609 
								455.743,972.407 							"/>
							<path fill="#555555" stroke="#ACACAC" stroke-width="1.1601" d="M463.246,935.908c16.913,10.971,18.773,24.206,26.087,36.498
								h-33.59c-5.242-8.801-9.876-16.29-20.073-17.318L463.246,935.908z"/>
							<path fill="#BABABA" stroke="#ACACAC" stroke-width="1.1601" d="M455.743,972.407l-16.795,28.202l-16.795-28.202
								c4.766-8.003,3.701-6.723,5.274-7.328c4.242-1.576,7.179-5.63,8.244-9.99C445.939,956.124,450.587,963.75,455.743,972.407z"
								/>
						</g>
					</g>
					<g>
						<g>
							<path fill="#4C4C4C" d="M418.948,908.565c-7.642-1.975-3.944-1.013-8.97-2.437c-5.546-1.842-8.658,7.81-2.632,9.485
								c6.72,2.118,17.478,2.767,16.106,13.004c-0.412,5.549-6.184,9.669-11.479,8.501c-19.586-4.543-25.433-6.499-25.74-13.789
								c-0.335-2.64,1.605-5.448-0.177-7.831c-1.769-3.061-6.557-2.787-8.221,0.354c-4.139,9.59,1.148,22.091,11.594,25.229
								c12.411,3.57,19.929,5.83,22.729,6.051C435.071,949.558,441.402,913.407,418.948,908.565z"/>
							<path fill="#454545" d="M369.934,924.704c-8.421-2.56-14.136-4.09-15.294-10.132c-1.516-6.376,4.569-14.44,13.51-11.132
								c16.353,5.806,19.685,5.081,22.271,10.421c3.084,6.26-2.427,10.483,3.131,13.076c9.614,5.023,11.981-20.749-4.122-26.867
								c-21.624-7.091-24.518-9.249-32.544-5.708c-16.785,7.261-19.484,35.096,11.516,39.949
								C374.067,934.373,375.048,926.071,369.934,924.704z"/>
						</g>
						<g>
							<path fill="#656565" d="M251.133,834.851l-9.026-6.595c-2.608-1.539-6.709,0.655-7.061,3.87
								c-1.051,5.459,8.419,7.146,12.005,13.053c4.104,7.158-2.811,16.438-10.963,14.184c-2.191-0.428-2.783-1.103-12.575-8.285
								c-18.449-13.576-5.231-16.859-6.363-22.09c-0.188-3.573-4.584-5.523-7.505-3.451c-8.251,7.523-7.879,21.831,2.292,29.088
								c1.158,0.91,13.826,10.71,18.174,13.111C251.494,878.091,267.725,847.595,251.133,834.851z"/>
							<path fill="#424242" d="M198.971,830.935c-6.186-5.482-3.35-2.954-7.228-6.643c-6.13-5.926-2.871-14.996,4.455-16.696
								c5.976-1.422,8.993,2.513,12.031,5.41c8.214,7.187,18.481,13.946,11.497,22.428c-6.005,6.971,9.806,16.068,11.683-4.709
								c1.083-11.444-5.892-15.603-13.78-22.562c-5.547-5.032-12.025-13.521-24.704-9.617c-9.841,2.899-16.273,12.875-13.936,22.899
								c2.055,8.493,13.63,17.208,14.85,17.58C198.832,840.797,202.52,834.337,198.971,830.935z"/>
						</g>
						<g>
							<path fill="#A1A1A1" stroke="#ACACAC" stroke-width="1.1601" d="M313.863,855.488c0.584,1.001,7.951,12.879,17.477,26.362
								l-13.164,30.904c-10.043-13.439-18.467-26.103-19.097-27.103L313.863,855.488z"/>
							<path fill="#434343" stroke="#ACACAC" stroke-width="1.1601" d="M282.44,857.828c8.625-0.382,12.972-0.472,31.423-2.342
								L299.08,885.65c-19.321,1.343-22.726,1.284-33.188,1.409L282.44,857.828z"/>
							<path fill="#858585" stroke="#ACACAC" stroke-width="1.1601" d="M299.08,885.65c0.628,1,8.728,13.229,19.097,27.104
								c-17.104,2.047-32.878,3.022-33.879,3.058c-11.157-16.482-13.05-19.82-18.405-28.754
								C275.167,886.948,279.409,887.017,299.08,885.65z"/>
						</g>
						<g>
							<path fill="#646464" stroke="#ACACAC" stroke-width="1.1601" d="M180.654,744.737c0.151,8.164,0.511,22.212,1.903,30.834
								l-26.06,21.195c-1.95-9.529-3.085-24.296-3.713-33.279L180.654,744.737z"/>
							<path fill="#626262" stroke="#ACACAC" stroke-width="1.1601" d="M152.891,731.324c8.781,4.79,18.489,9.73,27.762,13.413
								l-27.871,18.749c-13.687-6.29-27.145-14.685-29.358-16.034L152.891,731.324z"/>
							<path fill="#AAAAAA" stroke="#ACACAC" stroke-width="1.1601" d="M152.784,763.486c0.647,9.254,1.794,23.922,3.713,33.279
								c-9.278-3.28-23.038-10.172-31.584-14.531c-1.82-16.594-1.494-33.227-1.487-34.782
								C132.686,753.097,142.897,758.942,152.784,763.486z"/>
						</g>
					</g>
					<g>
						<g>
							<path fill="#8A8A8A" d="M140.321,699.47c-0.342-2.634-0.499-2.682-4.28-12.705c-1.817-5.471-11.422-2.244-9.267,3.318
								c2.182,6.041,7.73,15.529-1.03,20.485c-3.479,2.244-8.161,1.694-11.361-0.93c-1.992-1.737-2.167-2.579-5.862-12.46
								c-9.307-24.902,4.294-18.673,6.46-24.544c1.607-3.146-1.215-6.967-4.762-6.676c-8.07,1.326-14.035,8.248-15.244,15.943
								c-0.642,4.962,0.665,7.838,2.33,12.969c5.172,15.89,7.125,21.329,14.948,25.128
								C126.651,726.917,142.428,713.387,140.321,699.47z"/>
							<path fill="#585858" d="M98.465,664.031c-2.094-8.431-4.152-14.285,0.531-18.487c4.92-4.758,14.748-3.268,16.614,5.684
								c3.873,17.406,6.103,18.951,3.141,24.111c-3.44,5.977-10.059,3.787-9.086,9.884c0.85,7.417,12.126,3.826,17.557-5.119
								c5.016-8.2,2.21-14.243-0.183-23.047c-1.046-4.22-2.532-24.395-21.768-23.819c-18.193,1.302-23.082,17.6-15.717,34.672
								C92.613,672.833,100.117,669.129,98.465,664.031z"/>
						</g>
						<g>
							<path fill="#242424" d="M118.469,516.761c1.233-10.149,0.707-5.47,1.566-11.009c0.389-5.558-9.869-7.042-10.049,0.529
								c-0.603,2.577-0.549,3.794-0.821,5.966c-1.192,9.506-8.92,11.1-13.294,9.471c-8.614-2.988-6.378-11.668-4.65-21.883
								c3.897-22.986,12.381-12.343,16.706-15.835c3.146-1.756,2.68-6.624-0.516-8.282c-10.547-3.892-23.192,3.43-24.687,15.465
								c-2.4,15.667-5.899,24.81,0.643,33.246C93.91,537.933,115.672,531.604,118.469,516.761z"/>
							<path fill="#BDBDBD" d="M97.761,468.736c2.632-9.619,2.836-11.637,4.972-13.769c4.16-4.289,10.971-3.629,14.516,0.585
								c4.683,5.477,1.24,9.968-2.712,26.907c-1.076,4.56-6.335,7.798-11.263,6.773c-2.53-0.598-5.445,0.968-5.923,3.514
								c-1.907,6.932,8.569,7.663,15.578,4.691c11.049-4.518,11.167-13.336,13.661-22.588c2.041-7.529,6.431-17.016-2.86-26.4
								c-11.178-11.522-28.6-5.71-32.39,6.394c-3.341,12.23-3.362,11.778-3.152,13.045
								C88.732,472.989,96.208,473.537,97.761,468.736z"/>
						</g>
						<g>
							<path fill="#CACACA" stroke="#ACACAC" stroke-width="1.1601" d="M130.215,581.213c-5.98,10.573-7.412,13.025-14.667,27.86
								l-33.379,3.762c7.228-16.177,8.577-18.649,14.495-29.992L130.215,581.213z"/>
							<path fill="#E8E8E8" stroke="#ACACAC" stroke-width="1.1601" d="M112.946,554.876c4.421,7.373,11.312,18.034,17.269,26.336
								l-33.551,1.63c-5.547-8.313-12.686-19.94-17.306-28.413L112.946,554.876z"/>
							<path fill="#8B8B8B" stroke="#ACACAC" stroke-width="1.1601" d="M96.664,582.843c-5.966,11.436-7.303,13.892-14.495,29.992
								c-10.332-14.44-12.103-17.34-19.056-28.363c4.911-10.03,11.475-22,16.245-30.043
								C83.995,562.924,91.04,574.409,96.664,582.843z"/>
						</g>
						<g>
							<path fill="#BBBBBB" stroke="#ACACAC" stroke-width="1.1601" d="M165.719,412.099c-8.615,4.622-18.331,11.005-26.317,16.476
								l-30.907-13.156c8.388-6.291,18.474-13.548,27.477-18.922L165.719,412.099z"/>
							<path fill="#6D6D6D" stroke="#ACACAC" stroke-width="1.1601" d="M164.292,381.048c0.132,13.802,0.116,15.674,1.427,31.05
								l-29.747-15.603c-0.693-17.041-0.521-20.162-0.092-33.368L164.292,381.048z"/>
							<path fill="#7B7B7B" stroke="#ACACAC" stroke-width="1.1601" d="M135.972,396.496c-9.162,5.489-18.935,12.519-27.477,18.922
								c-1.143-10.761-2.23-23.28-2.271-34.526c14.953-9.723,17.739-11.194,29.656-17.765
								C135.433,376.873,135.284,379.574,135.972,396.496z"/>
						</g>
					</g>
					<g>
						<g>
							<path fill="#808080" d="M186.006,354.226c1.96-1.429,2.022-1.693,8.912-10.136c1.588-1.853,1.146-4.996-0.896-6.606
								c-4.886-4.469-8.151,2.596-13.006,7.961c-8.322,8.852-22.065-3.117-15.112-12.286c11.527-14.507,16.154-20.904,23.504-17.739
								c2.527,0.865,4.192,3.833,7.122,3.306c3.528-0.21,5.396-4.583,3.344-7.489c-3.411-4.086-8.481-6.275-13.722-6.403
								c-9.538-0.216-14.304,5.115-21.202,13.877c-6.46,7.901-11.418,11.916-10.709,21.365
								C155.4,355.597,174.221,363.235,186.006,354.226z"/>
							<path fill="#909090" d="M195.564,300.144c6.313-6.374,10.355-10.748,16.16-8.965c4.24,1.15,7.552,5.601,7.105,10.36
								c-0.089,4.255-3.264,6.593-6.802,9.9c-6.304,5.888-13.933,17.364-22.536,9.449c-4.816-4.989-11.899,3.303-6.463,7.174
								c5.392,4.917,13.647,6.223,20.041,3.933c5.243-1.829,6.004-3.973,16.762-14.376c3.433-3.216,5.502-4.687,7.135-8.684
								c8.472-19.807-18.375-43.606-39.273-14.497C184.991,299.596,192.031,304.122,195.564,300.144z"/>
						</g>
						<g>
							<path fill="#484848" d="M316.413,241.002c9.837,6.675,16.562,2.506,26.949-1.586c2.703-1.382,3.029-6.014,0.487-8.026
								c-4.084-3.807-10.487,3.241-17.461,3.214c-8.228-0.362-12.444-11.133-6.162-16.832c2.322-2.372,20.238-8.73,21.249-9.039
								c3.911-1.149,8.488,0.327,10.731,3.794c1.324,1.747,1.518,4.514,3.815,5.343c2.953,1.696,7.107-0.992,6.877-4.615
								c-2.042-10.822-14.288-18.171-25.868-13.438c-15.554,5.945-28.28,8.529-29.641,22.845
								C306.765,230.007,310.664,237.241,316.413,241.002z"/>
							<path fill="#181818" d="M363.9,201.37c7.909-2.248,13.804-5.23,18.649-0.593c5.495,4.816,3.641,14.626-3.642,16.58
								c-14.896,4.398-26.028,10.148-29.737-0.737c-1.895-6.076-11.065-3.76-9.413,2.645c3.645,10.382,15.329,16.323,24.341,12.761
								c1.327-0.417,16.237-4.907,18.922-5.538c11.9-4.055,16.757-21.392,7.432-31.839c-9.913-11.395-29.41-3.075-30.751-1.901
								C355.604,196.024,359.143,202.569,363.9,201.37z"/>
						</g>
						<g>
							<path fill="#9F9F9F" stroke="#ACACAC" stroke-width="1.1601" d="M282.778,285.679c-12.96,0.074-15.027,0.03-31.255,1.23
								l-20.154-26.872c17.189-1.942,20.206-2.027,33.255-2.619L282.778,285.679z"/>
							<path fill="#AFAFAF" stroke="#ACACAC" stroke-width="1.1601" d="M296.933,257.809c-6.193,10.993-11.091,20.909-14.155,27.87
								l-18.154-28.262c3.35-6.848,8.93-17.202,16.225-29.096L296.933,257.809z"/>
							<path fill="#343434" stroke="#ACACAC" stroke-width="1.1601" d="M264.624,257.417c-14.294,0.649-16.429,0.718-33.255,2.619
								c7.168-16.024,8.818-19.014,15.102-30.882c7.898-0.613,20.119-1.082,34.378-0.834
								C273.787,239.834,268.038,250.408,264.624,257.417z"/>
						</g>
						<g>
							<path fill="#4F4F4F" stroke="#ACACAC" stroke-width="1.1601" d="M465.198,215.244c-24.826,11.022-41.813,1.801-45.146,0.411
								l-5.448-33.146c15.004,5.631,18.212,9.126,28.817,7.159L465.198,215.244z"/>
							<path fill="#C1C1C1" stroke="#ACACAC" stroke-width="1.1601" d="M472.417,166.092c5.56,16.654,2.241,33.722-7.218,49.151
								l-21.777-25.575c2.937-9.329,2.066-18.94-4.538-25.519L472.417,166.092z"/>
							<path fill="#AAAAAA" stroke="#ACACAC" stroke-width="1.1601" d="M443.421,189.669c-10.786,1.984-14.361-1.733-28.817-7.159
								c0.411-0.333,7.875-6.241,8.075-6.73c1.835-4.526,1.227-8.576-1.035-11.687c3.786,4.006,11.168,4.781,17.239,0.057
								C445.604,170.819,446.291,180.555,443.421,189.669z"/>
						</g>
					</g>
					<g>
						<g>
							<path fill="#757575" d="M466.68,140.252c10.143-6.497,8.724-16.024,8.724-25.631c0.233-6.01-9.904-6.318-9.843,0.016
								c-0.096,7.146,1.658,17.895-8.44,19.046c-5.476,0.95-10.911-3.593-11.108-8.93c-0.282-20.66-0.4-22.468,2.228-25.91
								c4.879-6.714,11.941,0.232,14.796-4.809c4.65-6.833-13.74-16.633-23.571-1.028c-4.138,6.852-3.327,10.19-3.336,31.717
								c-0.041,0.911,0.075,1.816,0.238,2.71C438.438,140.99,454.921,148.004,466.68,140.252z"/>
							<path fill="#616161" d="M452.343,79.824c2.618-0.745,3.328-2.059,5.827-4.829c18.469-19.937,26.65,2.732,18.702,9.517
								c-11.883,9.318-6.908,13.922-16.857,15.837c-2.237,0.431-9.273-1.462-9.224,5.176c0.107,3.393,4.129,6.456,12.258,3.258
								c3.433-1.351,4.562-2.745,6.124-3.546c9.439-4.918,6.109-4.843,9.678-9.287c3.239-3.792,4.406-2.341,6.225-7.74
								c14.097-40.528-23.735-38.319-37.679-15.333C445.362,76.947,447.725,81.319,452.343,79.824z"/>
						</g>
						<g>
							<path fill="#2A2A2A" d="M562.92,106.771c-2.045,4.349-1.663,6.164-1.651,18.171c0.302,3.188,4.495,5.185,7.297,3.453
								c5.111-2.602,0.636-11.436,3.544-17.871c3.576-7.464,15.164-6.982,17.889,0.939c1.013,2.457,0.714,17.247,0.632,22.561
								c-0.186,3.964-3.068,7.727-7.077,8.75c-2.082,0.697-4.762-0.006-6.293,1.929c-2.691,2.424-1.183,7.17,2.297,8.008
								c10.639,1.211,21.658-7.999,20.952-19.789c-0.185-9.44,2.688-31.131-10.866-36.894
								C578.924,91.454,564.17,104.121,562.92,106.771z"/>
							<path fill="#5E5E5E" d="M590.666,157.079c-0.016,6.515-0.021,4.741,0.025,5.741c0.683,13.387-11.239,17.565-16.791,10.927
								c-2.578-3.292-2.551-6.155-2.807-11.45c-0.039-11.073-1.784-23.836,9.579-23.71c2.599,0.079,5.075-2.008,5.157-4.555
								c0.707-7.057-9.807-6.066-16.149-1.783c-10.081,6.68-8.485,15.755-8.432,30.124c0.319,8.456,1.255,20.108,13.313,24.8
								c10.368,3.609,17.401-4.49,22.824-13.921c4.63-7.873,3.146-7.805,3.128-11.638c0-4.581,0.142-4.92-0.389-6.029
								C598.164,150.952,590.875,152.251,590.666,157.079z"/>
						</g>
						<g>
							<polygon fill="#3D3D3D" stroke="#ACACAC" stroke-width="1.1601" points="539.682,104.244 511.479,87.448 511.479,53.858 
								539.682,70.653 							"/>
							<path fill="#282828" stroke="#ACACAC" stroke-width="1.1601" d="M556.576,90.936c-5.096,1.169-9.132,4.369-10.644,9.58
								c-0.076,0.055-6.169,3.679-6.249,3.727v-33.59c5.796-3.452,17.144-11.761,36.649-6.885L556.576,90.936z"/>
							<path fill="#474747" stroke="#ACACAC" stroke-width="1.1601" d="M539.682,70.653L511.48,53.858l28.202-16.795
								c11.154,6.643,25.681,9.209,36.648,26.704C557.354,59.051,546.552,66.559,539.682,70.653z"/>
						</g>
						<g>
							<path fill="#C5C5C5" stroke="#ACACAC" stroke-width="1.1601" d="M630.044,233.555c-23.59-21.5-19.923-16.565-25.974-20.936
								c8.811-38.012,6.893-33.502,9.084-30.359c0,0,13.323,10.352,22.59,18.191L630.044,233.555z"/>
							<path fill="#353535" stroke="#ACACAC" stroke-width="1.1601" d="M659.38,222.491c-10.602,3.511-19.149,6.709-29.335,11.065
								l5.698-33.104c11.273-4.329,20.47-7.367,31.578-10.599L659.38,222.491z"/>
							<path fill="#363636" stroke="#ACACAC" stroke-width="1.1601" d="M635.743,200.451
								c-24.441-20.676-20.699-15.312-23.616-19.712c-0.33-0.483-0.466-0.861-0.473-0.843c0.517-2.437,27.287-11.669,29.786-12.55
								c9.952,7.964,17.325,14.449,25.879,22.505C655.881,193.179,646.772,196.215,635.743,200.451z"/>
						</g>
					</g>
					<g>
						<g>
							<path fill="#797979" d="M691.932,234.411c2.24,1.469,2.343,1.362,12.525,5.091c5.314,2.299,9.214-7.069,3.529-9.188
								c-6.167-2.354-16.886-4.371-14.846-14.209c0.607-4.117,4.125-7.258,8.156-7.93c2.645-0.39,3.609,0.133,13.22,3.676
								c10.054,3.791,11.864,4.7,13.681,7.393c4.134,6.251-1.338,9.874,0.733,13.502c1.364,3.239,6.125,3.527,8.205,0.633
								c2.75-4.564,3.152-10.051,1.539-15.013c-3.211-9.845-10.115-11.599-20.067-15.494c-11.793-4.329-10.948-4.096-12.744-4.42
								C684.617,194.58,675.234,223.732,691.932,234.411z"/>
							<path fill="#CECECE" d="M743.671,222.805c0.804,2.556,1.682,2.549,10.805,7.153c11.115,5.605,3.515,22.406-7.845,17.862
								c-0.136-0.051-13.798-6.841-17.806-8.717c-4.191-2.022-6.148-7.858-4.214-12.364c1.102-2.174,0.245-5.022-1.785-6.251
								c-9.083-6.069-13.902,19.241,0.817,27.126c18.419,8.127,20.822,12.677,30.639,10.12c18.808-5.05,20.714-29.161,4.771-36.497
								c-7.108-3.249-9.622-6.031-12.964-4.366C744.103,217.894,742.84,220.178,743.671,222.805z"/>
						</g>
						<g>
							<path fill="#A0A0A0" d="M838.606,322.846c-3.879,11.361,1.935,16.88,8.11,25.396c3.607,4.048,12.123-1.792,6.804-7.338
								c-1.579-2.506-3.777-4.706-5.113-7.371c-3.111-5.616,0.108-11.566,4.396-13.502c8.367-4.004,12.855,3.116,23.202,19.169
								c2.085,3.542,1.8,8.297-1.152,11.305c-1.42,1.691-4.058,2.492-4.395,4.935c-1.09,3.45,2.559,6.665,6.016,5.676
								c4.307-1.842,7.649-5.515,9.459-9.787c4.506-10.713-1.679-17.951-8.711-27.917c-4.807-6.758-10.612-16.279-23.274-14.046
								C846.656,310.668,840.724,316.396,838.606,322.846z"/>
							<path fill="#919191" d="M888.335,359.552c5.005,9.47,5.091,9.445,5.51,11.028c2.087,8.931-8.013,15.172-15.061,10.332
								c-2.398-1.647-2.727-2.697-8.551-13.689c-1.958-3.349-9.133-13.128-0.062-18.747c5.54-3.257,0.864-11.553-4.773-8.535
								c-5.987,3.886-9.931,11.053-9.538,18.218c0.247,4.695,0.635,4.623,11.841,25.263c11.071,18.973,44.767,4.613,34.848-18.072
								c-5.976-11.297-5.648-10.976-6.672-11.763C891.955,350.386,886.155,354.769,888.335,359.552z"/>
						</g>
						<g>
							<path fill="#1B1B1B" stroke="#ACACAC" stroke-width="1.1601" d="M786.978,303.571c-1.866-5.911-5.593-18.098-10.417-29.122
								l19.265-27.517c5.927,12.061,11.137,26.564,12.747,30.907L786.978,303.571z"/>
							<path fill="#919191" stroke="#ACACAC" stroke-width="1.1601" d="M817.415,308.762c-1-0.272-13.36-3.052-30.438-5.192
								l21.594-25.73c18.018,3.182,31.667,6.919,32.669,7.242L817.415,308.762z"/>
							<path fill="#505050" stroke="#ACACAC" stroke-width="1.1601" d="M808.572,277.841c-1.949-5.264-7.24-19.897-12.747-30.907
								c10.883,0.894,24.912,3.345,34.339,5.178c7.139,18.658,10.84,31.972,11.076,32.972
								C840.238,284.76,826.928,281.082,808.572,277.841z"/>
						</g>
						<g>
							<path fill="#C6C6C6" stroke="#ACACAC" stroke-width="1.1601" d="M876.345,446.953c3.419-10.055,6.355-19.366,8.654-29.711
								l31.73-11.025c-1.93,11.193-4.699,21.69-7.811,32.528L876.345,446.953z"/>
							<path fill="#454545" stroke="#ACACAC" stroke-width="1.1601" d="M898.059,469.081c-1.956-2.192-10.001-11.519-21.714-22.128
								l32.572-8.208c11.94,11.924,20.155,22.27,22.285,24.875L898.059,469.081z"/>
							<path fill="#696969" stroke="#ACACAC" stroke-width="1.1601" d="M908.917,438.746c3.118-10.862,5.883-21.346,7.81-32.528
								c8.888,7.684,16.763,15.778,24.763,24.32c-4.373,17.362-9.069,29.72-10.286,33.082
								C929.145,461.103,920.993,450.806,908.917,438.746z"/>
						</g>
					</g>
					<g>
						<g>
							<path fill="#222222" d="M897.081,497.195c-0.447,0.632-1.334,2.899-2.099,3.603c-2.642,2.97,2.303,8.692,5.605,7.945
								c1.809-0.426,4.24-5.1,5.217-6.838c3.668-8.011,25.02-6.341,16.298,10.931c-3.596,6.868-13.121,17.994-21.047,17.712
								c-8.38-0.567-5.986-8.264-11.239-9.469c-7.176-1.663-8.382,12.187,1.685,17.844c20.217,11.219,51.309-25.37,40.829-43.481
								C923.421,478.201,898.218,495.336,897.081,497.195z"/>
							<path fill="#3F3F3F" d="M883.012,537.802c-2.004-1.897-2.311-1.506-12.548-1.492c-9.574,0.118-13.159-11.54-6.838-17.013
								c3.12-3.181,6.91-2.548,16.602-2.576c7.585-0.013,10.344-1.948,15.467,3.253c2.748,2.718,1.929,4.308,4.629,5.357
								c4.336,1.685,14.208-4.601-2.94-14.157c-10.804-6.053-10.116-4.577-14.14-4.332c-5.684,0.542-29.296-4.22-32.219,16.522
								C847.83,555.386,896.394,548.211,883.012,537.802z"/>
						</g>
						<g>
							<path fill="#4D4D4D" d="M745.703,515.915c-6.498-10.464-15.999-9.013-26.424-9.002c-5.876,0.556-5.491,10.918,2.187,9.814
								c4.071,0.249,8.379-0.713,12.231,1.027c7.581,3.631,8.868,18.256-7.754,18.555c-13.301-0.058-22.245,1.707-24.495-7.112
								c-0.697-2.082,0.006-4.762-1.929-6.294c-2.424-2.691-7.17-1.183-8.008,2.297c-1.211,10.64,7.999,21.658,19.789,20.952
								c7.102-0.139,14.25,0.296,21.329-0.226C746.116,543.939,753.113,527.547,745.703,515.915z"/>
							<path fill="#939393" d="M687.141,536.31c-32.172-0.148-17.74-21.188-8.413-19.906c10.397,1.293,27.048-3.206,26.902,9.912
								c-0.079,2.599,2.008,5.075,4.555,5.157c7.057,0.707,6.066-9.807,1.783-16.149c-8.563-12.92-23.635-6.789-32.317-8.798
								c-4.282-0.181-34.559,14.389-19.517,31.282c8.16,10.062,26.992,8.683,28.496,7.963
								C693.284,543.8,691.957,536.518,687.141,536.31z"/>
						</g>
						<g>
							<polygon fill="#CECECE" stroke="#ACACAC" stroke-width="1.1601" points="799.762,492.954 827.964,509.75 827.964,543.34 
								799.762,526.545 							"/>
							<polygon fill="#999999" stroke="#ACACAC" stroke-width="1.1601" points="771.56,509.75 799.762,492.954 799.762,526.545 
								771.56,543.34 							"/>
							<polygon fill="#979797" stroke="#ACACAC" stroke-width="1.1601" points="799.762,526.545 827.964,543.34 799.762,560.135 
								771.56,543.34 							"/>
						</g>
						<g>
							<path fill="#717171" stroke="#ACACAC" stroke-width="1.1601" d="M642.075,447.917c15.587,12.678,22.5,29.173,22.019,44.808
								l-31.352,12.056c4.007-8.913,2.722-17.724-3.304-25.745L642.075,447.917z"/>
							<path fill="#3F3F3F" stroke="#ACACAC" stroke-width="1.1601" d="M595.508,463.8c11.677-11.204,27.384-17.465,46.567-15.884
								l-12.638,31.119c-9.302,1.563-17.646,6.979-21.091,15.803L595.508,463.8z"/>
							<path fill="#202020" stroke="#ACACAC" stroke-width="1.1601" d="M629.437,479.036c5.994,7.979,7.335,16.834,3.304,25.745
								c-7.283-3.197-14.047,0.31-15.951,5.394c2.486-5.671-1.802-12.034-8.443-15.335
								C611.793,486.014,620.134,480.602,629.437,479.036z"/>
						</g>
					</g>
					<g>
						<g>
							<path fill="#A7A7A7" d="M569.329,493.761c-9.384,7.256-8.091,17.712-8.091,27.357c-0.233,6.01,9.904,6.318,9.843-0.016
								c0.039-2.898-0.068-6.418,0.042-9.635c1.159-16.12,19.787-8.88,19.525-0.365c0.013,17.269,1.776,25.3-6.262,28.174
								c-2.413,1.091-5.679,0.056-7.407,2.474c-2.378,2.615-0.661,7.147,2.836,7.76c10.592,1.012,20.626-8.019,20.696-18.27
								c0.022-23.415,1.054-21.377-3.649-27.195C589.094,494.418,579.634,485.809,569.329,493.761z"/>
							<path fill="#9C9C9C" d="M590.654,554.252c0.011,8.273,1.056,14.256-4.582,17.562c-5.534,3.574-15.136,0.644-14.989-9.082
								c0.119-14.021-2.295-27.438,9.594-27.397c6.91,0.415,6.674-10.274,0.04-9.661c-9.866-0.253-18.892,7.94-19.461,17.461
								l-0.017,21.847c0.79,24.189,45.44,27.488,39.031-12.242C598.607,547.477,590.4,549.023,590.654,554.252z"/>
						</g>
						<g>
							<path fill="#464646" d="M595.857,723.465c4.313,1.507,8.748-1.528,7.09-5.292c-1.79-5.474-16.458-6.826-18.675-16.419
								c-1.853-9.69,11.276-13.034,16.046-9.209c1,0.575,3.812,3.101,9.582,4.64c17.161,4.548,8.382,13.03,11.181,16.892
								c1.593,3.221,6.502,3.115,8.3,0.003c4.286-10.128-1.918-23.22-13.725-25.559c-14.167-3.444-5.466-6.229-22.697-5.422
								C566.082,684.251,565.672,711.753,595.857,723.465z"/>
							<path fill="#B3B3B3" d="M636.771,704.694c8.305,2.622,14.361,3.352,15.858,9.615c2.034,7.064-4.757,14.241-12.057,12.041
								c-14.881-4.693-27.602-5.967-24.459-17.188c1.887-6.184-7.056-9.115-9.246-3.159c-1.08,3.522-1.041,8.118,0.353,12.178
								c3.97,11.794,11.898,11.699,31.882,18.053c17.109,3.852,31.096-17.354,19.42-31.739c-5.338-6.633-19.118-9.497-20.481-9.304
								C632.973,695.681,632.091,703.016,636.771,704.694z"/>
						</g>
						<g>
							<polygon fill="#636363" stroke="#ACACAC" stroke-width="1.1601" points="547.31,634.001 564.106,605.799 597.696,605.799 
								580.901,634.001 							"/>
							<polygon fill="#3A3A3A" stroke="#ACACAC" stroke-width="1.1601" points="564.106,662.204 547.31,634.001 580.901,634.001 
								597.696,662.204 							"/>
							<polygon fill="#7C7C7C" stroke="#ACACAC" stroke-width="1.1601" points="580.901,634.001 597.696,605.799 614.492,634.001 
								597.696,662.203 							"/>
						</g>
						<g>
							<path fill="#242424" stroke="#ACACAC" stroke-width="1.1601" d="M695.361,772.684c-7.292-10.862-11.792-17.065-18.456-25.96
								l12.302-31.256c7.741,9.846,12.334,15.93,19.85,26.544L695.361,772.684z"/>
							<path fill="#3F3F3F" stroke="#ACACAC" stroke-width="1.1601" d="M726.984,769.098c-11.737,0.964-21.723,2.195-31.623,3.586
								l13.697-30.671c11.364-1.306,21.629-2.265,33.031-2.918L726.984,769.098z"/>
							<path fill="#525252" stroke="#ACACAC" stroke-width="1.1601" d="M709.058,742.012c-7.9-11.156-12.455-17.131-19.85-26.544
								c11.827-1.81,22.006-3.01,33.547-4.127c6.538,8.891,12.755,17.662,19.335,27.754
								C729.852,739.794,719.391,740.823,709.058,742.012z"/>
						</g>
					</g>
					<g>
						<g>
							<path fill="#9F9F9F" d="M756.725,787.935c1.938,1.949,2.061,1.693,11.511,7.52c4.885,3.246,10.454-5.233,5.172-8.375
								c-5.949-3.8-15.849-7.622-11.872-16.9c1.873-5.216,8.598-7.702,13.37-5.056c16.735,9.53,22.779,12.97,20.898,20.542
								c-0.432,2.614-3.097,4.743-2.074,7.524c0.805,3.435,5.463,4.54,7.976,2.026c6.98-8.207,5.031-21.623-3.907-27.537
								c-18.117-11.599-22.348-14.963-31.15-13.158C751.173,757.792,746.192,777.596,756.725,787.935z"/>
							<path fill="#393939" d="M811.844,789.125c7.09,4.939,12.376,7.884,11.62,14.274c-0.481,6.391-8.475,12.357-16.232,6.549
								c-14.587-10.779-17.226-10.845-18.175-16.399c-1.127-6.753,5.331-9.45,0.772-13.476c-7.747-7.484-17.317,16.197-3.8,26.904
								c9.98,6.861,12.309,8.641,17.101,12.173c19.563,13.683,49.803-20.383,13.008-38.77
								C810.697,778.568,807.394,786.277,811.844,789.125z"/>
						</g>
						<g>
							<path fill="#545454" d="M893.785,912.655c1.964,2.954,5.328,8.317,5.94,9.324c1.774,2.396,6.364,1.906,7.929-0.942
								c2.167-3.317-0.84-6.128-3.893-11.021c-7.626-11.872,5.639-20.499,13.045-14.646c2.956,2.047,11.578,17.301,12.747,19.429
								c1.837,3.657,1.235,8.369-1.902,11.235c-1.514,1.594-4.206,2.234-4.671,4.638c-1.233,3.339,2.126,6.813,5.633,6.048
								c10.581-3.751,15.711-17.41,8.953-27.827c-9.646-15.914-12.188-22.747-22.25-24.92
								C899.083,880.471,886.137,899.253,893.785,912.655z"/>
							<path fill="#828282" d="M940.555,935.908c3.724,8.348,5.114,10.297,4.905,13.882c-0.73,9.927-14.728,12.089-18.624,3.304
								c-5.943-13.892-14.026-23.794-3.707-29.393c5.707-2.891,1.692-11.512-4.25-8.804c-6.434,3.621-10.557,10.661-10.641,17.575
								c-0.152,6.68,1.727,6.321,10.14,25.923c9.931,18.713,47.636,9.84,33.712-20.977c-2.651-5.785-2.639-6.124-3.639-6.978
								C944.552,926.901,938.658,931.216,940.555,935.908z"/>
						</g>
						<g>
							<path fill="#828282" stroke="#ACACAC" stroke-width="1.1601" d="M842.921,872.099c-1.616-8.237-4.503-20.071-7.59-30.421
								l22.36-25.067c3.549,10.604,6.971,22.553,9.23,31.987L842.921,872.099z"/>
							<path fill="#4F4F4F" stroke="#ACACAC" stroke-width="1.1601" d="M873.062,880.288c-11.892-3.768-18.427-5.475-30.142-8.189
								l24-23.501c12.633,3.461,19.412,5.537,31.808,10.022L873.062,880.288z"/>
							<path fill="#969696" stroke="#ACACAC" stroke-width="1.1601" d="M866.921,848.598c-2.219-9.265-5.668-21.365-9.23-31.987
								c11.013,2.296,23.769,5.593,33.231,8.486c3.502,12.914,5.284,20.256,7.807,33.522
								C886.226,854.093,879.386,852.013,866.921,848.598z"/>
						</g>
						<g>
							<path fill="#707070" stroke="#ACACAC" stroke-width="1.1601" d="M921.681,1021.399c3.527-6.838,9.259-21.164,11.412-28.321
								l32.534-8.358c-2.071,8.528-7.501,24.504-10.71,31.813L921.681,1021.399z"/>
							<path fill="#696969" stroke="#ACACAC" stroke-width="1.1601" d="M940.733,1045.271
								c-7.467-10.576-11.404-15.387-19.052-23.871l33.236-4.866c8.574,10.765,12.478,16.38,19.38,27.399L940.733,1045.271z"/>
							<path fill="#757575" stroke="#ACACAC" stroke-width="1.1601" d="M954.917,1016.534c3.444-7.845,8.78-23.867,10.71-31.813
								c6.314,6.339,17.611,19.921,22.527,26.947c-5.026,13.755-7.966,20.452-13.857,32.264
								C966.689,1031.782,962.677,1026.278,954.917,1016.534z"/>
						</g>
					</g>
				</g>
			</g>
		</g>
	</g>
</g>
</svg>
