<?xml version="1.0" encoding="utf-8"?>
<!-- Generator: Adobe Illustrator 20.0.0, SVG Export Plug-In . SVG Version: 6.00 Build 0)  -->
<!DOCTYPE svg PUBLIC "-//W3C//DTD SVG 1.1//EN" "http://www.w3.org/Graphics/SVG/1.1/DTD/svg11.dtd">
<svg version="1.1" id="Layer_1" xmlns="http://www.w3.org/2000/svg" xmlns:xlink="http://www.w3.org/1999/xlink" x="0px" y="0px"
	 viewBox="0 0 2620.712 1249.92" enable-background="new 0 0 2620.712 1249.92" xml:space="preserve">
<g>
	<g>
		<g>
			<g>
				<g>
					<path fill="#525252" d="M577.388,138.903c15.357-0.7,17.095,0.928,20.414-2.501c3.168-3.207,3.387-8.246,0.145-11.486
						c-7.872-7.87-33.603,6.4-38.384-15.211c-2.602-9.11,4.738-18.77,14.588-19.593c8.317-0.509,14.772-0.438,22.058-0.218
						c9.111,0.442,23.699-2.524,28.317,10.489c1.824,4.012-0.101,9.442,4.07,12.317c4.493,3.955,12.485,1.1,13.676-4.716
						c2.127-17.612-13.316-34.298-31.223-34.413c-31.134,0.02-47.031-3.272-60.17,10.087
						C529.328,105.484,550.568,141.238,577.388,138.903z"/>
				</g>
				<g>
					<path fill="#424242" d="M650.93,89.968c14.426-0.018,24.957-1.759,30.56,7.62c6.108,9.252,0.585,25.171-16.373,24.923
						c-10.727-0.087-21.471,0.154-32.185-0.116c-8.413-0.174-15.638-7.591-15.431-15.837c0.974-11.523-17.729-11.079-16.9-0.068
						c-0.805,16.406,13.214,31.413,29.872,32.359l38.262,0.03c22.618-0.701,38.473-25.224,29.961-44.745
						c-4.697-12.52-17.953-21.278-31.654-20.563c-6.127,0.251-12.381-0.521-18.433,0.406
						C639.359,76.747,641.775,90.392,650.93,89.968z"/>
				</g>
			</g>
			<g>
				<g>
					<path fill="#B3B3B3" d="M884.479,123.864c11.304,17.618,28.473,14.988,46.1,14.972c10.363-0.93,9.766-18.15-3.659-16.322
						c-7.122-0.415-14.68,1.186-21.39-1.708c-6.747-3.087-10.707-11.132-8.695-18.261c3.387-13.219,16.289-12.491,22.603-12.598
						c23.405,0.098,38.926-2.801,42.718,11.827c1.187,3.463-0.084,7.92,3.277,10.467c4.2,4.476,12.529,1.968,14.045-3.82
						c2.27-17.676-13.655-36.019-34.275-34.844c-12.414,0.232-24.895-0.492-37.276,0.377
						C884.45,77.243,871.665,104.401,884.479,123.864z"/>
				</g>
				<g>
					<path fill="#ABABAB" d="M987.279,89.946c15.166,0.009,25.329-1.673,31.095,7.254c7.208,10.16-0.193,25.064-13.761,25.255
						c-11.33,0.067-22.67,0.135-33.998-0.039c-8.485-0.106-16.003-7.476-15.823-15.85c0.44-10.633-15.721-11.75-17.047-1.129
						c-0.626,18.897,15.443,34.149,33.362,33.436c29.733-0.016,51.245,4.208,62.954-17.21c11.703-20.826-3.035-46.826-27.047-48.109
						c-21.042,0-20.269-0.223-22.204,0.656C976.65,77.489,978.861,89.601,987.279,89.946z"/>
				</g>
			</g>
			<g>
				<g>
					<polygon fill="#505050" points="789.263,162.046 740.305,134.115 741.257,78.257 790.119,106.186 					"/>
					<path fill="#D9D9D9" d="M790.203,163.693l-50.872-29.022l0.989-58.06l50.772,29.021L790.203,163.693z M741.279,133.56
						l47.044,26.839l0.822-53.658l-46.952-26.838L741.279,133.56z"/>
				</g>
				<g>
					<polygon fill="#606060" points="839.077,134.117 789.263,162.046 790.119,106.186 839.837,78.255 					"/>
					<path fill="#D9D9D9" d="M788.273,163.707l0.89-58.09l51.662-29.023l-0.79,58.092L788.273,163.707z M791.075,106.756
						l-0.822,53.629l47.867-26.837l0.73-53.631L791.075,106.756z"/>
				</g>
				<g>
					<polygon fill="#4C4C4C" points="790.119,106.186 741.257,78.257 790.975,50.326 839.837,78.255 					"/>
					<path fill="#353535" d="M790.114,107.295L739.3,78.25l51.679-29.033l50.815,29.045L790.114,107.295z M743.213,78.264
						l46.91,26.813l47.757-26.829l-46.91-26.814L743.213,78.264z"/>
				</g>
			</g>
			<g>
				<g>
					<polygon fill="#4A4A4A" points="1127.255,162.052 1077.969,134.119 1078.267,78.253 1127.456,106.186 					"/>
					<path fill="#525252" d="M1128.213,163.705l-51.211-29.026l0.309-58.079l51.111,29.025L1128.213,163.705z M1078.937,133.558
						l47.359,26.842l0.194-53.653l-47.267-26.841L1078.937,133.558z"/>
				</g>
				<g>
					<path fill="#A6A6A6" d="M1174.829,135.146c-11.933,6.037-9.66,5.522-47.575,26.906l0.202-55.866
						c16.235-9.174,30.925-17.808,51.251-26.772L1174.829,135.146z"/>
					<path fill="#606060" d="M1126.284,163.708l0.21-58.085c17.688-9.998,30.714-17.777,53.288-27.736l-4.028,57.874
						C1161.68,142.879,1160.54,144.383,1126.284,163.708z M1128.419,106.75l-0.194,53.647c32.717-18.53,34.165-20.039,45.679-25.864
						l3.729-53.591C1158.191,89.523,1139.589,100.436,1128.419,106.75z"/>
				</g>
				<g>
					<path fill="#616161" d="M1127.456,106.186l-49.189-27.933l49.391-27.933c37.844,21.507,37.993,20.834,51.05,29.094
						C1158.312,88.41,1143.573,97.079,1127.456,106.186z"/>
					<path fill="#393939" d="M1127.455,107.295l-51.144-29.044l51.348-29.04c35.215,19.896,38.131,20.894,53.094,30.355
						C1157.733,89.721,1144.297,97.775,1127.455,107.295z M1080.224,78.255l47.234,26.822
						c27.261-15.409,27.425-15.609,49.205-25.815c-11.69-7.402-18.317-10.396-49.006-27.833L1080.224,78.255z"/>
				</g>
			</g>
		</g>
		<g>
			<g>
				<g>
					<path fill="#484848" d="M1226.435,143.028c6.989,5.926,12.518,6.264,21.367,8.51c5.164,1.307,14.9,5.293,17.106-4.034
						c1.298-4.082-1.329-8.789-5.379-9.883c-5.61-1.411-11.222-2.823-16.828-4.233c-11.927-3.446-16.758-19.872-5.802-28.289
						c7.618-5.809,13.235-3.869,38.425,3.144c33.047,9.479,15.25,22.956,20.78,30.409c3.081,5.282,11.24,5.154,14.264,0.177
						c4.534-9.038,3.528-19.579-1.499-28.343c-7.158-12.071-15.517-15.459-50.416-23.606
						C1215.08,77.105,1201.483,122.15,1226.435,143.028z"/>
				</g>
				<g>
					<path fill="#939393" d="M1319.87,120.459c3.298,7.434,19.941,7.506,27.153,16.274c4.682,5.673,4.873,13.019,1.069,18.764
						c-9.057,13.665-23.2,4.706-36.558-0.595c-14.016-5.757-19.304-5.891-23.034-13.765c-1.745-3.679-2.273-7.97-0.996-11.877
						c4.652-11.684-20.089-20.482-17.29,7.032c1.251,12.283,9.185,23.599,19.404,27.777c34.221,12.502,38.415,18.611,54.123,13.9
						c30.806-9.412,38.856-55.561-15.671-68.749C1322.312,108.578,1317.044,114.195,1319.87,120.459z"/>
				</g>
			</g>
			<g>
				<g>
					<path fill="#505050" d="M1496.218,299.062c1.987,11.551,7.547,14.887,17.901,28.372c3.587,3.812,11.186,2.227,13.109-2.896
						c5.288-11.231-21.273-19.677-13.764-37.894c4.032-9.748,15.389-12.172,22.878-7.434c4.28,2.338,14.669,15.94,17.584,19.764
						c6.655,8.601,17.244,19.97,8.04,30.873c-2.142,2.977-6.503,4.522-6.677,8.707c-1.341,5.989,5.217,11.348,10.898,9.439
						c10.741-5.264,18.449-18.66,15.492-33.78c-1.877-9.319-5.486-13.103-13.234-23.163c-15.45-20.016-21.661-29.145-37.418-31.031
						C1509.202,257.631,1492.464,277.619,1496.218,299.062z"/>
				</g>
				<g>
					<path fill="#8F8F8F" d="M1585.897,344.6c8.599,13.48,14.768,21.915,9.947,31.162c-5.37,11.341-22.097,11.823-28.612,0.708
						c-17.689-29.162-21.32-30.549-19.689-39.637c0.722-4.025,2.856-7.838,6.287-10.237c3.622-2.408,4.791-7.794,2.198-11.52
						c-7.589-12.601-27.642,6.76-25.042,28.996c1.221,10.887,4.241,10.361,23.423,43.023c20.781,30.646,81.044,8.706,51.074-41.921
						c-5.852-9.763-6.092-10.155-7.737-11.282C1590.422,328.392,1581.563,337.095,1585.897,344.6z"/>
				</g>
			</g>
			<g>
				<g>
					<path fill="#C5C5C5" d="M1405.965,253.367c-6.368-17.055-13.665-33.219-21.655-48.747l29.488-47.45
						c9.672,16.873,18.289,33.937,25.898,51.663L1405.965,253.367z"/>
					<path fill="#B6B6B6" d="M1405.675,255.348c-6.786-18.179-13.664-33.656-22.473-50.773l30.629-49.287
						c10.268,17.907,18.719,34.448,26.972,53.68L1405.675,255.348z M1385.418,204.665c8.453,16.434,15.999,33.77,20.837,46.722
						l32.332-42.689c-6.92-16.135-16.087-34.405-24.823-49.647L1385.418,204.665z"/>
				</g>
				<g>
					<path fill="#626262" d="M1458.82,261.004c-17.713-3.695-34.838-5.979-52.855-7.637l33.731-44.534
						c19.167,2.691,37.561,5.989,56.743,10.868L1458.82,261.004z"/>
					<path fill="#6F6F6F" d="M1459.162,262.061c-22.918-4.776-40.502-6.556-55.014-7.892l35.121-46.37
						c13.769,1.933,33.094,4.785,58.965,11.363L1459.162,262.061z M1407.782,252.566c20.929,1.927,33.073,4.036,50.696,7.382
						l36.164-39.707c-17.259-4.393-36.441-7.834-54.52-10.373L1407.782,252.566z"/>
				</g>
				<g>
					<path fill="#ABABAB" d="M1439.696,208.833c-7.622-17.765-16.285-34.893-25.898-51.663c20.311,1.292,40.014,3.642,59.628,7.129
						c8.728,18.44,16.392,36.289,23.012,55.403C1477.241,214.818,1458.84,211.521,1439.696,208.833z"/>
					<path fill="#B9B9B9" d="M1497.935,221.077c-23.081-5.733-37.616-8.374-58.912-11.364c-8.277-19.301-16.819-35.949-26.954-53.62
						c20.646,1.311,39.956,3.418,62.018,7.343C1480.431,176.842,1489.029,195.351,1497.935,221.077z M1440.368,207.954
						c23.335,3.277,34.966,5.788,54.572,10.372c-7.171-20.702-15.962-40.042-22.173-53.164c-17.358-3.087-38.467-5.722-57.239-6.915
						C1424.299,173.574,1433.376,191.667,1440.368,207.954z"/>
				</g>
			</g>
			<g>
				<g>
					<path fill="#AFAFAF" d="M1576.224,496.348c5.164-17.769,8.912-34.844,11.506-51.773l51.773-20.991
						c-1.964,18.726-5.107,37.468-9.663,57.065L1576.224,496.348z"/>
					<path fill="#585858" d="M1574.807,497.768c5.123-17.671,9.008-34.037,12.052-53.882l53.771-21.8
						c-2.191,20.85-5.241,38.902-9.981,59.331L1574.807,497.768z M1588.6,445.262c-2.48,16.157-6.439,34.031-10.959,49.665
						l51.386-15.046c4.55-19.644,7.735-39.392,9.349-54.8L1588.6,445.262z"/>
				</g>
				<g>
					<path fill="#9E9E9E" d="M1613.749,533.643c-12.157-13.824-24.611-26.046-37.525-37.296l53.615-15.699
						c13.457,13.077,26.346,27.149,38.868,42.964L1613.749,533.643z"/>
					<path fill="#BFBFBF" d="M1613.385,534.691c-13.714-15.586-25.8-27.166-39.125-38.774l55.847-16.352
						c14.737,14.315,27.155,28.024,40.352,44.709L1613.385,534.691z M1578.186,496.778c11.198,9.738,24.663,23.01,35.926,35.818
						l52.842-9.644c-9.772-12.347-23.21-27.444-37.384-41.22L1578.186,496.778z"/>
				</g>
				<g>
					<path fill="#6D6D6D" d="M1629.839,480.649c4.51-19.386,7.681-38.162,9.664-57.065c15.754,13.022,30.164,26.749,43.952,41.366
						c-3.706,19.812-8.477,39.17-14.748,58.663C1656.262,507.895,1643.381,493.808,1629.839,480.649z"/>
					<path fill="#464646" d="M1669.073,525.628c-12.86-16.234-24.939-29.745-40.297-44.667c4.74-20.433,7.77-38.41,9.956-59.266
						c16.578,13.706,30.481,26.748,45.762,42.95C1680.261,487.287,1675.444,505.823,1669.073,525.628z M1630.901,480.336
						c14.218,13.81,27.885,29.183,37.44,41.262c4.733-14.695,10.1-35.138,14.075-56.344c-14.835-15.727-30.347-30.037-42.142-39.781
						C1638.645,440.99,1635.465,460.642,1630.901,480.336z"/>
				</g>
			</g>
		</g>
		<g>
			<g>
				<g>
					<path fill="#646464" d="M1617.483,589.189c-2.946,8.248-1.012,11.862-1.586,26.838c-0.618,9.617,16.212,10.964,16.37,0.221
						c0.167-3.255-0.017-2.693,0.033-17.312c0.285-19.813,30.861-22.143,32.394-0.538c4.171,72.638-21.21,41.023-26.985,56.284
						c-4.442,11.333,15.113,17.664,29.311,7.512c4.357-3.208,6.959-7.806,9.6-12.69c6.798-12.57,4.505-53.655,3.938-56.533
						C1675.084,558.808,1628.078,557.122,1617.483,589.189z"/>
				</g>
				<g>
					<path fill="#636363" d="M1660.58,673.665c-7.926,5.057-8.253,26.665-22.969,31.312c-13.209,4.171-25.449-12.217-17.418-25.621
						c9.163-16.752,7.688-25.308,12.573-30.97c9.959-11.284,14.341-4.339,20.056-8.604c7.169-5.399,3.975-20.93-16.614-13.514
						c-15.704,5.588-20.284,18.523-22.243,22.782c-4.958,20.512-9.191,22.362-11.135,28.921
						c-5.017,16.586,7.27,46.937,31.406,45.534c26.07-1.657,41.08-39.326,36.697-47.377
						C1668.921,672.47,1664.731,671.152,1660.58,673.665z"/>
				</g>
			</g>
			<g>
				<g>
					<path fill="#8D8D8D" d="M1449.219,698.758c-3.125-4.65-5.106-5.284-7.249-8.03c-4.347-4.944-4.772-7.568-10.443-6.27
						c-4.897,1.132-8.088,4.901-7.459,9.065c1.299,7.584,16.597,12.433,14.877,26.962c-0.156,11.275-15.595,20.369-27.178,9.244
						c-9.195-8.52-27.13-29.807-24.5-42.518c2.162-11.241,12.118-9.317,14.361-15.215c2.152-3.721,0.464-8.539-3.283-10.864
						c-8.868-5.697-56.853,15.19-3.532,74.885c10.761,11.793,21.345,15.888,22.346,15.311c0.113-0.467,0.149-0.576,0.599-1.142
						c0,0,9.332,3.065,18.849-0.602C1451.102,744.003,1463.373,719.515,1449.219,698.758z"/>
				</g>
				<g>
					<path fill="#6E6E6E" d="M1374.577,656.066c-2.909-14.877-5.792-26.078,2.499-32.963c9.212-8.37,24.75-2.735,26.706,10.258
						c4.106,29.196,7.381,30.454,6.455,36.575c-1.687,12.877-12.327,12.522-14.722,18.269c-1.405,3.256-0.278,7.252,2.119,9.527
						c10.952,10.269,33.869-19.62,27.939-38.463c-6.669-25.243-3.109-45.226-25.89-54.608c-14.819-6.289-33.76-0.297-41.562,16.205
						c-4.844,10.362-3.004,17.802-1.634,27c1.939,11.565,1.973,12.231,3.23,14.157
						C1364.719,670.3,1375.917,665.279,1374.577,656.066z"/>
				</g>
			</g>
			<g>
				<g>
					<path fill="#D1D1D1" d="M1526.631,700.033c11.368,8.474,27.535,13.003,41.73,14.792l26.846,48.994
						c-19.653,0.929-41.774-1.155-59.865-8.602L1526.631,700.033z"/>
					<path fill="#676767" d="M1534.474,755.903l-9.166-58.056c13.025,9.696,27.727,14.013,43.662,16.084l27.825,50.78
						C1575.773,765.629,1553.776,763.848,1534.474,755.903z M1536.209,754.523c14.764,5.754,34.798,9.343,57.41,8.405
						l-25.867-47.207c-15.26-1.997-26.655-5.618-39.823-13.65L1536.209,754.523z"/>
				</g>
				<g>
					<path fill="#E5E5E5" d="M1492.461,726.605c13.767-5.752,25.002-15.127,34.17-26.572l8.711,55.183
						c-16.482,12.669-34.543,21.811-55.157,25.89L1492.461,726.605z"/>
					<path fill="#ABABAB" d="M1478.918,782.344l12.712-56.437c15.396-6.437,25.351-15.466,35.613-28.184l9.141,57.91
						C1518.57,769.195,1501.553,777.835,1478.918,782.344z M1493.293,727.303l-11.841,52.567
						c19.691-4.102,36.975-13.011,52.848-25.069l-8.283-52.466C1516.735,713.686,1504.586,722.57,1493.293,727.303z"/>
				</g>
				<g>
					<path fill="#8D8D8D" d="M1535.342,755.217c18.094,7.45,40.205,9.531,59.865,8.602c-15.828,21.306-34.497,37.204-51.153,46.581
						c-23.019-5.67-45.154-14.588-63.868-29.294C1500.63,777.066,1518.742,767.979,1535.342,755.217z"/>
					<path fill="#818181" d="M1544.194,811.427c-25.409-6.393-45.789-14.821-66.258-30.855c23.014-4.59,39.627-13.037,57.259-26.459
						c19.723,8.091,41.678,9.539,62.003,8.646C1582.684,782.157,1565.475,799.431,1544.194,811.427z M1482.435,781.631
						c19.336,14.108,38.04,21.827,61.474,27.74c17.215-10.001,34.97-25.447,49.309-44.492c-22.362,0.908-42.893-2.772-57.722-8.564
						C1519.655,768.353,1503.721,776.642,1482.435,781.631z"/>
				</g>
			</g>
			<g>
				<g>
					<path fill="#7F7F7F" d="M1412.053,493.416c-0.074,8.353-0.045,9.772-0.886,21.722c-0.575-0.36-0.587-0.616-1.511-0.806
						c0.378,16.474-1.008,26.836-4.597,42.426l-54.507,12.251c5.298-14.533,7.618-21.34,10.639-52.48L1412.053,493.416z"/>
					<path fill="#585858" d="M1349.042,570.337c6.38-17.721,8.216-23.297,11.244-54.456l52.745-23.969
						c-0.098,10.881-0.051,11.307-1.016,24.898l-1.361-0.854c0.173,17.292-1.286,26.044-4.791,41.61L1349.042,570.337z
						 M1352.064,567.68l52.192-11.73c4.126-18.383,4.635-26.234,4.409-42.813c1.369,0.288,1.164,0.223,1.648,0.396
						c0.691-10.11,0.703-11.984,0.762-18.614l-48.976,22.256C1359.275,546.192,1357.088,553.685,1352.064,567.68z"/>
				</g>
				<g>
					<path fill="#363636" d="M1358.731,457.519c19.383,9.901,36.586,21.242,53.322,35.897l-50.861,23.113
						c-15-11.003-30.359-19.189-47.452-25.891L1358.731,457.519z"/>
					<path fill="#ACACAC" d="M1361.077,517.64c-16.31-11.961-30.899-19.48-49.316-26.744l46.878-34.507
						c19.811,10.172,36.348,20.803,55.175,37.287L1361.077,517.64z M1315.72,490.377c16.326,6.479,31.871,14.982,45.586,25.04
						l48.985-22.26c-15.566-13.625-32.907-24.96-51.469-34.508L1315.72,490.377z"/>
				</g>
				<g>
					<path fill="#969696" d="M1361.192,516.529c-2.828,29.114-4.75,36.319-10.639,52.48c-8.038-7.513-13.814-12.229-23.947-16.877
						c-1.795-2.422-1.856-2.573-3.003-4.379c-7.284-4.78-7.875-5.077-13.273-8.111c3.608-16.235,4.406-32.183,3.41-49.004
						C1330.761,497.311,1346.127,505.48,1361.192,516.529z"/>
					<path fill="#C7C7C7" d="M1350.96,570.709c-9.011-8.353-13.698-12.482-24.981-17.805c-2.252-3.1-1.565-2.104-3.079-4.46
						c-7.157-4.69-7.411-4.797-13.667-8.314c3.98-17.895,4.478-33.124,3.455-50.942c18.357,7.238,33.124,14.866,49.518,26.887
						C1359.214,546.789,1357.266,553.405,1350.96,570.709z M1327.234,551.359c9.765,4.626,15.062,8.713,22.912,15.949
						c5.252-14.711,7.261-21.756,10.032-50.326c-12.957-9.507-28.246-18.106-45.386-24.896c0.871,15.622-0.019,31.99-3.365,47.065
						c4.83,2.712,5.664,3.167,12.879,7.909C1326.482,550.381,1325.833,549.435,1327.234,551.359z"/>
				</g>
			</g>
		</g>
		<g>
			<g>
				<g>
					<path fill="#818181" d="M1306.107,397.213c-10.281-7.725-22.069-18.386-27.263-8.874
						c-8.287,12.449,21.629,16.799,23.955,32.906c2.39,15.221-15.665,22.702-25.724,15.324
						c-27.231-20.435-39.575-20.304-32.532-40.679c3.991-11.599-16.447-20.178-18.27,4.342
						c-0.911,12.289,4.848,26.033,14.913,31.914c26.265,15.336,32.619,28.037,54.391,22.246
						C1323.205,447.346,1329.19,414.186,1306.107,397.213z"/>
				</g>
				<g>
					<path fill="#717171" d="M1219.719,405.805c-2.422-7.346-18.323-6.95-25.272-13.942c-12.111-12.325-0.944-33.431,18.474-26.232
						c7.008,2.442,31.56,11.197,36.561,17.011c3.941,4.713,5.26,11.807,2.121,17.454c-6.163,9.802,9.738,18.14,14.519,8.686
						c4.733-7.045,5.777-15.835,3.581-23.573c-4.544-16.779-18.059-24.075-55.659-36.444c-16.918-4.866-33.867,3.723-39.095,17.952
						c-7.41,23.119,7.636,41.451,21.324,44.939c5.635,1.741,10.75,4.413,15.384,5.368
						C1216.751,417.313,1221.742,411.738,1219.719,405.805z"/>
				</g>
			</g>
			<g>
				<g>
					<path fill="#727272" d="M990.033,348.844c-11.481-17.63-28.532-15.035-46.184-15.052c-10.333,0.908-9.614,18.132,3.793,16.331
						c7.121,0.431,14.657-1.159,21.389,1.746c6.771,3.098,10.812,11.151,8.873,18.277c-3.253,13.214-16.172,12.465-22.495,12.562
						c-23.364-0.147-38.93,2.732-42.831-11.918c-1.212-3.466,0.027-7.92-3.352-10.475c-4.23-4.486-12.539-1.996-14.017,3.789
						c-2.178,17.874,14.069,36.044,34.544,34.921c12.43-0.206,24.933,0.547,37.329-0.303
						C990.723,395.451,1002.953,368.189,990.033,348.844z"/>
				</g>
				<g>
					<path fill="#717171" d="M887.526,382.563c-15.45-0.04-25.352,1.587-31.147-7.316c-7.271-10.177,0.063-25.065,13.613-25.23
						c11.326-0.045,22.661-0.091,33.984,0.109c8.48,0.125,16.049,7.512,15.932,15.885c-0.362,10.63,15.816,11.791,17.056,1.165
						c0.474-18.928-15.737-34.182-33.592-33.509c-29.719-0.045-51.19-4.372-62.814,17.093c-11.592,20.82,3.284,46.819,27.325,48.155
						c21.074,0.042,20.291,0.261,22.216-0.612C898.228,395.05,895.963,382.924,887.526,382.563z"/>
				</g>
			</g>
			<g>
				<g>
					<path fill="#575757" d="M1084.448,310.625c34.94,19.722,50.914,28.25,50.914,28.25l-2.899,55.791
						c-11.297-7.954-11.925-7.993-47.881-28.175L1084.448,310.625z"/>
					<path fill="#474747" d="M1133.336,396.46c-13.109-9.216-13.146-8.888-49.717-29.403l-0.14-58.087
						c26.241,14.805,52.674,29.247,52.877,29.364L1133.336,396.46z M1085.546,365.926c30.223,16.955,36.001,19.906,46.045,26.946
						l2.778-53.456c0,0-17.581-9.441-48.952-27.137L1085.546,365.926z"/>
				</g>
				<g>
					<polygon fill="#5F5F5F" points="1035.24,338.614 1084.448,310.625 1084.583,366.491 1035.25,394.48 					"/>
					<path fill="#A2A2A2" d="M1034.286,396.137l-0.011-58.084l51.134-29.084l0.14,58.084L1034.286,396.137z M1036.204,339.175
						l0.01,53.649l47.402-26.894l-0.13-53.649L1036.204,339.175z"/>
				</g>
				<g>
					<path fill="#A7A7A7" d="M1084.583,366.491c35.987,20.199,36.555,20.202,47.881,28.175c0,0-9.569,6.01-47.746,27.691
						l-49.468-27.878L1084.583,366.491z"/>
					<path fill="#353535" d="M1084.72,423.466l-51.43-28.983l51.29-29.1c42.021,23.573,39.429,22.162,49.684,29.37
						C1134.264,394.754,1119.202,403.872,1084.72,423.466z M1037.21,394.478l47.506,26.772c32.83-18.655,45.947-26.67,45.947-26.67
						c-11.057-7.756-17.732-11.079-46.078-26.98L1037.21,394.478z"/>
				</g>
			</g>
			<g>
				<g>
					<polygon fill="#8A8A8A" points="747.132,310.381 796.587,338.267 796.58,394.134 747.246,366.247 					"/>
					<path fill="#D5D5D5" d="M797.544,395.788l-51.263-28.977l-0.118-58.083l51.388,28.976L797.544,395.788z M748.209,365.684
						l47.406,26.797l0.008-53.65L748.1,312.035L748.209,365.684z"/>
				</g>
				<g>
					<polygon fill="#5A5A5A" points="697.771,338.478 747.132,310.381 747.246,366.247 698.045,394.344 					"/>
					<path fill="#8C8C8C" d="M697.088,396.001l-0.285-58.082l51.29-29.195l0.118,58.082L697.088,396.001z M698.738,339.037
						l0.264,53.65l47.278-26.999l-0.109-53.65L698.738,339.037z"/>
				</g>
				<g>
					<polygon fill="#B0B0B0" points="747.246,366.248 796.58,394.134 747.36,422.114 698.045,394.344 					"/>
					<path fill="#AEAEAE" d="M747.362,423.222l-51.272-28.873l51.153-29.211l51.293,28.994L747.362,423.222z M700.001,394.338
						l47.356,26.668l47.266-26.869l-47.375-26.78L700.001,394.338z"/>
				</g>
			</g>
		</g>
		<g>
			<g>
				<g>
					<path fill="#B9B9B9" d="M654.251,348.506c-11.568-16.795-28.121-14.254-45.308-14.052
						c-10.706-0.261-10.776,16.597,0.339,16.368c12.531,0.013,31.42-3.167,33.606,13.684c1.748,9.095-6.129,18.195-15.421,18.617
						c-33.314,0.824-43.196,2.839-48.917-8.509c-2.329-3.712-1.21-12.873-10.113-12.908c-15.383,0.696-8.072,23.265,8.658,33.769
						c9.466,5.943,10.915,4.531,50.506,4.087c1.565,0.048,3.139-0.16,4.7-0.443C655.792,395.482,668.041,368.013,654.251,348.506z"
						/>
				</g>
				<g>
					<path fill="#5C5C5C" d="M561.761,390.383c-6.018-4.699-18.105,4.664-28.411,3.213c-15.853-2.235-21.46-25.946-0.278-32.036
						c20.288-6.171,49.814-15.397,51.614,6.156c0.36,11.665,18.171,9.577,16.901-0.779c0.081-17.419-15.193-32.984-40.578-28.692
						c-37.901,6.902-48.257,11.529-55.436,24.533c-10.759,19.935,3.346,41.597,22.929,46.39c10.359,2.885,16.544-0.238,23.56-2.219
						c8.306-1.794,10.876-2.559,12.432-6.267C565.939,397.228,565.109,392.902,561.761,390.383z"/>
				</g>
			</g>
			<g>
				<g>
					<path fill="#BABABA" d="M332.766,533.138c-4.987,14.942-7.632,20.014-2.742,24.66c4.882,4.658,13.037,1.299,14.278-7.453
						c1.71-4.54,2.848-9.498,4.526-13.71c6.072-14.032,18.671-13.558,24.953-8.537c13.137,9.968,3.8,19.677-2.824,49.417
						c-1.399,5.306-6.696,11.475-14.166,12.329c-3.614,0.706-7.834-1.169-10.888,1.918c-7.507,5.482-1.407,24.541,24.715,10.204
						c8.291-4.625,15.391-13.221,16.756-22.66c5.156-25.924,16.864-36.785,3.11-57.083
						C375.825,500.595,343.75,501.579,332.766,533.138z"/>
				</g>
				<g>
					<path fill="#F3F3F3" d="M366.431,614.677c-0.607,14.199,2.248,23.024-6.238,29.608c-9.147,7.749-23.151,3.72-25.996-9.672
						c-1.462-8.655,0.022-29.257,1.006-38.555c0.705-8.157,9.022-15.859,17.969-14.147c10.221,2.142,14.59-12.684,4.695-16.42
						c-15.32-4.263-31.046,3.723-37.235,20.514c-3.099,8.784-5.448,47.055-0.429,59.568c13.66,34.058,63.553,19.433,62.669-13.594
						c-0.019-0.835-0.271-18.244-0.634-18.996C379.199,605.876,367.1,606.692,366.431,614.677z"/>
				</g>
			</g>
			<g>
				<g>
					<path fill="#CACACA" d="M392.703,399.577c23.588-7.767,40.964-11.225,61.704-13.762l30.808,46.604
						c-19.64,0.878-32.319,2.175-53.862,7.496L392.703,399.577z"/>
					<path fill="#E3E3E3" d="M431.043,440.985l-40.095-41.846c25.321-8.339,41.896-11.657,63.935-14.355l32.076,48.522
						C465.635,434.259,453.295,435.49,431.043,440.985z M394.462,400.018l37.203,38.827c20.137-4.913,33.281-6.486,51.807-7.315
						l-29.54-44.685C433.312,389.439,417.124,392.681,394.462,400.018z"/>
				</g>
				<g>
					<path fill="#A9A9A9" d="M376.37,460.623c3.396-21.892,9.287-43.049,16.332-61.046l38.651,40.338
						c-4.965,16.086-8.553,34.822-9.784,53.543L376.37,460.623z"/>
					<path fill="#666666" d="M422.417,495.266l-47.09-34.209c3.269-20.594,8.14-40.535,17.028-63.238l40.088,41.838
						C426.18,459.951,423.621,477.401,422.417,495.266z M377.414,460.189l43.307,31.461c1.256-17.685,4.963-36.632,9.543-51.477
						l-37.214-38.838C387.008,416.768,380.934,438.09,377.414,460.189z"/>
				</g>
				<g>
					<path fill="#909090" d="M431.354,439.915c21.616-5.34,34.389-6.626,53.862-7.496c-8.142,18.74-11.396,29.713-15.211,47.834
						c-14.129,1.972-31.096,6.279-48.435,13.204C422.793,474.834,426.363,456.082,431.354,439.915z"/>
					<path fill="#7B7B7B" d="M420.507,494.921c1.015-13.142,2.496-31.217,10.086-55.811c22.326-5.522,34.906-6.774,56.123-7.723
						c-8.78,20.207-11.849,30.457-15.906,49.729C452.548,483.664,436.847,488.425,420.507,494.921z M432.114,440.722
						c-4.499,14.574-8.273,33.725-9.482,51.272c16.638-6.551,33.828-10.825,46.568-12.603c3.759-17.852,7.096-28.591,14.521-45.941
						C465.282,434.276,452.338,435.793,432.114,440.722z"/>
				</g>
			</g>
			<g>
				<g>
					<path fill="#A2A2A2" d="M333.753,776.273c-1.981-26.114-0.009-51.517,2.398-63.962l53.227-16.969
						c-2.983,9.709-6.77,30.739-6.892,53.615L333.753,776.273z"/>
					<path fill="#D1D1D1" d="M332.906,777.855c-2.329-30.764,0.515-56.601,2.408-66.287c0.884-0.284,54.618-17.414,55.518-17.701
						c-5.127,16.989-7.288,37.983-7.383,55.658C382.645,749.974,333.746,777.383,332.906,777.855z M337.012,713.05
						c-3.029,19.686-4.016,40.433-2.411,61.643l46.924-26.303c0.123-22.328,3.071-37.094,6.498-51.604L337.012,713.05z"/>
				</g>
				<g>
					<path fill="#C1C1C1" d="M389.213,807.476c-20.973-9.026-37.136-18.038-55.46-31.203l48.733-27.315
						c16.908,10.176,31.261,16.514,49.395,22.456L389.213,807.476z"/>
					<path fill="#AEAEAE" d="M389.38,808.598c-23.458-10.077-38.994-19.187-57.42-32.425l50.544-28.331
						c18.124,10.913,31.867,16.821,51.321,23.194L389.38,808.598z M335.547,776.375c18.391,13.201,35.058,21.962,53.5,29.979
						l40.899-34.566c-17.169-5.749-31.274-11.96-47.477-21.715L335.547,776.375z"/>
				</g>
				<g>
					<path fill="#999999" d="M382.487,748.958c0.12-22.415,3.857-43.74,6.892-53.615c7.837,6.974,24.344,18.231,41.841,26.299
						c-2.088,18.092-1.482,32.681,0.662,49.772C413.278,765.318,398.971,758.878,382.487,748.958z"/>
					<path fill="#4F4F4F" d="M433.029,772.805c-18.803-6.156-32.929-12.118-51.51-23.304c0.126-22.898,3.564-43.563,7.381-55.871
						c10.101,8.947,25.81,19.331,43.358,27.429C430.032,740.388,430.69,754.189,433.029,772.805z M383.454,748.414
						c16.594,9.995,30.696,16.048,47.286,21.605c-1.94-16.242-2.53-30.705-0.558-47.794c-16.106-7.425-27.394-15.178-40.233-25.19
						C385.812,714.54,383.563,728.69,383.454,748.414z"/>
				</g>
			</g>
		</g>
		<g>
			<g>
				<g>
					<path fill="#7E7E7E" d="M445.078,864.287c5.096,3.601,10.451,6.841,15.739,10.157c4.297,2.655,10.127,1.178,11.987-2.734
						c5.29-9-7.964-13.09-19.552-21.807c-10.416-7.599-8.386-24.871,5.998-28.32c8.725-2.122,11.772,1.519,25.898,10.358
						c13.493,8.287,16.522,7.624,20.632,14.217c6.433,10.69-2.429,16.704,1.45,22.506c2.857,5.541,11.532,5.836,14.569,0.63
						c6.254-13.039,2.842-34.882-17.322-45.233c-23.596-12.064-29.949-24.268-52.033-17.435
						C424.074,815.575,422.211,850.263,445.078,864.287z"/>
				</g>
				<g>
					<path fill="#525252" d="M535.255,854.872c14.181,4.434,22.648,4.57,26.334,14.647c4.924,11.717-5.386,25.481-21.189,20.73
						c-11.072-2.859-21.995-6.351-32.484-10.818c-8.77-3.808-12.006-13.835-8.545-21.026c2.074-3.74,0.363-8.648-2.523-10.715
						c-11.519-9.244-25.481,18.102-8.187,37.879c10.52,11.908,52.202,23.75,64.567,21.948c37.93-6.602,31.547-57.345,0.253-64.439
						c-6.81-1.47-10.251-3.437-15.494-4.102C529.192,838.912,527.247,852.74,535.255,854.872z"/>
				</g>
			</g>
			<g>
				<g>
					<path fill="#9E9E9E" d="M763.187,901.458c11.625,17.501,28.643,14.793,46.225,14.685c10.225-0.963,9.513-18.191-3.88-16.309
						c-7.108-0.386-14.623,1.269-21.371-1.586c-6.795-3.038-10.906-11.055-9.028-18.198c3.153-13.296,16.183-12.603,22.406-12.745
						c23.519-0.024,39.075-2.881,42.954,11.742c1.211,3.468-0.03,7.92,3.34,10.481c4.212,4.496,12.501,2.014,14.017-3.744
						c2.253-18.14-14.193-36.142-34.651-34.946c-12.509,0.25-25.07-0.407-37.483,0.541
						C762.239,854.833,749.996,882.084,763.187,901.458z"/>
				</g>
				<g>
					<path fill="#636363" d="M865.571,867.388c10.168,0.14,7.281,0.094,13.146,0.203c31.428,0.646,22.724,32.274,4.742,32.742
						c0,0,1.3-0.088-34.417-0.604c-8.43-0.152-15.98-7.534-15.882-15.899c0.352-10.625-15.873-11.766-17.06-1.111
						c-0.38,18.756,15.681,34.081,33.49,33.471c3.051,0.002,26.935,0.202,27.942,0.309c34.588,2.68,58.009-44.698,21.104-61.651
						c-10.867-4.992-33.662-4.085-35.586-3.22C855.028,854.801,857.128,866.957,865.571,867.388z"/>
				</g>
			</g>
			<g>
				<g>
					<path fill="#B5B5B5" d="M667.923,939.767c-20.717-11.799-34.571-19.907-49.66-28.952l1.796-55.838
						c17.862,11.024,32.368,19.597,48.429,28.926L667.923,939.767z"/>
					<path fill="#C0C0C0" d="M668.871,941.418c-18.654-10.624-32.448-18.59-51.591-30.066l1.868-58.07
						c18.063,11.15,31.106,18.916,50.309,30.07L668.871,941.418z M619.245,910.279c19.408,11.637,27.601,16.267,47.729,27.837
						l0.542-53.661c-15.85-9.207-30.779-18.049-46.547-27.783L619.245,910.279z"/>
				</g>
				<g>
					<path fill="#7C7C7C" d="M717.91,911.977c-15.62,8.868-34.04,19.164-49.988,27.79l0.564-55.864
						c17.55-9.691,28.758-16.125,49.251-27.793L717.91,911.977z"/>
					<path fill="#ECECEC" d="M666.942,941.395l0.586-58.065c17.644-9.716,33.145-18.613,51.17-28.876l0.179,58.083
						C702.451,921.879,683.873,932.234,666.942,941.395z M669.446,884.475l-0.542,53.662c16.301-8.848,31.856-17.549,48.04-26.721
						l-0.165-53.65C697.48,868.755,687.471,874.51,669.446,884.475z"/>
				</g>
				<g>
					<path fill="#909090" d="M668.487,883.903c-16.249-9.438-30.72-17.997-48.429-28.926c18.469-9.861,33.13-18.005,48.993-26.938
						c15.288,9.056,33.379,19.427,48.687,28.071C697.742,867.496,686.271,874.083,668.487,883.903z"/>
					<path fill="#969696" d="M668.475,885.012c-19.251-11.182-32.233-18.912-50.352-30.095
						c18.721-9.996,31.838-17.233,50.939-27.992c16.001,9.494,34.554,20.103,50.63,29.182
						C693.927,870.778,688.586,873.877,668.475,885.012z M621.993,855.037c15.749,9.722,30.765,18.614,46.506,27.757
						c18.162-10.046,26.626-14.919,47.284-26.681c-16.016-9.065-31.162-17.748-46.744-26.96
						C653.158,838.043,641.281,844.74,621.993,855.037z"/>
				</g>
			</g>
			<g>
				<g>
					<path fill="#6E6E6E" d="M934.469,976.816c3.605-14.279,2.342-29.38-1.687-43.487l34.623-43.844
						c10.047,20.388,14.694,40.1,15.076,58.767L934.469,976.816z"/>
					<path fill="#B9B9B9" d="M932.964,978.833c3.516-13.933,3.978-27.443-1.247-45.714l35.877-45.432
						c9.68,19.64,15.403,38.823,15.863,61.107L932.964,978.833z M933.844,933.54c4.177,14.616,4.705,28.093,2.097,41.278
						l45.564-27.107c-0.36-17.485-5.149-37.875-14.291-56.429L933.844,933.54z"/>
				</g>
				<g>
					<path fill="#ABABAB" d="M970.991,998.041c-9.366-9.775-21.593-17.221-36.523-21.225l48.013-28.563
						c18.709,10.911,33.346,25.286,43.92,42.661L970.991,998.041z"/>
					<path fill="#797979" d="M970.633,999.059c-11.552-12.013-23.588-17.869-38.622-21.904l50.466-30.023
						c19.444,11.342,33.83,25.346,45.521,44.548L970.633,999.059z M936.927,976.476c12.178,3.385,25.223,10.982,34.423,20.546
						l53.454-6.875c-9.228-15.269-24.168-30.188-42.318-40.775L936.927,976.476z"/>
				</g>
				<g>
					<path fill="#DCDCDC" d="M982.481,948.253c-0.383-18.754-5.074-38.473-15.076-58.767c23.896,5.704,44.746,16.048,63.089,30.204
						c3.642,23.841,3.175,48.121-4.093,71.224C1015.88,973.625,1001.289,959.224,982.481,948.253z"/>
					<path fill="#8F8F8F" d="M1026.682,993.237c-11.45-18.859-25.284-32.835-45.154-44.424
						c-0.462-22.468-6.355-41.379-15.896-60.743c22.821,5.449,43.813,14.166,65.757,31.091
						C1035.346,945.075,1034.509,968.335,1026.682,993.237z M983.435,947.692c17.83,10.393,32.438,24.663,42.68,40.903
						c6.571-22.027,6.938-45.779,3.484-68.379c-18.392-14.188-40.239-24.513-60.421-29.316
						C977.666,908.117,983.045,928.902,983.435,947.692z"/>
				</g>
			</g>
		</g>
		<g>
			<g>
				<g>
					<path fill="#5E5E5E" d="M967.257,1041.73c-7.943,6.416-7.626,12.66-13.216,21.348c-4.402,6.361,9.018,16.759,14.138,8.256
						c2.236-3.462,6.113-12.025,7.117-14.05c7.076-13.523,29.759-11.922,30.846,5.195c0.716,9.601-17.483,42.978-28.585,46.573
						c-14.155,4.573-16.615-10.703-25.895-4.448c-15.914,10.607,23.654,45.589,52.849,0.784
						c13.808-20.982,27.797-46.136,10.799-64.783C1002.354,1026.629,978.84,1031.709,967.257,1041.73z"/>
				</g>
				<g>
					<path fill="#737373" d="M952.654,1135.244c-4.477,3.071-14.534,9.837-19.801,11.15c-15.229,3.811-23.754-10.437-18.401-22.241
						c2.59-7.033,7.897-7.53,20.398-16.17c13.251-9.948,13.384-12.262,21.486-12.359c10.425,0.033,10.546,6.188,16.658,6.014
						c12.114-0.344,15.035-21.998-17.826-21.627c-16.443,0.315-18.61,6.506-30.411,15.061c-10.475,7.519-21.772,8.416-26.814,30.52
						c-6.321,27.627,15.937,50.46,52.312,30.613c2.24-1.32,10.263-5.781,14.274-9.793
						C971.757,1137.659,961.254,1129.049,952.654,1135.244z"/>
				</g>
			</g>
			<g>
				<g>
					<path fill="#AFAFAF" d="M713.758,1126.057c-11.626-17.617-28.823-14.988-46.532-14.97c-10.4,0.932-9.363,18.148,4.034,16.322
						c7.143,0.415,14.685-1.187,21.464,1.707c6.821,3.087,10.93,11.132,9.051,18.261c-3.164,13.317-16.289,12.496-22.326,12.598
						c-23.585-0.1-38.779,2.769-42.948-11.827c-1.278-3.463-0.123-7.919-3.553-10.466c-4.323-4.475-12.596-1.967-13.947,3.82
						c-1.764,17.607,14.583,36.017,35.127,34.842c12.362-0.231,24.811,0.494,37.128-0.374
						C714.713,1172.661,726.809,1145.336,713.758,1126.057z"/>
				</g>
				<g>
					<path fill="#7B7B7B" d="M611.702,1160.007c-10.194,0.189-7.393,0.133-12.743,0.251c-22.061,0.483-25.076-16.344-18.608-25.324
						c5.718-8.155,10.672-7.806,47.134-7.427c8.507,0.106,16.226,7.475,16.255,15.848c-0.169,10.635,15.995,11.743,17.074,1.129
						c0.187-19.008-16.383-34.144-34.27-33.432c-10.796,0.001-35.217,0.271-35.32,0.268c-28.698,1.898-43.776,41.962-16.396,59.842
						c10.032,6.74,19.077,5.594,36.213,5.253C622.339,1176.908,622.002,1160.251,611.702,1160.007z"/>
				</g>
			</g>
			<g>
				<g>
					<polygon fill="#797979" points="808.926,1087.872 858.219,1115.807 857.301,1171.666 808.422,1143.736 					"/>
					<path fill="#7A7A7A" d="M858.238,1173.312l-50.786-29.02l0.524-58.068l51.217,29.025L858.238,1173.312z M809.392,1143.179
						l46.971,26.84l0.882-53.656l-47.369-26.845L809.392,1143.179z"/>
				</g>
				<g>
					<polygon fill="#606060" points="759.129,1115.803 808.926,1087.872 808.422,1143.736 759.039,1171.669 					"/>
					<path fill="#565656" d="M758.071,1173.325l0.094-58.087l51.741-29.021l-0.524,58.085L758.071,1173.325z M760.092,1116.368
						l-0.086,53.646l47.456-26.843l0.484-53.644L760.092,1116.368z"/>
				</g>
				<g>
					<polygon fill="#C0C0C0" points="808.422,1143.736 857.301,1171.666 807.918,1199.6 759.039,1171.669 					"/>
					<path fill="#BCBCBC" d="M807.915,1200.71l-50.828-29.045l51.337-29.038l50.828,29.043L807.915,1200.71z M760.991,1171.674
						l46.929,26.816l47.428-26.828l-46.929-26.816L760.991,1171.674z"/>
				</g>
			</g>
			<g>
				<g>
					<path fill="#4E4E4E" d="M487.003,1073.644c12.504,13.367,23.805,24.658,38.225,36.738l-8.941,55.146
						c-16.31-12.334-29.212-23.934-43.746-37.922L487.003,1073.644z"/>
					<path fill="#C6C6C6" d="M516.983,1167.265c-17.924-13.593-29.591-24.026-45.521-39.358l15.059-56.19
						c13.686,14.626,24.044,25.081,39.747,38.279L516.983,1167.265z M473.62,1127.306c13.723,13.209,26.624,24.822,41.971,36.488
						l8.596-53.023c-14.7-12.556-24.1-21.728-36.702-35.198L473.62,1127.306z"/>
				</g>
				<g>
					<path fill="#B0B0B0" d="M435.419,1086.378c3.635-0.707,27.238-4.869,51.584-12.734l-14.462,53.962
						c-21.957,5.825-41.535,8.844-56.785,11.063L435.419,1086.378z"/>
					<path fill="#616161" d="M414.278,1139.86l20.428-54.326c14.845-2.991,30.824-5.971,53.688-13.351l-15.065,56.212
						C448.266,1135.053,425.825,1138.18,414.278,1139.86z M436.132,1087.222l-18.898,50.258c12.47-1.911,32.547-4.828,54.519-10.664
						l13.858-51.709C469.627,1080.269,452.394,1084.03,436.132,1087.222z"/>
				</g>
				<g>
					<path fill="#D9D9D9" d="M472.541,1127.607c14.492,13.949,27.413,25.571,43.746,37.922
						c-20.03,6.971-37.722,11.478-58.207,16.041c-17.877-15.901-31.519-30.828-42.323-42.899
						C432.802,1136.189,451.369,1133.22,472.541,1127.607z"/>
					<path fill="#4B4B4B" d="M457.808,1182.618c-16.692-14.842-29.34-28.299-43.968-44.642c13.671-2.077,34.31-4.89,58.979-11.441
						c16.106,15.503,27.676,25.809,45.489,39.312C496.268,1173.483,480.485,1177.569,457.808,1182.618z M417.675,1139.367
						c12.51,13.764,24.537,26.799,40.678,41.154c19.381-4.318,37.045-8.801,55.915-15.31
						c-15.272-11.609-28.283-23.326-42.003-36.532C453.987,1133.527,435.024,1136.84,417.675,1139.367z"/>
				</g>
			</g>
		</g>
		<g>
			<g>
				<g>
					<path fill="#515151" d="M382.508,1058.355c-4.686-4.133-10.304-6.052-20.066-12.045c-6.907-4.472-20.55,6.804-4.496,16.38
						c9.72,5.518,15.388,7.24,18.163,14.826c4.667,12.778-6.551,24.02-19.088,21.206c-5.178-1.306-28.719-15.792-33.185-18.567
						c-4.297-2.684-7.702-7.385-8.302-12.566c-1.073-8.924,5.806-11.965,3.558-17.705c-1.466-5.662-9.485-7.936-13.744-3.844
						c-9.445,10.712-9.347,27.516,0.26,39.917c4.412,5.432,7.702,7.168,27.901,19.124c12.364,7.184,21.962,13.36,36.067,9.967
						C396.247,1108.54,401.135,1074.69,382.508,1058.355z"/>
				</g>
				<g>
					<path fill="#8A8A8A" d="M287.917,1055.669c-1.492-1.098-13.346-10.079-14.685-11.362c-11.546-11.657-2.9-27.953,10.172-28.119
						c7.107-0.658,12.44,4.566,18.649,9.374c18.35,14.098,23.312,14.696,25.013,23.926c0.719,4.037,0.166,8.239-2.102,11.709
						c-2.426,3.247-1.686,8.265,1.466,10.984c11.596,10.863,24.613-16.297,12.986-36.334c-4.068-7.258-6.266-7.82-22.101-19.277
						c-11.595-8.159-14.828-13.123-23.709-15.6c-18.254-5.165-36.723,5.701-41.155,20.442c-5.089,14.144,1.945,30.136,12.379,37.236
						c6.005,4.278,9.78,8.332,15.831,11.515C290.221,1073.664,295.731,1060.807,287.917,1055.669z"/>
				</g>
			</g>
			<g>
				<g>
					<path fill="#989898" d="M166.415,836.824c-0.634-5.514-1.128-5.293-9.524-24.656c-4.395-8.526-20.535-1.65-13.627,9.655
						c3.418,9.406,11.636,19.052,3.366,29.73c-4.519,5.831-11.352,7.167-17.077,5.461c-8.398-2.484-11.245-10.891-13.072-15.078
						c-8.736-20.235-17.999-36.273-4.955-45.007c2.885-2.285,7.489-2.579,8.833-6.57c2.859-5.299-1.966-12.351-7.896-12.055
						c-11.355,2.047-22.785,12.338-24.178,28.306c-0.741,8.998,1.351,13.929,10.237,35.174
						c6.118,14.411,12.699,31.714,33.835,33.029C151.667,876.026,168.927,858.201,166.415,836.824z"/>
				</g>
				<g>
					<path fill="#646464" d="M92.499,776.19c-4.025-14.677-3.983-14.345-4.515-16.622c-3.711-15.023,9.638-24.573,20.944-20.238
						c9.64,3.619,10.518,12.275,12.483,19.258c6.888,24.685,9.835,27.519,5.869,35.554c-1.79,3.673-4.821,6.741-8.785,8.121
						c-4.118,1.324-6.716,6.197-5.274,10.508c3.656,14.446,28.8,0.498,31.995-21.11c1.258-9.025-0.235-11.159-5.143-27.223
						c-4.898-16.006-4.685-21.003-9.041-27.448c-19.257-29.99-66.881-13.422-59.674,23.651c0.695,2.806,4.93,20.294,6.844,22.595
						C83.832,790.535,94.696,784.563,92.499,776.19z"/>
				</g>
			</g>
			<g>
				<g>
					<path fill="#717171" d="M241.845,911.232c2.056,20.172,4.372,33.81,8.494,52.485l-40.456,38.527
						c-5.566-20.619-8.701-35.083-12.024-56.57L241.845,911.232z"/>
					<path fill="#535353" d="M209.374,1004.061c-5.895-21.836-8.931-35.358-12.554-58.798l45.808-35.87
						c2.188,21.475,4.212,33.991,8.771,54.647L209.374,1004.061z M198.899,946.085c3.215,20.799,6.566,36.093,11.493,54.343
						l38.888-37.034c-3.91-17.717-6.364-32.156-8.217-50.324L198.899,946.085z"/>
				</g>
				<g>
					<path fill="#D6D6D6" d="M192.733,890.265c18.863,9.157,29.032,13.805,49.112,20.967l-43.986,34.443
						c-20.156-8.392-32.904-14.805-51.995-25.006L192.733,890.265z"/>
					<path fill="#707070" d="M198.009,946.782c-21.812-9.083-34.112-15.384-54.042-26.034l48.698-31.589
						c28.106,13.644,36.234,16.431,51.154,21.752L198.009,946.782z M147.76,920.588c18.518,9.895,31.781,16.417,49.949,23.978
						l42.162-33.014c-17.709-6.419-26.61-10.25-47.07-20.182L147.76,920.588z"/>
				</g>
				<g>
					<path fill="#858585" d="M197.859,945.674c3.371,21.803,6.584,36.418,12.024,56.57c-21.453-7.142-35.673-12.777-56.01-22.127
						c-4.435-23.085-5.918-35.483-8.009-59.449C165.044,930.918,177.783,937.316,197.859,945.674z"/>
					<path fill="#6A6A6A" d="M211.282,1003.727c-21.226-7.066-34.964-12.229-58.263-22.941c-4.808-25.252-6.032-36.136-8.27-61.809
						c20.144,10.766,32.372,17.02,53.981,26.013C202.37,968.539,205.481,982.239,211.282,1003.727z M154.726,979.448
						c18.888,8.683,33.949,14.719,53.757,21.313c-5.432-20.121-8.583-35.574-11.495-54.405c-18.95-7.89-32.285-14.528-50.008-23.998
						C149.341,949.437,151.267,961.44,154.726,979.448z"/>
				</g>
			</g>
			<g>
				<g>
					<path fill="#949494" d="M143.16,632.419c-9.786,16.386-15.287,26.214-24.981,47.047l-55.531,6.117
						c9.373-22.812,14.779-33.728,24.653-52.279L143.16,632.419z"/>
					<path fill="#888888" d="M61.138,686.72c10.033-24.415,15.079-34.647,25.579-54.371l58.159-0.922
						c-10.554,17.734-15.694,26.68-26.052,48.938L61.138,686.72z M87.885,634.26c-9.376,17.694-15.177,29.377-23.727,50.186
						l53.375-5.88c9.154-19.673,14.806-29.838,23.911-45.155L87.885,634.26z"/>
				</g>
				<g>
					<path fill="#7A7A7A" d="M116.707,586.215c7.486,15.238,17.874,33.298,26.453,46.204l-55.859,0.886
						c-8.649-14.539-18.926-34.581-26.286-51.495L116.707,586.215z"/>
					<path fill="#666666" d="M86.757,634.278c-9.18-15.43-19.062-34.695-27.268-53.558l57.842,4.575
						c7.445,15.163,17.375,32.656,27.608,48.06L86.757,634.278z M62.54,582.898c6.196,14.236,16.735,35.029,25.304,49.434
						l53.534-0.849c-8.156-12.291-18.879-31.284-25.295-44.35L62.54,582.898z"/>
				</g>
				<g>
					<path fill="#B1B1B1" d="M87.301,633.305c-9.532,17.909-15.045,28.895-24.653,52.279
						c-14.188-20.885-20.585-31.886-31.207-51.392c8.03-16.548,19.53-36.894,29.574-52.381
						C68.362,598.694,78.634,618.736,87.301,633.305z"/>
					<path fill="#DEDEDE" d="M62.859,687.61c-14.938-21.99-20.912-32.111-32.503-53.393c7.944-16.371,18.791-35.875,30.826-54.44
						c8.5,19.537,18.279,38.455,27.225,53.502C77.352,654.136,72.774,663.477,62.859,687.61z M32.526,634.166
						c9.541,17.445,16.368,29.452,29.912,49.391c9.159-22.289,15.389-34.435,23.756-50.225
						c-8.565-14.405-19.175-35.304-25.347-49.49C52.261,597.077,40.253,618.233,32.526,634.166z"/>
				</g>
			</g>
		</g>
		<g>
			<g>
				<g>
					<path fill="#6F6F6F" d="M124.731,534.253c6.179-7.32,6.061-12.059,10.337-29.065c1.212-3.982-1.909-8.608-6.089-9.577
						c-14.451-4.391-8.372,22.626-20.179,31.19c-11.003,7.973-24.905,0.354-25.621-12.527c-0.202-5.393,7.329-31.807,8.821-36.969
						c1.866-6.734,7.895-12.178,14.675-12.57c4.39-0.631,9.045,2.719,13.011-0.416c2.433-1.492,3.758-4.399,3.73-7.187
						c-0.106-11.127-18.436-11.674-29.308-6.439c-15.781,7.657-17.769,21.177-22.263,38.1c-4.495,17.308-8.43,28.78-0.9,42.074
						C81.985,550.376,109.08,552.452,124.731,534.253z"/>
				</g>
				<g>
					<path fill="#3F3F3F" d="M105.324,436.007c6.538-16.767,6.68-18.681,11.127-22.563c12.041-10.381,30.301,1.136,25.695,17.293
						c0,0-11.916,32.325-11.916,32.326c-2.585,7.723-11.77,12.479-19.679,10.106c-10.849-4.06-15.776,14.32-4.827,16.189
						c15.786,4.804,34.274-4.966,39.539-19.252c2.763-9.529,11.938-32.418,12.333-33.418c7.49-18.787-7.89-43.95-29.027-44.302
						c-13.424-0.92-26.008,7.717-31.498,19.662c-0.43,1-6.889,16.692-7.68,21.078C88.742,443.359,102.628,444.995,105.324,436.007z"
						/>
				</g>
			</g>
			<g>
				<g>
					<path fill="#C4C4C4" d="M268.851,262.428c15.855,0.602,21.914-7.642,35.648-18.59c7.012-6.731-3.949-20.029-13.07-10.476
						c-5.335,3.597-9.833,9.886-17.029,12.029c-9.604,2.865-20.731-4.118-20.556-15.568c0.18-8.967,4.418-11.79,27.502-30.007
						c22.397-18.023,27.224,2.493,34.014,2.811c6.363,1.384,17.01-7.749,2.098-19.963c-7.009-5.741-16.423-8.319-26.632-6.357
						c-13.028,2.725-43.804,29.796-47.455,34.553C227.152,233.238,242.531,261.434,268.851,262.428z"/>
				</g>
				<g>
					<path fill="#494949" d="M321.239,171.973c10.051-6.355,6.265-4.009,14.683-8.993c20.246-11.911,35.374,16.541,17.293,27.535
						c-6.417,3.822-6.173,3.481-27.833,17.584c-6.579,4.389-17.11,2.918-21.975-3.955c-4.016-5.97-13.689-3.977-15.274,3.059
						c-2.004,8.981,15.308,22.056,32.87,19.672c9.682-1.316,12.105-4.42,28.357-14.792c11.098-7.303,23.239-11.046,27.404-28.08
						c5.609-23.175-12.659-45.048-38.222-39.771c-7.903,1.726-26.344,13.405-28.073,15.945
						C304.976,167.53,313.757,176.321,321.239,171.973z"/>
				</g>
			</g>
			<g>
				<g>
					<path fill="#929292" d="M231.79,352.43c-23.649,9.45-41.262,18.183-48.34,22.292l-47.989-28.604
						c7.576-4.878,26.142-15.221,51.305-26.763L231.79,352.43z"/>
					<path fill="#9F9F9F" d="M183.443,375.841l-49.813-29.691c2.133-1.374,20.848-12.978,53.249-27.908l46.881,34.439
						C219.045,358.589,197.227,367.857,183.443,375.841z M137.334,346.112l46.131,27.497c14.671-8.036,31.583-15.492,46.353-21.43
						l-43.166-31.71C174.647,326.003,161.815,331.778,137.334,346.112z"/>
				</g>
				<g>
					<path fill="#BABABA" d="M238.667,299.611c-3.484,18.019-5.807,36.271-6.877,52.82l-45.023-33.075
						c2.063-17.863,5.498-37.441,10.178-56.898L238.667,299.611z"/>
					<path fill="#5D5D5D" d="M232.639,354.252l-46.895-34.45c2.348-20.308,5.814-39.096,10.641-59.135l43.334,38.589
						C236.079,318.07,233.879,335.044,232.639,354.252z M187.789,318.91l43.152,31.7c0.873-13.522,3.233-32.862,6.675-50.644
						l-40.11-35.717C193.391,281.342,189.767,301.784,187.789,318.91z"/>
				</g>
				<g>
					<path fill="#676767" d="M186.766,319.355c-25.164,11.543-43.763,21.907-51.305,26.763c0.247-16.302,3.708-43.178,6.281-59.838
						c17.659-8.923,36.752-17.132,55.202-23.823C192.264,281.916,188.829,301.494,186.766,319.355z"/>
					<path fill="#CCCCCC" d="M134.469,347.903c0.16-10.724,1.677-31.713,6.395-62.259c19.188-9.699,37.215-17.37,57.437-24.704
						c-4.829,20.069-8.288,38.715-10.64,59.066C160.34,332.596,142.135,342.974,134.469,347.903z M142.62,286.918
						c-2.891,18.948-4.479,29.926-6.118,57.446c23.312-13.554,33.13-18.173,49.368-25.659c1.985-17.171,5.622-37.726,9.717-54.728
						C179.158,269.93,159.294,278.49,142.62,286.918z"/>
				</g>
			</g>
			<g>
				<g>
					<path fill="#3B3B3B" d="M473.062,180.901c-16.791-4.925-34.499-8.532-51.856-11.212l-21.226-51.677
						c19.007,2.016,38.376,4.958,57.091,9.36L473.062,180.901z"/>
					<path fill="#585858" d="M474.495,182.326c-19.021-5.546-34.718-8.794-53.973-11.766l-22.048-53.678
						c20.895,2.216,38.561,4.827,59.363,9.679L474.495,182.326z M421.892,168.819c15.906,2.456,33.523,5.952,49.738,10.657
						l-15.323-51.292c-18.066-4.208-36.652-7.115-54.82-9.041L421.892,168.819z"/>
				</g>
				<g>
					<path fill="#474747" d="M510.179,143.083c-13.785,12.759-20.065,18.493-37.117,37.818l-15.991-53.529
						c19.528-19.882,26.68-25.813,42.693-39.176L510.179,143.083z"/>
					<path fill="#656565" d="M472.635,182.843l-16.651-55.74c21.111-21.418,26.497-25.74,44.422-40.699l10.821,57.025
						C491.984,161.304,489.742,163.456,472.635,182.843z M458.159,127.642l15.33,51.318c16.136-18.206,21.807-23.415,35.642-36.221
						l-10.009-52.749C479.506,106.507,476.224,109.321,458.159,127.642z"/>
				</g>
				<g>
					<path fill="#999999" d="M457.071,127.372c-18.979-4.464-38.344-7.372-57.091-9.36c12.376-14.941,26.056-30.029,41.1-44.169
						c28.794,5.547,37.865,8.218,58.683,14.353C483.963,101.383,476.797,107.288,457.071,127.372z"/>
					<path fill="#CDCDCD" d="M457.379,128.435c-20.626-4.811-38.135-7.41-59.289-9.653c14.147-17.079,26.497-30.702,42.689-45.979
						c31.121,6.053,38.064,8.223,60.988,14.978C483.751,102.816,477.659,107.788,457.379,128.435z M401.87,117.242
						c18.034,1.913,37.225,4.955,54.893,9.066c18.805-19.071,24.746-24.135,40.997-37.697c-26.937-7.892-33.989-9.416-56.379-13.728
						C427.211,88.261,413.977,102.627,401.87,117.242z"/>
				</g>
			</g>
		</g>
	</g>
	<g>
		<g>
			<g>
				<g>
					<path fill="#393939" d="M1789.049,139.604c12.469-0.771,24.36,0.716,23.496-9.452c-0.052-10.56-12.471-7.205-25.857-6.9
						c-12.318,0.345-21.838-14.274-13.585-25.478c5.815-7.913,12.619-6.998,28.76-7.874c13.815-0.819,28.466-3.065,33.399,9.553
						c1.957,3.987,0.211,9.443,4.443,12.261c4.571,3.904,12.43,1.092,13.524-4.737c1.278-12.402-6.328-25.561-19.52-31.374
						c-7.741-3.359-11.708-3.02-31.549-2.106c-15.872,0.879-28.88-0.507-40,10.95
						C1740.214,106.73,1761.327,142.887,1789.049,139.604z"/>
				</g>
				<g>
					<path fill="#4F4F4F" d="M1861.646,88.982c14.274,0.141,25.094-1.521,30.769,8.064c6.044,9.247,0.705,25.138-16.289,24.648
						c-13.195-0.253-22.849-0.068-31.868-0.308c-8.286-0.134-15.679-7.402-15.819-15.665c0.189-4.027-3.207-7.879-7.304-8.351
						c-18.793-3.027-8.728,39.041,21.122,40.473c8.691,0.023,24.12,0.026,37.521,0.283c22.386-0.33,38.323-24.501,29.876-44.175
						c-4.666-12.634-17.916-21.663-31.839-21.189c-6.229,0.185-12.592-0.668-18.744,0.206
						C1849.751,75.699,1852.33,89.324,1861.646,88.982z"/>
				</g>
			</g>
			<g>
				<g>
					<path fill="#9B9B9B" d="M2102.848,137.414c7.61,6.353,12.255,6.249,31.829,9.789c7.03,0.876,12.286-9.985,4.843-15.026
						c-3.699-2.467-14.008-2.441-20.605-4.718c-18.123-5.778-14.845-31.196,4.426-31.673c3.165-0.022,21.97,3.677,23.208,3.972
						c14.387,3.178,18.053,3.362,22.594,8.95c7.373,9.14,0.247,15.564,4.022,20.449c1.402,2.643,4.393,4.007,7.099,4.029
						c10.965,0.185,11.154-16.784,7.31-26.605c-7.1-18.447-25.946-20.117-39.94-23.351c-19.548-4.289-31.623-6.56-44.029,1.845
						C2085.386,97.833,2086.175,123.676,2102.848,137.414z"/>
				</g>
				<g>
					<path fill="#DEDEDE" d="M2200.519,114.065c2.177,0.646,2.391,0.751,16.294,5.608c13.476,4.488,15.698,21.211,4.975,28.706
						c-8.321,5.938-12.621,2.926-46.412-8.079c-8.183-2.406-13.089-11.592-11.029-19.349c3.024-10.486-12.954-15.076-16.354-4.992
						c-2.19,9.075-0.323,19.232,5.13,27.117c8.998,12.959,13.213,10.797,50.502,23.787c36.808,9.612,67.08-45.696,12.281-64.88
						c-10.236-3.58-10.919-3.947-13.198-3.707C2193.521,98.841,2192.334,111.182,2200.519,114.065z"/>
				</g>
			</g>
			<g>
				<g>
					<path fill="#747474" d="M2002.131,162.649c-15.921-8.308-22.402-11.618-50.827-27.895l0.785-55.861
						c28.454,16.738,35.545,20.553,48.946,27.901L2002.131,162.649z"/>
					<path fill="#A4A4A4" d="M2003.128,164.257c-21.596-11.323-23.433-12.169-52.796-28.948l0.816-58.089
						c31.468,18.474,33.464,19.425,50.841,28.996L2003.128,164.257z M1952.276,134.199c16.069,9.181,24.087,13.85,48.858,26.842
						l-1.053-53.67c-12.879-7.096-19.013-10.345-47.051-26.805L1952.276,134.199z"/>
				</g>
				<g>
					<path fill="#C4C4C4" d="M2050.108,133.596c-43.388,25.702-0.952,2.54-47.977,29.053l-1.096-55.856
						c14.349-8.293,25.147-16.245,49.57-29.062L2050.108,133.596z"/>
					<path fill="#A4A4A4" d="M2001.198,164.282l-1.14-58.039c12.318-7.111,26.397-16.926,51.524-30.115l-0.514,58.02
						C2004.755,161.583,2052.294,135.474,2001.198,164.282z M2002.011,107.341l1.053,53.674
						c52.084-29.592-4.677,2.101,46.085-27.972l0.477-53.708C2029.493,89.9,2013.397,100.677,2002.011,107.341z"/>
				</g>
				<g>
					<path fill="#666666" d="M2001.035,106.793c-15.334-8.407-21.529-11.773-48.946-27.901
						c28.083-15.723,34.514-19.766,47.85-27.955c38.486,22.018,16.607,8.295,50.666,26.794
						C2027.674,89.765,2012.441,100.201,2001.035,106.793z"/>
					<path fill="#777777" d="M2001.047,107.9c-16.133-8.886-19.992-10.881-50.896-29.028c31.193-17.5,33.514-19.121,49.769-29.056
						c42.02,23.805,16.444,8.22,52.732,27.931C2027.412,90.992,2013.67,100.602,2001.047,107.9z M1954.026,78.913
						c28.55,16.754,32.459,18.764,46.994,26.772c11.328-6.63,27.552-17.479,47.536-27.968c-31.06-16.869-11.055-4.18-48.6-25.658
						C1988.229,59.223,1981.964,63.239,1954.026,78.913z"/>
				</g>
			</g>
			<g>
				<g>
					<path fill="#474747" d="M2291.141,236.731c-7.563-15.873-11.886-25.187-25.021-47.073l26.13-49.379
						c15.612,23.539,20.875,33.696,29.453,49.687L2291.141,236.731z"/>
					<path fill="#5B5B5B" d="M2291.009,238.696c-7.819-16.363-11.846-25.406-25.995-49.009l27.143-51.295
						c16.357,24.688,21.321,34.197,30.668,51.622C2322.294,190.824,2291.545,237.875,2291.009,238.696z M2267.228,189.628
						c13.383,22.325,18.119,32.749,24.045,45.137l29.31-44.848c-6.799-12.636-13.025-24.781-28.24-47.752L2267.228,189.628z"/>
				</g>
				<g>
					<path fill="#BCBCBC" d="M2344.314,240.748c-20.209-2.668-40.77-3.981-53.173-4.018l30.562-46.766
						c13.491,0.701,35.341,3.109,57.326,7.012L2344.314,240.748z"/>
					<path fill="#E7E7E7" d="M2344.73,241.776c-17.18-2.269-37.146-4.016-55.367-4.089l31.836-48.715
						c18.601,0.976,40.325,3.918,59.591,7.337L2344.73,241.776z M2292.915,235.78c20.906,0.535,36.648,2.048,50.983,3.941
						l33.371-42.076c-19.826-3.521-42.598-6.025-55.061-6.688L2292.915,235.78z"/>
				</g>
				<g>
					<path fill="#D1D1D1" d="M2321.703,189.965c-9.01-16.796-14.144-26.603-29.453-49.687c28.901-0.053,40.873,1.192,60.015,2.921
						c7.302,12.468,17.808,33.041,26.764,53.778C2357.091,193.082,2335.058,190.658,2321.703,189.965z"/>
					<path fill="#8B8B8B" d="M2380.626,198.24c-18.447-3.276-40.722-6.377-59.516-7.339c-9.522-17.702-13.77-26.101-30.657-51.584
						c30.134-0.055,39.756,0.922,62.394,2.966C2362.866,159.428,2372.674,179.832,2380.626,198.24z M2322.296,189.03
						c11.689,0.618,34.627,3.043,55.136,6.684c-8.072-18.69-19.265-40.592-25.75-51.598c-35.936-3.2-46.411-2.896-57.638-2.876
						C2309.078,163.936,2315.432,176.273,2322.296,189.03z"/>
				</g>
			</g>
		</g>
		<g>
			<g>
				<g>
					<path fill="#868686" d="M2391.168,289.625c11.989,12.93,11.306,12.461,13.129,13.259c6.039,2.707,13.367-3.058,11.215-10.127
						c-0.983-3.062-4.154-4.796-13.356-15.474c-8.217-9.068-3.243-25.82,10.613-26.789c9.936-0.709,13.715,5.238,24.688,17.07
						c10.826,11.827,20.436,20.888,13.677,32.254c-1.948,4.004-10.216,7.837-5.962,15.11c8.838,15.019,34.293-11.231,21.38-37.539
						c-1.846-3.762-3.457-5.34-10.035-12.989c-16.371-18.811-25.267-30.101-40.711-30.958
						C2384.334,231.345,2371.121,271.002,2391.168,289.625z"/>
				</g>
				<g>
					<path fill="#616161" d="M2475.606,314.857c10.808,14.73,11.982,17.49,12.579,21.737c1.363,12.47-10.491,20.356-20.359,17.201
						c-8.864-2.184-10.098-9.112-28.563-33.532c-4.984-6.547-3.489-16.906,2.754-21.992c3.191-2.292,4.255-7.205,1.93-10.907
						c-6.481-11.307-21.545,1.35-23.835,18.911c-2.244,19.193,5.847,21.27,25.687,51.545c25.354,35.01,91.129-3.564,41.143-54.553
						C2478.907,296.989,2469.738,307.562,2475.606,314.857z"/>
				</g>
			</g>
			<g>
				<g>
					<path fill="#868686" d="M2521.719,567.167c0.698,7.153-0.145-3.299,1.523,19.334c1.466,9.759,18.716,8.198,16.032-4.646
						c-0.075-6.705-2.132-14.548-0.049-20.858c2.357-6.765,9.894-11.861,17.23-10.806c15.867,1.9,14.766,19.71,15.731,35.666
						c0.61,14.286,1.411,18.127-2.777,24.012c-6.834,9.49-14.937,4.376-18.615,9.322c-4.44,4.203-2.099,12.372,3.69,13.955
						c7.714,1.061,15.639-1.497,21.901-6.234c15.622-11.901,13.188-29.983,11.712-49.143c-1.014-15.836-1.241-27.084-12.559-37.008
						C2553.704,521.715,2520.529,540.958,2521.719,567.167z"/>
				</g>
				<g>
					<path fill="#BBBBBB" d="M2572.8,641.273c-0.663,14.7,0.892,25.767-8.731,31.273c-5.161,3.28-12.539,3.055-17.839-0.987
						c-8.943-6.754-6.43-13.123-5.636-47.194c0.334-8.943,7.881-15.818,15.732-15.878c4.37,0.058,8.479-3.779,8.389-8.23
						c0.664-12.559-16.633-9.886-26.969-2.181c-17.016,12.462-12.853,25.66-14.656,61.495c0.667,30.081,40.46,44.919,59.229,18.558
						c6.895-9.641,6.166-17.328,6.831-35.431C2590.19,631.564,2573.679,630.279,2572.8,641.273z"/>
				</g>
			</g>
			<g>
				<g>
					<path fill="#848484" d="M2475.363,467.676c5.229-33.085,6.352-44.458,7.408-53.853l50.562-23.762
						c-1.024,16.62-0.365,12.257-5.941,57.265L2475.363,467.676z"/>
					<path fill="#5C5C5C" d="M2474.147,469.188c5.873-37.726,6.734-47.191,7.725-56.008l52.523-24.684
						c-1.424,22.157-0.103,9.781-6.118,59.52L2474.147,469.188z M2483.67,414.467c-1.932,16.35-2.431,21.657-7.092,51.698
						l49.927-19.528c5.39-43.49,4.764-38.784,5.766-55.011L2483.67,414.467z"/>
				</g>
				<g>
					<path fill="#818181" d="M2515.324,501.134c-18.593-17.879-25.177-22.536-39.961-33.457l52.029-20.35
						c14.931,11.807,29.176,26.124,42.096,40.117L2515.324,501.134z"/>
					<path fill="#A2A2A2" d="M2515.042,502.2c-18.772-18.049-23.787-21.584-41.658-34.785l54.171-21.188
						c15.97,12.629,29.965,26.836,43.743,41.755L2515.042,502.2z M2477.341,467.938c15.186,11.22,21.052,15.577,38.266,32.129
						l52.071-13.16c-11.931-12.923-26.611-27.544-40.451-38.48L2477.341,467.938z"/>
				</g>
				<g>
					<path fill="#7B7B7B" d="M2527.391,447.327c5.671-45.77,4.976-41.588,5.941-57.265c8.983,6.829,17.402,13.004,46.087,36.915
						c-2.666,27.394-5.236,40.302-9.933,60.467C2556.511,473.391,2542.271,459.091,2527.391,447.327z"/>
					<path fill="#323232" d="M2570.013,489.436c-13.594-14.724-27.683-29.075-43.647-41.689c5.571-44.946,4.823-38.607,6.114-59.545
						c17.389,13.358,22.025,16.749,47.948,38.361C2577.536,456.266,2574.928,468.338,2570.013,489.436z M2528.415,446.906
						c13.837,10.946,28.479,25.475,40.545,38.545c5.955-25.557,7.02-35.248,9.449-58.06c-27.437-22.874-36.253-29.411-44.225-35.471
						C2533.028,409.742,2534.255,398.559,2528.415,446.906z"/>
				</g>
			</g>
			<g>
				<g>
					<path fill="#9E9E9E" d="M2482.55,762.642c17.397-14.518,27.934-25.962,38.121-36.742l54.812,10.802
						c-10.549,12.401-21.373,25.455-39.546,42.398L2482.55,762.642z"/>
					<path fill="#797979" d="M2536.187,780.186c-0.875-0.268-54.732-16.871-55.621-17.145c18.171-15.193,27.141-24.825,39.769-38.19
						l56.948,11.223C2564.233,751.231,2555.29,762.338,2536.187,780.186z M2484.533,762.244l51.155,15.77
						c17.448-16.313,28.656-29.709,37.994-40.683l-52.676-10.381C2511.214,737.177,2500.716,748.684,2484.533,762.244z"/>
				</g>
				<g>
					<path fill="#959595" d="M2493.287,814.541c-3.969-27.161-7.275-38.822-10.738-51.898l53.387,16.458
						c3.112,14.976,5.913,27.396,8.806,57.199L2493.287,814.541z"/>
					<path fill="#989898" d="M2545.859,837.819l-53.448-22.601c-4.246-28.73-7.566-40.135-11.239-54.009l55.594,17.138
						C2540.112,794.593,2542.729,805.55,2545.859,837.819z M2494.164,813.863l49.462,20.917c-2.89-29.129-6.178-43.672-8.518-54.925
						l-51.181-15.777C2486.756,774.757,2490.161,786.833,2494.164,813.863z"/>
				</g>
				<g>
					<path fill="#8E8E8E" d="M2535.937,779.1c18.131-16.902,29.006-30.008,39.546-42.398c4.412,15.552,9.493,32.647,13.842,58.855
						c-11.764,11.907-20.945,21.487-44.582,40.741C2541.813,806.112,2538.708,792.435,2535.937,779.1z"/>
					<path fill="#4A4A4A" d="M2543.956,838.184c-3.202-32.47-5.934-44.314-9.073-59.419c18.594-17.373,28.999-29.913,41.036-44.063
						c5.391,19.006,10.034,34.832,14.438,61.184C2578.145,808.21,2569.881,817.067,2543.956,838.184z M2536.993,779.435
						c2.073,10.09,5.555,24.907,8.536,54.979c22.792-18.649,33.595-29.904,42.763-39.185c-3.958-23.635-8.048-38.217-13.244-56.527
						C2565.288,750.127,2554.649,762.934,2536.993,779.435z"/>
				</g>
			</g>
		</g>
		<g>
			<g>
				<g>
					<path fill="#E6E6E6" d="M2472.781,859.401c-11.22,5.504-12.779,10.979-18.324,19.678c-2.582,4.015-9.897,12.521-1.43,17.619
						c8.076,5.74,12.726-4.777,20.276-16.907c6.721-10.304,24.229-9.733,28.703,3.294c3.227,9.353-1.62,14.946-10.102,28.257
						c-7.393,11.432-14.261,25.35-27.441,21.699c-4.4-0.854-7.681-5.5-12.533-3.893c-5.909,1.208-8.35,9.094-4.446,13.564
						c10.057,9.705,25.766,9.882,36.984,3.37c6.89-4.115,10.086-8.866,15.557-17.1c13.834-21.535,22.513-31.786,19.188-47.461
						C2514.94,859.984,2491.455,850.326,2472.781,859.401z"/>
				</g>
				<g>
					<path fill="#9E9E9E" d="M2456.313,960.525c-10.969,13.199-10.953,13.275-11.953,14.198
						c-12.27,11.042-28.124,1.537-27.692-11.403c-0.336-7.194,4.433-11.323,15.144-24.25c8.331-9.698,9.699-14.87,17.146-17.195
						c5.428-1.786,10.755-0.807,14.486,1.873c5.226,4.275,14.214-0.093,13.497-7.842c-0.738-8.276-21.206-16.545-38.189-7.716
						c-9.549,4.899-8.926,8.443-31.732,35.026c-25.979,30.634,24.713,88.552,63.503,25.233c0.737-1.608,0.813-3.466,0.43-5.141
						C2469.336,956.289,2460.438,955.262,2456.313,960.525z"/>
				</g>
			</g>
			<g>
				<g>
					<path fill="#898989" d="M2225.914,1075.479c-17.912,7.156-21.283,7.242-21.847,13.368c-0.479,5.089,3.229,8.952,7.865,9.134
						c4.913,0.157,16.292-7.744,25.124-7.723c16.358,0.308,22.88,23.416,5.167,31.34c-0.505,0.226-15.667,6.31-18.997,7.571
						c-13.084,4.602-17.501,6.808-23.896,4.452c-11.135-3.906-8.494-13.089-14.301-15.27c-5.399-3.148-12.39,1.877-12.309,7.508
						c1.614,11.266,11.234,23.165,27.436,25.104c6.533,0.741,11.419,1.253,44.786-12.779
						C2295.241,1117.03,2260.427,1062.553,2225.914,1075.479z"/>
				</g>
				<g>
					<path fill="#5E5E5E" d="M2169.823,1145.633c-12.822,3.182-9.348,2.39-16.822,3.913c-23.585,4.78-27.805-27.233-7.624-31.616
						c9.456-1.968,26.121-6.224,31.858-7.866c7.936-2.272,17.221,2.829,19.651,10.654c2.947,10.35,18.971,5.819,16.488-4.524
						c-3.457-10.288-12.455-19.273-24.285-22.113c-10.31-2.79-15.101,0.08-25.104,2.573c-26.64,6.659-25.87,5.315-31.702,8.925
						c-29.155,18.047-21.011,69.835,30.867,58.611c11.263-2.808,11.485-2.673,13.189-3.97
						C2183.94,1154.943,2178.296,1143.862,2169.823,1145.633z"/>
				</g>
			</g>
			<g>
				<g>
					<path fill="#A7A7A7" d="M2309.884,1001.021c27.138-1.968,40.11-4.468,52.954-6.73l36.94,41.91
						c-15.144,3.368-27.83,6.394-56.927,9.922L2309.884,1001.021z"/>
					<path fill="#4A4A4A" d="M2342.405,1047.15l-34.327-46.964c29.071-2.155,39.541-4.194,55.125-6.939l38.377,43.541
						C2383.719,1040.762,2372.772,1043.416,2342.405,1047.15z M2311.69,1001.857l31.607,43.241
						c28.292-3.481,39.416-6.09,54.677-9.483l-35.502-40.28C2348.702,997.76,2337.368,999.942,2311.69,1001.857z"/>
				</g>
				<g>
					<path fill="#565656" d="M2287.426,1049.409c6.299-12.074,12.757-23.996,22.458-48.388l32.967,45.103
						c-11.53,25.347-18.862,37.644-26.77,51.244L2287.426,1049.409z"/>
					<path fill="#B4B4B4" d="M2316.092,1099.268l-29.771-49.826c7.931-15.332,12.903-24.229,23.311-50.399l34.33,46.967
						C2332.172,1071.927,2326.152,1081.967,2316.092,1099.268z M2288.531,1049.378l27.539,46.089
						c7.217-12.411,14.325-24.295,25.669-49.229L2310.135,1003C2301.2,1025.454,2294.556,1037.827,2288.531,1049.378z"/>
				</g>
				<g>
					<path fill="#6E6E6E" d="M2342.851,1046.124c29.292-3.551,43.178-6.865,56.927-9.922c-5.729,15.031-10.264,27.464-23.959,55.025
						c-29.701,4.636-44.686,5.276-59.737,6.141C2323.554,1084.515,2331.069,1072.023,2342.851,1046.124z"/>
					<path fill="#282828" d="M2314.346,1098.434c10.331-17.903,15.72-26.535,27.851-53.202c30.463-3.745,41.08-6.349,59.12-10.36
						c-6.592,17.288-10.769,28.883-24.857,57.231C2346.888,1096.718,2334.928,1097.251,2314.346,1098.434z M2343.505,1047.016
						c-11.027,24.24-17.6,35.378-25.688,49.285c16.738-0.96,29.85-1.658,57.36-5.951c13.741-27.772,18.882-41.848,23.062-52.818
						C2366.792,1044.398,2356.044,1045.473,2343.505,1047.016z"/>
				</g>
			</g>
			<g>
				<g>
					<path fill="#585858" d="M2026.083,1087.841c46.182,26.094,40.444,22.848,48.901,27.535l2.142,55.825
						c-9.879-4.6-1.596-0.042-50.4-27.498L2026.083,1087.841z"/>
					<path fill="#4F4F4F" d="M2078.151,1172.743c-12.964-6.038-1.723,0.027-52.383-28.471l-0.669-58.095
						c49.789,28.111,40.999,23.171,50.828,28.618L2078.151,1172.743z M2027.685,1143.136c48.247,27.144,39.612,22.428,48.417,26.525
						l-2.061-53.704c-8.615-4.774-0.476-0.199-46.975-26.451L2027.685,1143.136z"/>
				</g>
				<g>
					<polygon fill="#DCDCDC" points="1977.169,1115.734 2026.083,1087.841 2026.727,1143.704 1977.602,1171.598 					"/>
					<path fill="#3E3E3E" d="M1976.651,1173.248l-0.451-58.072l50.829-28.985l0.669,58.07L1976.651,1173.248z M1978.139,1116.292
						l0.416,53.657l47.201-26.803l-0.618-53.656L1978.139,1116.292z"/>
				</g>
				<g>
					<path fill="#C5C5C5" d="M2026.727,1143.704c48.517,27.295,39.938,22.626,50.4,27.498c-10.002,5.822-3.441,2.093-49.756,28.365
						l-49.768-27.969L2026.727,1143.704z"/>
					<path fill="#BEBEBE" d="M2027.373,1200.675l-51.732-29.071l51.084-29.007c48.912,27.469,39.522,22.479,52.483,28.511
						C2066.504,1178.502,2076.669,1172.69,2027.373,1200.675z M1979.564,1171.594l47.805,26.865
						c47.229-26.812,39.047-22.138,47.676-27.162c-8.958-4.173,0.261,0.842-48.317-26.485L1979.564,1171.594z"/>
				</g>
			</g>
		</g>
		<g>
			<g>
				<g>
					<path fill="#949494" d="M1933.793,1125.442c-11.351-16.765-27.669-14.531-44.795-14.544
						c-10.495-0.394-11.007,16.461,0.046,16.371c12.398,0.169,31.248-2.768,33.331,14.062c1.697,9.108-6.227,18.141-15.577,18.462
						c-31.589,0.384-44.731,2.436-49.543-10.419c-1.903-4.015-0.085-9.445-4.309-12.323c-4.565-3.959-12.494-1.109-13.583,4.707
						c-1.83,17.614,13.958,34.316,31.948,34.446c40.337,0.031,37.067,0.178,40.23-0.365
						C1935.264,1172.419,1947.457,1145.061,1933.793,1125.442z"/>
				</g>
				<g>
					<path fill="#252525" d="M1831.006,1159.774c-14.462,0.006-24.986,1.74-30.719-7.645c-6.212-9.221-0.951-25.176,16.014-24.916
						c10.71,0.095,21.431-0.138,32.131,0.141c8.399,0.18,15.762,7.604,15.727,15.853c-0.739,11.494,17.982,11.113,16.902,0.081
						c0.429-16.409-13.879-31.431-30.484-32.39l-38.126-0.058c-22.467,0.683-38.089,25.208-29.347,44.73
						c4.841,12.526,18.261,21.296,32.007,20.592c6.146-0.246,12.435,0.531,18.494-0.391
						C1842.874,1172.998,1840.134,1159.359,1831.006,1159.774z"/>
				</g>
			</g>
			<g>
				<g>
					<path fill="#737373" d="M1597.336,1125.697c-11.122-17.624-28.201-15.006-45.795-15.002
						c-10.338,0.922-10.017,18.139,3.416,16.321c7.105,0.42,14.668-1.175,21.333,1.723c6.699,3.091,10.574,11.138,8.487,18.264
						c-3.528,13.214-16.451,12.476-22.779,12.578c-23.742-0.119-39.066,2.731-42.587-11.858c-1.125-3.463,0.225-7.917-3.088-10.466
						c-4.115-4.478-12.48-1.977-14.113,3.808c-2.629,17.721,13.018,36.016,33.711,34.86c12.462-0.221,24.981,0.513,37.419-0.345
						C1597.074,1172.294,1609.884,1145.076,1597.336,1125.697z"/>
				</g>
				<g>
					<path fill="#BEBEBE" d="M1494.028,1159.526c-18.368-0.025-18.235,0.114-20.912-0.494c-10.884-2.21-16.797-15.399-9.291-25.301
						c5.692-7.605,10.829-7.242,47.511-6.652c8.465,0.112,15.844,7.486,15.525,15.856c-0.254,4.32,3.288,8.441,7.745,8.58
						c12.282,1.181,11.066-16.241,3.815-26.846c-11.594-17.297-26.882-14.042-63.418-14.048
						c-37.623,3.292-44.882,57.897-3.215,65.087c1.255,0.153,21.8,0.709,24.394-0.453
						C1504.446,1171.985,1502.437,1159.877,1494.028,1159.526z"/>
				</g>
			</g>
			<g>
				<g>
					<polygon fill="#3B3B3B" points="1692.325,1087.584 1741.167,1115.552 1740.589,1171.415 1691.537,1143.445 					"/>
					<path fill="#AEAEAE" d="M1741.537,1173.066l-50.972-29.065c0.013-0.966,0.806-57.089,0.82-58.067l50.753,29.062
						L1741.537,1173.066z M1692.509,1142.889l47.132,26.875l0.555-53.657l-46.93-26.873L1692.509,1142.889z"/>
				</g>
				<g>
					<polygon fill="#A8A8A8" points="1642.695,1115.478 1692.325,1087.584 1691.537,1143.445 1641.696,1171.336 					"/>
					<path fill="#727272" d="M1640.701,1172.998l1.039-58.09c0.77-0.434,50.807-28.555,51.573-28.986l-0.82,58.093
						L1640.701,1172.998z M1643.649,1116.048l-0.958,53.626l47.889-26.799l0.757-53.629L1643.649,1116.048z"/>
				</g>
				<g>
					<polygon fill="#5A5A5A" points="1691.537,1143.445 1740.589,1171.415 1690.749,1199.306 1641.696,1171.336 					"/>
					<path fill="#818181" d="M1690.744,1200.414l-51.009-29.085l51.807-28.991l51.009,29.085L1690.744,1200.414z M1643.658,1171.343
						l47.096,26.855l47.875-26.791l-47.096-26.855L1643.658,1171.343z"/>
				</g>
			</g>
			<g>
				<g>
					<path fill="#B1B1B1" d="M1373.764,1068.114c13.571,16.152,26.691,29.943,36.245,38.563l-11.599,54.649
						c-14.352-11.685-29.322-26.689-41.846-40.059L1373.764,1068.114z"/>
					<path fill="#878787" d="M1399.026,1163.072c-17.081-13.904-32.234-29.477-43.554-41.561l17.911-55.351
						c5.293,6.3,20.449,24.629,37.685,40.173C1410.879,1107.226,1399.224,1162.136,1399.026,1163.072z M1357.657,1121.023
						c10.024,10.699,22.87,24.043,40.14,38.54l11.154-52.547c-12.259-11.262-24.139-24.251-34.805-36.949L1357.657,1121.023z"/>
				</g>
				<g>
					<path fill="#9E9E9E" d="M1321.674,1078.167c16.743-2.342,33.079-4.964,52.09-10.053l-17.2,53.153
						c-22.385,4.698-41.295,6.612-57.319,8.067L1321.674,1078.167z"/>
					<path fill="#7C7C7C" d="M1297.706,1130.443l23.301-53.157c14.068-1.996,30.88-4.305,54.222-10.564l-17.919,55.374
						C1333.911,1127.008,1315.372,1128.837,1297.706,1130.443z M1322.34,1079.047l-21.556,49.178
						c26.479-2.467,35.604-4.056,55.034-7.787l16.481-50.934C1354.947,1074.161,1336.92,1077.008,1322.34,1079.047z"/>
				</g>
				<g>
					<path fill="#515151" d="M1356.564,1121.267c15.81,16.878,30.909,31.154,41.846,40.059
						c-18.372,5.633-40.302,9.948-59.045,13.094c-17.283-17.033-29.686-32.106-40.119-45.086
						C1317.478,1127.679,1335.434,1125.704,1356.564,1121.267z"/>
					<path fill="#A4A4A4" d="M1339.038,1175.453c-17.872-17.616-29.861-32.223-41.672-46.917
						c19.319-1.791,36.533-3.503,59.531-8.324c13.763,14.692,27.77,28.671,43.521,41.507
						C1375.716,1169.293,1350.726,1173.492,1339.038,1175.453z M1301.125,1130.132c17.028,21.078,23.764,28.174,38.565,43.256
						c16.072-2.697,34.777-6.119,56.715-12.474c-16.808-14.132-29.537-27.237-40.173-38.59
						C1335.675,1126.629,1317.625,1128.593,1301.125,1130.132z"/>
				</g>
			</g>
		</g>
		<g>
			<g>
				<g>
					<path fill="#C6C6C6" d="M1275.237,1053.483c-5.861-9.461-10.837-10.18-24.2-19.292c-3.381-2.457-8.771-1.053-11.042,2.626
						c-8.992,12.358,18.654,15.087,22.952,29.313c2.381,7.707-0.965,16.805-9.914,19.845c-8.51,2.942-13.575,0.239-42.407-20.128
						c-2.821-1.957-5.047-4.616-6.428-8.072c-4.847-12.123,5.586-15.543,3.345-22.402c-1.18-5.895-9.115-8.385-13.512-4.596
						c-11.025,11.212-10.628,30.131,0.263,42.55c4.388,5.028,24.064,17.581,28.586,20.448c7.438,4.661,16.5,12.045,31.5,9.441
						C1277.246,1099.018,1287.059,1072.965,1275.237,1053.483z"/>
				</g>
				<g>
					<path fill="#BFBFBF" d="M1176.113,1039.438c-12.928-10.922-15.642-12.741-17.627-17.824
						c-6.115-15.445,12.668-30.039,27.463-16.581c6.689,5.962,15.476,13.107,23.989,19.948c6.104,4.881,7.83,15.233,2.867,21.986
						c-2.608,3.132-2.167,8.267,0.839,11.076c9.168,9.434,20.495-6.807,18.342-24.272c-2.463-19.087-12.08-20.152-38.021-43.497
						c-33.714-27.244-86.864,26.799-25.899,63.262C1177.283,1057.469,1183.694,1045.165,1176.113,1039.438z"/>
				</g>
			</g>
			<g>
				<g>
					<path fill="#626262" d="M1064.689,822.321c1.439-10.068-1.68-15.271-6.595-27.82c-1.419-3.849-2.078-7.915-7.916-8.505
						c-6.866-0.702-11.531,6.084-7.814,13.07c2.616,8.372,8.578,16.144,4.926,25.187c-4.78,11.958-19.441,13.425-26.863,4.747
						c-3.051-3.205-4.247-7.567-5.654-10.975c-10.388-26.767-11.587-30.441-9.252-37.243c3.873-11.051,13.074-8.322,15.344-14.119
						c3.153-5.248-1.459-12.418-7.32-12.404c-11.462,1.505-23.442,11.375-25.451,27.193c-1.042,9.457,1.169,14.704,5.384,26.286
						c8.453,23.854,11.904,34.678,26.184,41.209C1039.908,857.894,1061.723,843.728,1064.689,822.321z"/>
				</g>
				<g>
					<path fill="#A6A6A6" d="M993.73,751.169c-3.398-15.274-7.243-25.279,0.72-32.804c8.266-8.537,24.224-4.65,27.284,8.652
						c6.446,32.24,10.728,34.645,5.897,43.725c-4.959,9.193-10.712,5.789-14.068,11.648c-3.758,6.52,2.416,14.192,9.168,12.642
						c13.602-4.419,23.887-17.808,23.533-33.576c-0.219-6.959-3.463-11.957-8.983-40.296c-10.045-33.292-59.469-32.299-64.017,4.391
						c-1.056,8.972,4.411,30.18,5.811,31.978C984.345,765.094,995.39,759.774,993.73,751.169z"/>
				</g>
			</g>
			<g>
				<g>
					<path fill="#B2B2B2" d="M1136.99,892.622c0.955,14.461,2.386,31.721,6.266,53.009l-42.255,36.546
						c-4.627-20.302-7.158-37.291-9.414-57.002L1136.99,892.622z"/>
					<path fill="#3A3A3A" d="M1100.417,983.957c-5.218-22.882-7.689-40.322-9.854-59.236l47.273-33.895
						c1.107,16.747,2.464,33.216,6.467,55.173L1100.417,983.957z M1092.61,925.629c2.113,18.466,4.474,34.282,8.981,54.762
						l40.618-35.13c-3.259-18.338-4.99-34.512-6.069-50.843L1092.61,925.629z"/>
				</g>
				<g>
					<path fill="#C2C2C2" d="M1088.831,869.706c14.8,7.96,32.497,16.849,48.158,22.916l-45.402,32.553
						c-16.687-7.419-35.384-17.927-50.976-27.257L1088.831,869.706z"/>
					<path fill="#0D0D0D" d="M1091.7,926.281c-21.911-9.729-43.679-22.805-52.983-28.372l50.094-29.309
						c16.283,8.757,32.872,17.057,50.19,23.766L1091.7,926.281z M1042.506,897.927c15.421,9.227,32.443,18.644,48.971,26.14
						l43.518-31.202c-18.393-7.452-33.105-15.039-46.144-22.053L1042.506,897.927z"/>
				</g>
				<g>
					<path fill="#373737" d="M1091.587,925.175c1.791,15.65,4.22,34.213,9.414,57.002c-21.56-8.187-37.737-15.817-54.816-24.449
						c-3.099-18.886-4.719-40.821-5.573-59.81C1056.17,907.228,1074.876,917.745,1091.587,925.175z"/>
					<path fill="#C6C6C6" d="M1102.341,983.716c-22.599-8.572-37.417-15.435-57.029-25.348c-4.11-24.954-5.253-51.247-5.745-62.199
						c7.5,4.488,29.897,18.108,52.916,28.349C1094.454,941.74,1096.806,959.409,1102.341,983.716z M1047.06,957.09
						c17.021,8.602,34.268,16.582,52.611,23.551c-4.6-20.942-6.925-36.851-8.98-54.812c-16.411-7.441-33.502-16.867-49.035-26.161
						C1042.502,918.464,1044.145,938.584,1047.06,957.09z"/>
				</g>
			</g>
			<g>
				<g>
					<path fill="#4F4F4F" d="M1052.658,613.537c-2.973,2.232-5.806,4.248-10.621,9.898c-0.848,5.02-1.405,5.349-2.107,8.403
						c-3.534,5.461-8.784,13.564-14.833,24.542l-55.829,2.055c5.86-12.118,11.058-21.286,14.809-27.862
						c0.656-0.571,1.629-2.219,2.093-2.959c0,0,3.076-7.861,10.886-19.51L1052.658,613.537z"/>
					<path fill="#2D2D2D" d="M967.701,659.458c6.829-14.114,11.105-21.573,15.62-29.506c2.292-1.978,3.753-7.712,9.037-16.459
						l4.219-6.406l58.645,5.731c-6.058,4.625-7.288,5.304-12.266,11.026c-0.302,2.701-1.62,6.092-2.123,8.375
						c-3.646,5.649-8.56,13.14-15.154,25.104L967.701,659.458z M984.833,631.195c0,0-7.993,13.794-13.998,26.217l53.681-1.976
						c6.292-11.415,12.601-21.018,14.512-23.979c0.608-2.735,1.183-3.007,2.102-8.445c2.279-2.628,3.967-4.82,8.982-8.754
						l-52.575-5.138c-7.625,11.614-10.65,19.169-10.65,19.169C986.382,629.094,985.513,630.547,984.833,631.195z M985.721,626.754
						c-0.002,0.001-0.005,0.003-0.008,0.005L985.721,626.754z"/>
				</g>
				<g>
					<path fill="#414141" d="M1036.421,575.38c1.712,13.96,6.498,28.247,16.237,38.157l-55.602-5.433
						c-8.549-18.454-10.661-40.066-9.147-60.431L1036.421,575.38z"/>
					<path fill="#4F4F4F" d="M1055.207,614.756l-58.794-5.746c-10.042-21.684-10.714-43.603-9.353-62.934l50.259,28.706
						C1039.368,590.933,1043.748,603.089,1055.207,614.756z M997.7,607.197l52.596,5.14c-8.974-10.749-12.986-22.415-14.774-36.359
						l-46.764-26.71C987.42,568.971,989.822,590.116,997.7,607.197z"/>
				</g>
				<g>
					<path fill="#BFBFBF" d="M997.056,608.103c-7.811,11.652-10.886,19.51-10.886,19.51c-0.464,0.74-1.437,2.388-2.093,2.959
						c-3.875,6.797-8.947,15.741-14.809,27.862c-7.097-12.144-12.001-22.061-14.207-26.465c-2.696-6.411-2.85,8.098-13.607-29.3
						c9.715-20.396,25.113-39.486,46.455-54.998C986.378,568.263,988.584,589.803,997.056,608.103z"/>
					<path fill="#A8A8A8" d="M969.349,660.484c-7.87-13.459-11.899-21.589-15.151-28.081c-1.355-3.21-3.41,0.17-5.417-6.243
						c-4.188-9.133-6.43-16.877-8.355-23.573c12.719-26.718,29.965-43.268,48.599-56.918c-1.161,16.418-1.641,39.182,9.133,62.523
						c-8.563,13.005-11.273,20.098-11.273,20.098c-0.512,0.816-1.366,2.248-2.055,2.91
						C980.467,638.872,976.165,646.385,969.349,660.484z M942.483,602.755c10.988,37.324,10.323,21.364,13.467,28.841
						c5.999,11.961,10.611,20.297,13.237,24.79c5.556-11.506,12.33-23.265,14.134-26.433c2.309-2.008,3.565-7.416,9.037-16.461
						l3.595-5.476c-6.615-14.406-10.736-34.814-9.16-58.34C966.721,564.492,951.492,583.781,942.483,602.755z M985.722,626.753
						c-0.002,0.001-0.005,0.003-0.008,0.006L985.722,626.753z"/>
				</g>
			</g>
		</g>
		<g>
			<g>
				<g>
					<path fill="#454545" d="M1078.746,539.664c10.314-5.835,17.989-6.726,14.239-15.877c-4.407-13.148-19.605,2.53-28.374,3.723
						c-12.84,1.786-24.752-11.263-16.801-24.101c5.063-8.167,36.127-21.252,45.143-21.297c10.84,0.015,13.983,6.875,15.959,13.364
						c3.016,10.008,15.128,7.437,16.443-0.397c1.325-15.923-11.746-30.246-32.219-29.793c-5.137,0.042-68.932,13.791-65.617,49.735
						C1029.789,539.383,1063.423,549.815,1078.746,539.664z"/>
				</g>
				<g>
					<path fill="#717171" d="M1127.64,474.479c6.76,6.136,27.32-0.122,36.486,11.765c8.02,10.871-1.976,28.007-18.5,25.047
						c-8.28-1.418-15.455-2.207-27.837-1.373c-7.376,0.47-15.307-5.873-16.964-13.346c-1.9-12.184-28.507-7.184-10.218,15.113
						c15.621,18.965,31.703,13.976,37.543,14.25c13.94,0.506,14.992,2.162,21.467,2.275c14.001-0.024,39.305-17.609,34.709-40.068
						c-6.131-28.93-52.034-30.266-57.491-24.268C1123.941,466.966,1124.041,471.36,1127.64,474.479z"/>
				</g>
			</g>
			<g>
				<g>
					<path fill="#CACACA" d="M1233.999,686.091c0.453,6.48,4.857,20.732,6.817,26.903c2.553,5.845,10.327,7.147,13.689,2.424
						c6.29-7.376-5.625-20.267-3.511-33.841c3.684-16.848,26.966-16.465,31.802,0.408c0.287,1,3.028,13.179,9.548,29.825
						c1.961,5.604,0.538,13.545-4.948,18.151c-2.624,2.582-7.179,3.347-8.023,7.596c-1.06,2.928,0.038,6.035,2.054,8.223
						c10.937,11.845,36.358-19.296,25.549-41.608c-9.695-21.002-5.12-39.33-28.979-49.028
						C1253.528,645.261,1232.254,663.688,1233.999,686.091z"/>
				</g>
				<g>
					<path fill="#6F6F6F" d="M1309.094,745.629c6.251,11.542,14.543,17.588,10.656,28.617c-2.192,6.868-9.513,12.52-18.174,10.692
						c-10.812-2.294-24.492-29.005-28.798-37.935c-3.988-7.913-0.767-18.303,7.212-21.658c11.083-4.497,4.138-25.646-14.268-11.465
						c-6.993,5.397-10.724,13.131-11.551,21.748c-0.751,11.542,3.287,17.634,7.835,26.311c1.431,2.483,9.594,16.816,14.654,23.86
						c19.074,26.822,48.917,18.811,57.744-4.211c7.715-19.411-3.059-31.41-8.681-40.143c-2.733-4.243-2.546-4.759-4.253-5.844
						C1315.065,731.09,1305.355,738.467,1309.094,745.629z"/>
				</g>
			</g>
			<g>
				<g>
					<path fill="#737373" d="M1196.343,591.932c4.042-14.779,3.812-28.873,0.431-43.903l37.187-41.692
						c8.723,20.836,12.059,39.482,11.742,59.426L1196.343,591.932z"/>
					<path fill="#828282" d="M1194.825,593.829c4.124-15.12,5.018-27.763,0.899-46.072l38.535-43.204
						c8.856,21.152,12.648,38.451,12.398,61.796L1194.825,593.829z M1197.824,548.302c3.629,16.144,2.933,30.923,0.034,41.735
						l46.888-24.859c0.19-19.743-3.343-38.566-11.085-57.057L1197.824,548.302z"/>
				</g>
				<g>
					<path fill="#BBBBBB" d="M1232.157,615.242c-2.744-3.487-16.37-17.151-35.814-23.31l49.359-26.168
						c21.308,13.392,37.033,34.259,42.083,44.315L1232.157,615.242z"/>
					<path fill="#808080" d="M1231.724,616.251c-6.174-7.832-19.371-18.217-37.863-24.095l51.881-27.506
						c19.463,12.251,36.088,31.297,43.531,46.256C1286.999,611.123,1234.626,615.982,1231.724,616.251z M1198.773,591.736
						c13.068,4.793,23.487,11.544,33.78,22.5l53.628-4.978c-10.733-17.416-23.437-31.571-40.52-42.381L1198.773,591.736z"/>
				</g>
				<g>
					<path fill="#C3C3C3" d="M1245.702,565.764c0.312-19.598-2.883-38.259-11.742-59.427c23.59,7.108,42.453,17.804,61.1,33.258
						c3.471,30.925-2.65,59.078-7.276,70.483C1284.276,603.091,1269.423,580.675,1245.702,565.764z"/>
					<path fill="#515151" d="M1287.878,612.393c-8.168-16.082-24.101-34.107-43.149-46.101c0.257-23.807-3.733-40.643-12.447-61.467
						c22.516,6.786,41.045,15.542,63.695,34.277C1299.168,567.692,1294.796,595.521,1287.878,612.393z M1246.675,565.236
						c17.018,10.745,30.105,25.113,40.859,42.535c6.794-21.622,9.299-43.566,6.612-67.681
						c-19.205-15.877-39.041-26.373-58.506-32.239C1242.97,525.382,1246.871,544.495,1246.675,565.236z"/>
				</g>
			</g>
			<g>
				<g>
					<path fill="#727272" d="M1367.196,899.527c-12.771-17.608-22.844-35.77-31.198-55.291l35.832-42.862
						c5.653,17.304,12.927,33.501,22.64,49.397L1367.196,899.527z"/>
					<path fill="#DBDBDB" d="M1367.301,901.313c-12.833-17.801-22.603-34.356-32.423-57.243l37.328-44.651
						c6.086,18.617,12.623,33.592,23.382,51.33L1367.301,901.313z M1337.119,844.399c7.98,18.487,17.515,35.987,29.971,53.339
						l26.263-46.946c-9.588-15.836-16.458-31.219-21.894-47.472L1337.119,844.399z"/>
				</g>
				<g>
					<path fill="#BDBDBD" d="M1431.003,897.089c-19.868,3.132-40.34,4.163-63.807,2.438l27.274-48.756
						c20.428-0.141,37.579-2.606,53.715-6.84L1431.003,897.089z"/>
					<path fill="#383838" d="M1365.614,900.377l28.288-50.567c22.17-0.149,37.752-2.556,55.743-7.259l-17.906,55.399
						C1409.952,901.361,1390.605,902.215,1365.614,900.377z M1368.78,898.67c22.438,1.536,42.193,0.579,61.487-2.442l16.458-50.918
						c-16.95,4.413-34.531,6.245-51.686,6.419L1368.78,898.67z"/>
				</g>
				<g>
					<path fill="#999999" d="M1394.47,850.77c-9.643-15.78-16.935-31.937-22.64-49.397c12.66,1.502,29.087,3.13,49.915,0.64
						c7.112,15.241,15.626,28.769,26.44,41.916C1431.842,848.219,1414.685,850.63,1394.47,850.77z"/>
					<path fill="#868686" d="M1393.932,851.739c-10.678-17.611-17.354-32.731-23.488-51.502c17.565,2.084,31.519,3.097,51.88,0.737
						c8.226,17.634,16.293,29.783,27.562,43.507C1432.37,849.065,1416.307,851.584,1393.932,851.739z M1373.222,802.509
						c5.531,16.592,12.436,31.849,21.786,47.292c17.22-0.177,34.531-2.008,51.475-6.422c-10.073-12.287-18.513-25.902-25.315-40.325
						C1404.588,804.958,1389.681,804.462,1373.222,802.509z"/>
				</g>
			</g>
		</g>
		<g>
			<g>
				<g>
					<path fill="#282828" d="M1500.549,913.526c5.023,1.295,5.564,1.049,25.498,1.503c4.479,0.266,8.472-3.802,8.331-8.128
						c0.505-10.602-12.534-7.828-26.016-8.766c-19.458-1.379-19.992-27.81-2.394-31.947c3.974-0.96,6.373-0.158,36.844,0.24
						c6.818,0.07,13.486,4.286,15.781,10.713c1.842,4.046-0.057,9.445,4.131,12.393c4.519,4.048,12.504,1.281,13.653-4.521
						c1.005-8.797-2.386-17.413-8.241-23.88c-12.178-13.502-22.727-11.026-58.325-11.811
						C1478.192,847.251,1457.814,902.523,1500.549,913.526z"/>
				</g>
				<g>
					<path fill="#868686" d="M1584.897,867.097c14.514,0.16,24.918-1.447,30.593,7.937c6.215,9.322,0.848,25.186-16.128,24.795
						c-10.747-0.223-21.508-0.109-32.243-0.523c-8.435-0.32-15.701-7.865-15.523-16.112c0.928-11.498-17.744-11.388-16.899-0.373
						c-0.793,16.423,13.304,31.663,30.05,32.904c12.802,0.231,25.603,0.344,38.399,0.507c22.818-0.526,38.209-25.023,29.496-44.517
						c-4.851-12.551-18.165-21.429-31.816-20.825c-6.104,0.182-12.34-0.673-18.364,0.18
						C1573.283,853.722,1575.74,867.407,1584.897,867.097z"/>
				</g>
			</g>
			<g>
				<g>
					<path fill="#979797" d="M1818.865,901.32c11.576,17.574,28.646,14.884,46.256,14.811c10.313-0.959,9.53-18.181-3.873-16.312
						c-7.12-0.396-14.647,1.231-21.396-1.636c-6.788-3.062-10.871-11.092-8.97-18.229c3.086-12.826,14.982-12.535,22.43-12.68
						c23.377,0.029,38.946-2.921,42.903,11.721c1.225,3.462,0.003,7.92,3.39,10.462c4.245,4.47,12.54,1.947,14.003-3.84
						c2.13-17.878-14.192-36.001-34.702-34.79c-12.437,0.271-24.966-0.425-37.352,0.493
						C1817.885,854.727,1805.867,882.083,1818.865,901.32z"/>
				</g>
				<g>
					<path fill="#949494" d="M1921.253,867.147c15.235,0.016,25.371-1.658,31.19,7.292c7.264,10.179-0.076,25.028-13.611,25.228
						c-11.311,0.069-22.627,0.108-33.943-0.039c-8.472-0.093-16.065-7.452-15.984-15.826c0.319-10.641-15.874-11.717-17.062-1.089
						c-0.384,18.938,15.926,34.113,33.703,33.371c29.811-0.014,51.052,4.235,62.673-17.131c11.776-21.07-3.424-46.88-27.3-48.187
						c-21.149-0.01-20.356-0.229-22.279,0.645C1910.51,854.671,1912.795,866.797,1921.253,867.147z"/>
				</g>
			</g>
			<g>
				<g>
					<polygon fill="#909090" points="1724.304,939.81 1674.821,911.863 1674.934,855.997 1724.218,883.943 					"/>
					<path fill="#5A5A5A" d="M1725.272,941.464l-51.417-29.038l0.118-58.083l51.21,29.038L1725.272,941.464z M1675.786,911.301
						l47.551,26.855l-0.082-53.65l-47.36-26.855L1675.786,911.301z"/>
				</g>
				<g>
					<polygon fill="#595959" points="1773.655,911.743 1724.304,939.81 1724.218,883.943 1773.464,855.877 					"/>
					<path fill="#7F7F7F" d="M1723.342,941.467l-0.089-58.084l51.17-29.163l0.198,58.083L1723.342,941.467z M1725.184,884.503
						l0.082,53.649l47.422-26.97l-0.183-53.649L1725.184,884.503z"/>
				</g>
				<g>
					<polygon fill="#B6B6B6" points="1724.218,883.943 1674.934,855.997 1724.132,828.076 1773.464,855.877 					"/>
					<path fill="#080808" d="M1724.219,885.053l-51.241-29.056l51.151-29.028c0.812,0.457,50.462,28.437,51.291,28.905
						L1724.219,885.053z M1676.888,855.996l47.329,26.837l47.29-26.951l-47.374-26.698L1676.888,855.996z"/>
				</g>
			</g>
			<g>
				<g>
					<path fill="#C7C7C7" d="M2068.298,936.316c-22.091-7.685-45.162-18.401-56.11-24.647l0.094-55.866
						c15.982,9.598,30.961,17.488,49.179,25.067L2068.298,936.316z"/>
					<path fill="#848484" d="M2069.445,937.737c-23.948-8.337-46.239-18.682-58.224-25.507l0.098-58.13
						c17.897,10.631,31.449,17.977,51.029,26.094L2069.445,937.737z M2013.153,911.102c14.851,8.08,33.936,16.663,53.997,23.787
						l-6.579-53.346c-18.46-7.768-31.496-14.682-47.328-24.039L2013.153,911.102z"/>
				</g>
				<g>
					<path fill="#7A7A7A" d="M2117.415,898.109c-9.529,9.241-26.57,23.262-49.117,38.206l-6.837-55.447
						c18.906-14.26,33.134-27.719,40.729-36.511L2117.415,898.109z"/>
					<path fill="#7B7B7B" d="M2067.532,937.984l-7.098-57.549c14.551-10.997,30.177-24.147,42.195-38.062L2118.5,898.4
						C2108.167,908.427,2091.263,922.211,2067.532,937.984z M2062.486,881.304l6.579,53.347
						c16.111-10.727,32.987-23.357,47.263-36.838l-14.591-51.511C2089.052,860.034,2077.071,870.272,2062.486,881.304z"/>
				</g>
				<g>
					<path fill="#767676" d="M2061.46,880.869c-17.947-7.466-32.927-15.307-49.179-25.067c1.005-0.565,21.843-12.737,42.341-30.38
						c18.77,9.301,36.197,15.858,47.566,18.935C2094.831,852.876,2080.763,866.311,2061.46,880.869z"/>
					<path fill="#7F7F7F" d="M2061.6,881.973c-20.647-8.609-33.917-15.908-51.239-26.198c11.869-6.676,29.276-18.711,44.116-31.501
						c15.869,7.843,33.174,15.147,49.441,19.553C2092.56,857.017,2076.887,870.414,2061.6,881.973z M2014.165,855.808
						c16.232,9.593,29.252,16.435,47.157,23.958c14.322-10.834,26.874-21.547,39.122-34.909
						c-16.334-4.864-30.718-10.899-45.678-18.287C2042.805,836.757,2030.292,845.957,2014.165,855.808z"/>
				</g>
			</g>
		</g>
		<g>
			<g>
				<g>
					<path fill="#555555" d="M2192.759,870c3.726-2.325,11.687-7.826,15.834-11.024c4.358-3.162,5.051-9.133,2.125-12.285
						c-9.067-11.713-22.898,15.163-39.55,12.065c-8.188-1.628-13.822-9.316-12.141-18.59c1.766-9.36,6.317-10.262,19.291-19.649
						c10.239-7.83,16.886-15.974,25.97-14.396c8.924,1.602,9.956,8.815,16.185,7.913c3.016-0.063,5.6-2.217,6.927-4.849
						c6.478-12.969-26.597-28.885-46.847-11.734c-21.551,19.443-35.389,20.012-37.857,42.789
						C2139.473,870.035,2169.651,885.634,2192.759,870z"/>
				</g>
				<g>
					<path fill="#282828" d="M2219.325,782.846c1.436-1.482,8.21-9.601,9.411-11.301c9.828-13.385,31.924-6.132,29.803,10.892
						c-0.938,6.31-5.956,11.487-10.222,16.605c-38.596,46.432-36.047,7.074-51.258,16.521c-10.467,5.949,1.426,22.691,19.655,23.207
						c6.731,0.199,10.542-1.698,11.542-1.797c0.206,0.22-0.067-0.059,0.682,0.721c6.789,1.282,38.105-32.685,43.719-44.29
						c15.738-34.404-26.231-57.18-50.72-38.191c-3.853,2.882-14.981,16.927-16.069,18.629
						C2202.552,781.549,2213.773,789.475,2219.325,782.846z"/>
				</g>
			</g>
			<g>
				<g>
					<path fill="#A0A0A0" d="M2314.604,557.873c3.153-11.268-0.614-19.727-4.371-30.895c-2.751-7.172-3.681-12.34-10.015-12.999
						c-7.116-0.745-10.815,7.307-6.866,14.628c2.586,8.003,6.316,14.423,5.457,22.15c-1.379,10.424-12.717,16.833-23.06,11.532
						c-7.495-3.655-8.567-10.1-10.401-15.314c-6.919-21.073-16.999-31.416-5.873-42.172c1.904-2.163,10.051-5.508,7.3-12.553
						c-7.339-20.036-39.25,13.846-25.114,39.479c10.664,21.67,8.374,33.629,23.539,43.112
						C2283.382,586.621,2308.597,580.7,2314.604,557.873z"/>
				</g>
				<g>
					<path fill="#5A5A5A" d="M2236.654,490.226c-6.448-10.836-15.289-16.698-11.985-27.863c2.378-9.163,12.374-14.727,21.508-10.554
						c4.284,1.948,7.319,3.997,22.052,27.441c4.387,7.122,8.489,11.757,6.361,20.158c-0.992,4.071-3.7,7.618-7.429,9.49
						c-3.884,1.894-5.965,6.953-4.177,10.827c6.582,16.189,39.843-7.614,25.824-38.195c-0.442-1.002-20.739-36.199-32.03-43.13
						c-26.218-16.385-52.126,7.12-48.608,33.312c1.117,10.532,4.938,13.111,14.311,26.761c0.554,1.025,1.329,1.839,2.319,2.451
						C2231.622,505.594,2240.756,497.381,2236.654,490.226z"/>
				</g>
			</g>
			<g>
				<g>
					<path fill="#6E6E6E" d="M2345.378,678.637c-11.281,16.463-27.152,34.775-41.708,47.906l-52.333-19.552
						c12.498-9.283,27.622-23.669,38.978-37.794L2345.378,678.637z"/>
					<path fill="#848484" d="M2303.882,727.652l-54.543-20.377c15.707-11.669,29.751-25.652,40.58-39.125l57.107,9.79
						C2334.952,695.552,2319.874,713.218,2303.882,727.652z M2253.335,706.708l50.125,18.726
						c16.199-14.614,27.953-29.243,40.272-46.101l-53.021-9.089C2277.796,686.303,2265.278,697.1,2253.335,706.708z"/>
				</g>
				<g>
					<path fill="#B2B2B2" d="M2322.036,619.655c9.696,18.425,16.865,35.912,23.342,58.982l-55.063-9.44
						c-7.171-19.514-14.472-33.779-24.139-48.698L2322.036,619.655z"/>
					<path fill="#202020" d="M2346.72,679.846l-57.119-9.792c-7.952-21.673-15.068-34.879-25.182-50.493l58.195-0.879
						C2333.116,638.654,2339.838,655.335,2346.72,679.846z M2291.026,668.341l53.005,9.087
						c-6.15-21.497-12.977-38.561-22.573-56.799l-53.525,0.808C2277.695,636.479,2284.796,651.526,2291.026,668.341z"/>
				</g>
				<g>
					<path fill="#B0B0B0" d="M2290.315,669.197c-10.702,13.317-25.748,27.971-38.978,37.794
						c-3.023-14.941-9.169-33.284-16.085-47.234c11.219-11.5,19.934-21.466,30.924-39.258
						C2275.851,635.429,2283.142,649.679,2290.315,669.197z"/>
					<path fill="#868686" d="M2250.692,708.673c-3.541-16.857-8.84-33.448-16.608-49.1c13.177-13.507,20.698-22.465,32.073-40.879
						c10.62,16.387,17.57,29.786,25.252,50.682C2279.198,684.56,2264.743,698.232,2250.692,708.673z M2236.42,659.941
						c7.573,15.284,11.75,29.566,15.561,45.371c10.86-8.055,26.552-22.987,37.24-36.293c-6.204-16.737-13.187-31.539-23.025-46.716
						C2255.812,639.114,2246.26,649.855,2236.42,659.941z"/>
				</g>
			</g>
			<g>
				<g>
					<path fill="#3F3F3F" d="M2167.494,341.337c13.408,15.786,25.494,33.28,35.636,52.396l-32.094,45.728
						c-7.056-16.958-16.216-32.878-26.735-47.299L2167.494,341.337z"/>
					<path fill="#CDCDCD" d="M2170.819,441.452c-6.995-16.823-15.227-32.174-27.628-49.176c0.385-0.847,23.491-51.483,24.056-52.72
						c15.625,18.399,27.01,35.395,37.013,54.248L2170.819,441.452z M2145.415,392.05c10.558,14.474,19.952,31.313,25.84,45.423
						l30.746-43.81c-9.991-18.834-22.714-36.947-34.26-50.544L2145.415,392.05z"/>
				</g>
				<g>
					<path fill="#C2C2C2" d="M2104.903,348.641c19.018-4.596,41.762-6.921,62.592-7.304l-23.192,50.825
						c-20.92,1.957-39.804,5.987-53.475,10.543L2104.903,348.641z"/>
					<path fill="#8E8E8E" d="M2089.447,404.182l14.667-56.343c21.872-5.303,44.095-7.11,64.894-7.495l-24.058,52.727
						C2125.886,394.852,2107.631,398.127,2089.447,404.182z M2105.689,349.449l-13.49,51.821
						c18.363-5.445,33.019-8.292,51.458-10.016l22.325-48.924C2146.026,342.697,2125.665,344.959,2105.689,349.449z"/>
				</g>
				<g>
					<path fill="#B2B2B2" d="M2144.303,392.163c10.56,14.478,19.701,30.394,26.735,47.299c-16.896-0.763-33.727,0.396-49.926,3.526
						c-9.324-15.799-20.363-30.115-30.283-40.283C2106.839,397.371,2126.403,393.837,2144.303,392.163z"/>
					<path fill="#6D6D6D" d="M2120.626,444.064c-8.974-15.197-18.927-28.803-31.561-41.787c18.205-6.074,36.829-9.363,55.694-11.125
						c12.373,16.965,20.716,32.429,27.751,49.342C2155.119,439.712,2139.151,440.485,2120.626,444.064z M2092.584,403.169
						c12.775,13.925,21.169,25.47,29.012,38.743c15.386-2.978,33.28-4.148,47.966-3.482c-5.808-13.981-15.132-30.735-25.716-45.256
						C2126.538,394.793,2111.024,397.604,2092.584,403.169z"/>
				</g>
			</g>
		</g>
		<g>
			<g>
				<g>
					<path fill="#727272" d="M2040.651,336.047c-7.837-2.97-10.974-2.351-30.659-2.352c-10.544-0.373-10.903,16.483,0.185,16.37
						c15.637,0.191,19.145-0.697,24.052,1.518c13.145,5.86,12.557,23.196-0.052,29.384c-4.194,2.065-5.855,1.611-22.744,1.671
						c-13.681,0.011-27.89,2.349-32.833-10.404c-1.955-4.011-0.207-9.444-4.473-12.313c-4.624-3.949-12.525-1.084-13.523,4.734
						c-1.54,17.616,14.443,34.285,32.333,34.379c34.349-0.056,47.539,3.402,60.615-13.547
						C2066.977,368.025,2061.645,344.438,2040.651,336.047z"/>
				</g>
				<g>
					<path fill="#9C9C9C" d="M1952.548,382.685c-14.412,0.035-24.882,1.795-30.809-7.583c-6.41-9.224-1.476-25.172,15.528-24.945
						c10.736,0.073,21.478-0.181,32.207,0.075c8.424,0.163,15.893,7.572,15.953,15.82c-0.596,11.445,18.088,11.104,16.903,0.047
						c0.285-16.41-14.226-31.402-30.935-32.326l-38.303,0.02c-22.649,0.731-37.615,25.291-28.435,44.784
						c5.132,12.514,18.677,21.256,32.34,20.526c6.113-0.258,12.387,0.506,18.403-0.428
						C1964.551,395.893,1961.685,382.25,1952.548,382.685z"/>
				</g>
			</g>
			<g>
				<g>
					<path fill="#6E6E6E" d="M1714.94,312.912c-9.4-8.066-8.729-8.852-11.759-9.039c-7.769-0.478-13.864,9.259-6.254,14.88
						c1.61,1.911,6.14,5.446,7.18,6.309c14.13,12.245,7.813,28.5-3.674,30.907c-9.396,2.021-15.835-4.766-19.73-7.899
						c-48.792-42.597-9.468-41.001-13.372-54.923c-5.526-19.87-63.576,13.753,4.927,69.205
						C1718.94,399.365,1745.467,338.294,1714.94,312.912z"/>
				</g>
				<g>
					<path fill="#4D4D4D" d="M1637.525,292.951c2.36-7.113-8.513-22.671-5.411-33.919c4.261-15.473,23.898-14.143,30.233-1.919
						c0,0,3.681,14.19,9.822,27.675c2.032,4.189,2.785,5.239,3.063,8.715c0.471,5.282-2.014,12.14-7.203,15.641
						c-9.296,5.956,0.634,20.455,9.624,14.143c7.82-6.618,12.881-17.812,13.484-27.593c1.074-11.312-3.494-15.496-5.948-21.808
						c-6.544-15.356-4.599-18.421-8.629-24.604c-12.06-18.503-40.736-25.756-53.974-9.267c-16.401,19.53-0.304,53.293,1.373,55.095
						C1628.332,300.235,1635.435,299.283,1637.525,292.951z"/>
				</g>
			</g>
			<g>
				<g>
					<polygon fill="#9A9A9A" points="1811.572,310.785 1861.62,338.649 1862.68,394.505 1812.809,366.638 					"/>
					<path fill="#606060" d="M1863.677,396.167l-51.82-28.956l-1.286-58.088l52.004,28.952L1863.677,396.167z M1813.762,366.066
						l47.922,26.778l-1.017-53.622l-48.093-26.774L1813.762,366.066z"/>
				</g>
				<g>
					<path fill="#7C7C7C" d="M1765.314,338.668c14.6-10.15-1.543-0.497,46.258-27.883l1.237,55.853
						c-43.41,24.958-39.912,23.326-51.175,27.776L1765.314,338.668z"/>
					<path fill="#4E4E4E" d="M1760.572,395.87l3.811-57.729c15.68-10.896-1.642-0.479,48.119-29l1.285,58.048
						C1769.285,392.784,1773.697,390.685,1760.572,395.87z M1766.246,339.195l-3.549,53.761
						c10.246-4.046,10.833-4.838,49.135-26.869l-1.189-53.658C1767.837,336.966,1778.629,330.333,1766.246,339.195z"/>
				</g>
				<g>
					<path fill="#A7A7A7" d="M1812.809,366.638l49.871,27.867l-48.634,27.986c-60.411-33.788-24.554-13.906-52.411-28.078
						C1772.895,389.965,1769.398,391.596,1812.809,366.638z"/>
					<path fill="#919191" d="M1814.053,423.601c-60.381-33.756-25.179-14.249-54.765-29.298c13.999-5.528,9.142-3.252,53.515-28.773
						l51.833,28.964L1814.053,423.601z M1763.979,394.524c23.358,11.884-8.964-6.14,50.06,26.858l46.685-26.865l-47.909-26.77
						C1774.205,389.954,1773.388,390.81,1763.979,394.524z"/>
				</g>
			</g>
			<g>
				<g>
					<path fill="#A2A2A2" d="M1719.982,186.676c-13.989,0.649-29.141,7.086-40.934,14.745l-52.375-19.44
						c14.226-13.737,32.684-26.413,51.47-32.326L1719.982,186.676z"/>
					<path fill="#8D8D8D" d="M1679.166,202.494l-54.268-20.142c15.185-14.653,33.266-27.428,53.475-33.78l44.026,38.955
						C1706.185,188.296,1692.436,193.877,1679.166,202.494z M1628.445,181.61l50.484,18.737
						c11.993-7.793,24.601-12.807,38.754-14.417l-39.763-35.184C1660.654,156.684,1643.331,167.235,1628.445,181.61z"/>
				</g>
				<g>
					<path fill="#737373" d="M1729.379,144.678c-5.975,10.886-9.859,25.907-9.397,41.998l-41.839-37.021
						c5.13-22.697,15.47-42.194,26.36-54.999L1729.379,144.678z"/>
					<path fill="#C9C9C9" d="M1721.01,188.873l-43.935-38.874c5.253-23.219,15.117-42.362,27.64-57.082l25.752,51.783
						C1722.88,158.561,1720.561,173.285,1721.01,188.873z M1679.209,149.311l39.744,35.166c-0.289-12.919,2.998-27.324,9.344-39.81
						l-23.987-48.233C1691.809,112.477,1683.718,129.383,1679.209,149.311z"/>
				</g>
				<g>
					<path fill="#515151" d="M1678.142,149.655c-18.786,5.913-37.244,18.588-51.47,32.326c-1.769-25.852,2.612-51.037,9.63-69.346
						c20.919-10.212,45.956-17.808,68.199-17.979C1693.485,107.609,1683.231,127.157,1678.142,149.655z"/>
					<path fill="#B8B8B8" d="M1625.851,184.115c-1.893-27.733,2.116-52.411,9.687-72.18c22.46-10.966,46.374-18.072,71.065-18.259
						c-13.201,15.529-22.574,34.312-27.641,56.733C1658.794,156.754,1641.059,169.431,1625.851,184.115z M1637.072,113.333
						c-7.374,20.269-11.103,44.227-9.578,66.514c14.624-14.124,32.385-24.944,49.828-30.935
						c4.553-20.171,12.569-36.877,25.116-53.212C1680.687,96.883,1660.282,102.005,1637.072,113.333z"/>
				</g>
			</g>
		</g>
	</g>
</g>
</svg>
